<svg width="573" height="362" viewBox="0 0 573 362" fill="none" xmlns="http://www.w3.org/2000/svg">
<rect x="10" y="21" width="563" height="341" rx="5.4061" fill="white"/>
<rect x="11.6218" y="22.6218" width="559.756" height="337.756" rx="3.78427" stroke="black" stroke-opacity="0.77" stroke-width="3.24366"/>
<rect x="35.4312" y="81" width="499.083" height="49" rx="2" fill="#DFDFDF" stroke="black" stroke-width="2"/>
<path d="M47.6646 114L52.7376 100.7H54.6756L59.7486 114H57.2596L56.2336 111.074H51.1226L50.0966 114H47.6646ZM51.8446 109.041H55.5306L53.7066 103.854L51.8446 109.041ZM61.2924 114V100.7H67.3724C68.6137 100.7 69.5954 100.991 70.3174 101.574C71.052 102.157 71.4194 103.138 71.4194 104.519C71.4194 105.9 71.052 106.888 70.3174 107.483C69.5954 108.078 68.6137 108.376 67.3724 108.376H63.4774V114H61.2924ZM63.4774 106.324H67.0684C67.7144 106.324 68.2147 106.185 68.5694 105.906C68.924 105.627 69.1014 105.165 69.1014 104.519C69.1014 103.886 68.924 103.43 68.5694 103.151C68.2147 102.872 67.7144 102.733 67.0684 102.733H63.4774V106.324ZM73.2787 114V100.7H75.4637V114H73.2787ZM78.8806 114.931L77.6646 114.304L85.0746 99.731L86.2906 100.377L78.8806 114.931ZM96.3405 114.304V106.077C95.3779 106.736 94.3899 107.35 93.3765 107.92C92.3759 108.477 91.3942 108.965 90.4315 109.383C90.3302 109.193 90.1909 108.971 90.0135 108.718C89.8362 108.465 89.6462 108.218 89.4435 107.977C89.2535 107.736 89.0635 107.546 88.8735 107.407C89.9755 107.014 91.1155 106.501 92.2935 105.868C93.4715 105.235 94.6052 104.532 95.6945 103.759C96.7965 102.986 97.8035 102.176 98.7155 101.327C99.6275 100.478 100.369 99.636 100.939 98.8L102.915 100.149C102.37 100.871 101.737 101.587 101.015 102.296C100.305 102.993 99.5389 103.67 98.7155 104.329V114.304H96.3405ZM110.477 113.468L109.185 111.131C110.084 110.941 111.028 110.631 112.016 110.2C113.016 109.757 114.017 109.244 115.018 108.661C116.018 108.066 116.968 107.432 117.868 106.761C118.767 106.077 119.578 105.387 120.3 104.69C121.034 103.993 121.63 103.328 122.086 102.695C122.136 102.91 122.219 103.176 122.333 103.493C122.459 103.81 122.592 104.12 122.732 104.424C122.871 104.715 122.991 104.943 123.093 105.108C122.472 105.906 121.693 106.717 120.756 107.54C119.831 108.351 118.805 109.136 117.678 109.896C116.55 110.643 115.372 111.327 114.144 111.948C112.915 112.569 111.693 113.075 110.477 113.468ZM112.51 105.089C112.345 104.912 112.111 104.703 111.807 104.462C111.515 104.221 111.186 103.968 110.819 103.702C110.464 103.436 110.116 103.195 109.774 102.98C109.432 102.752 109.134 102.581 108.881 102.467L110.401 100.548C110.654 100.687 110.952 100.865 111.294 101.08C111.636 101.295 111.984 101.53 112.339 101.783C112.706 102.036 113.048 102.29 113.365 102.543C113.681 102.784 113.935 102.999 114.125 103.189L112.51 105.089ZM128.907 114.931C128.742 114.576 128.539 114.209 128.299 113.829C128.058 113.436 127.83 113.139 127.615 112.936C129.021 112.429 130.351 111.764 131.605 110.941C132.871 110.118 134.011 109.174 135.025 108.11C134.645 107.857 134.271 107.622 133.904 107.407C133.536 107.192 133.182 107.008 132.84 106.856L134.151 105.108C134.873 105.437 135.645 105.862 136.469 106.381C136.798 105.912 137.108 105.437 137.4 104.956C137.691 104.462 137.944 103.962 138.16 103.455C137.628 103.48 137.051 103.512 136.431 103.55C135.823 103.575 135.253 103.601 134.721 103.626C134.189 103.639 133.771 103.651 133.467 103.664C132.909 104.513 132.282 105.323 131.586 106.096C130.889 106.856 130.116 107.559 129.268 108.205C129.065 107.952 128.799 107.66 128.47 107.331C128.14 107.002 127.849 106.767 127.596 106.628C128.482 105.995 129.312 105.241 130.085 104.367C130.87 103.493 131.548 102.562 132.118 101.574C132.7 100.586 133.137 99.617 133.429 98.667L135.614 99.351C135.474 99.7437 135.322 100.136 135.158 100.529C134.993 100.909 134.816 101.283 134.626 101.65C135.183 101.637 135.785 101.625 136.431 101.612C137.089 101.587 137.704 101.561 138.274 101.536C138.844 101.498 139.281 101.46 139.585 101.422L141.067 102.22C140.737 103.233 140.345 104.196 139.889 105.108C139.433 106.007 138.926 106.862 138.369 107.673C138.85 108.028 139.3 108.389 139.718 108.756C140.148 109.111 140.503 109.446 140.782 109.763C140.604 109.89 140.402 110.067 140.174 110.295C139.958 110.523 139.749 110.757 139.547 110.998C139.357 111.239 139.205 111.448 139.091 111.625C138.495 110.954 137.754 110.251 136.868 109.516C135.804 110.694 134.6 111.733 133.258 112.632C131.928 113.531 130.477 114.298 128.907 114.931ZM145.893 108.015C145.905 107.838 145.912 107.597 145.912 107.293C145.912 106.989 145.912 106.685 145.912 106.381C145.912 106.077 145.905 105.836 145.893 105.659C146.133 105.672 146.558 105.684 147.166 105.697C147.786 105.71 148.521 105.722 149.37 105.735C150.231 105.748 151.149 105.76 152.125 105.773C153.1 105.773 154.075 105.773 155.051 105.773C156.026 105.773 156.944 105.767 157.806 105.754C158.68 105.741 159.433 105.729 160.067 105.716C160.7 105.703 161.15 105.684 161.416 105.659C161.403 105.824 161.39 106.058 161.378 106.362C161.378 106.666 161.378 106.976 161.378 107.293C161.39 107.597 161.397 107.831 161.397 107.996C161.08 107.983 160.611 107.971 159.991 107.958C159.383 107.945 158.667 107.933 157.844 107.92C157.033 107.907 156.165 107.901 155.241 107.901C154.329 107.901 153.404 107.901 152.467 107.901C151.529 107.901 150.636 107.907 149.788 107.92C148.939 107.933 148.173 107.945 147.489 107.958C146.817 107.971 146.285 107.99 145.893 108.015ZM168.313 113.943C168.237 113.778 168.116 113.563 167.952 113.297C167.787 113.031 167.603 112.765 167.401 112.499C167.211 112.233 167.027 112.024 166.85 111.872C169.256 111.074 171.245 109.978 172.816 108.585C174.399 107.192 175.539 105.406 176.236 103.227C175.64 103.24 174.963 103.259 174.203 103.284C173.443 103.309 172.664 103.335 171.866 103.36C171.08 103.385 170.32 103.411 169.586 103.436C168.864 103.461 168.23 103.487 167.686 103.512C167.141 103.537 166.742 103.556 166.489 103.569L166.337 101.004C166.704 101.029 167.185 101.048 167.781 101.061C168.376 101.074 169.035 101.08 169.757 101.08C170.491 101.08 171.239 101.08 171.999 101.08C172.771 101.067 173.519 101.055 174.241 101.042C174.963 101.017 175.615 100.991 176.198 100.966C176.78 100.941 177.243 100.915 177.585 100.89L179.124 101.688C178.693 103.715 177.984 105.532 176.996 107.141C176.008 108.737 174.779 110.111 173.31 111.264C171.84 112.404 170.175 113.297 168.313 113.943ZM185.926 112.29V110.39C186.242 110.415 186.831 110.434 187.693 110.447C188.554 110.46 189.586 110.466 190.79 110.466V106.856C189.992 106.856 189.263 106.862 188.605 106.875C187.946 106.875 187.515 106.888 187.313 106.913V105.032C187.604 105.057 188.136 105.076 188.909 105.089C189.694 105.089 190.65 105.089 191.778 105.089C192.867 105.089 193.798 105.083 194.571 105.07C195.356 105.057 195.875 105.045 196.129 105.032V106.913C195.926 106.888 195.527 106.875 194.932 106.875C194.336 106.862 193.589 106.856 192.69 106.856V110.466C193.842 110.453 194.837 110.441 195.673 110.428C196.521 110.415 197.066 110.403 197.307 110.39V112.29C197.003 112.265 196.357 112.246 195.369 112.233C194.393 112.22 193.171 112.214 191.702 112.214C190.878 112.214 190.061 112.22 189.251 112.233C188.44 112.233 187.731 112.239 187.123 112.252C186.527 112.252 186.128 112.265 185.926 112.29ZM210.341 114.304V106.077C209.378 106.736 208.39 107.35 207.377 107.92C206.376 108.477 205.394 108.965 204.432 109.383C204.33 109.193 204.191 108.971 204.014 108.718C203.836 108.465 203.646 108.218 203.444 107.977C203.254 107.736 203.064 107.546 202.874 107.407C203.976 107.014 205.116 106.501 206.294 105.868C207.472 105.235 208.605 104.532 209.695 103.759C210.797 102.986 211.804 102.176 212.716 101.327C213.628 100.478 214.369 99.636 214.939 98.8L216.915 100.149C216.37 100.871 215.737 101.587 215.015 102.296C214.305 102.993 213.539 103.67 212.716 104.329V114.304H210.341ZM223.489 113.734C223.324 113.455 223.102 113.12 222.824 112.727C222.558 112.334 222.285 112.024 222.007 111.796C222.957 111.378 223.907 110.859 224.857 110.238C225.807 109.617 226.712 108.921 227.574 108.148C228.448 107.363 229.239 106.539 229.949 105.678C230.671 104.804 231.279 103.917 231.773 103.018C231.152 103.056 230.468 103.1 229.721 103.151C228.986 103.202 228.251 103.252 227.517 103.303C226.795 103.341 226.136 103.385 225.541 103.436C224.958 103.474 224.508 103.506 224.192 103.531L223.926 101.118C224.242 101.118 224.717 101.112 225.351 101.099C225.984 101.086 226.693 101.067 227.479 101.042C228.264 101.004 229.043 100.966 229.816 100.928C230.601 100.89 231.304 100.846 231.925 100.795C232.558 100.732 233.027 100.675 233.331 100.624L234.87 101.612C234.566 102.499 234.173 103.373 233.692 104.234C233.21 105.083 232.666 105.9 232.058 106.685C232.501 107.027 232.97 107.413 233.464 107.844C233.97 108.275 234.464 108.718 234.946 109.174C235.427 109.63 235.87 110.067 236.276 110.485C236.681 110.903 237.017 111.277 237.283 111.606C236.966 111.809 236.63 112.075 236.276 112.404C235.921 112.721 235.611 113.025 235.345 113.316C235.104 112.974 234.794 112.588 234.414 112.157C234.034 111.714 233.622 111.27 233.179 110.827C232.748 110.371 232.311 109.934 231.868 109.516C231.424 109.085 231.006 108.705 230.614 108.376C229.562 109.503 228.422 110.523 227.194 111.435C225.965 112.347 224.73 113.113 223.489 113.734ZM244.237 112.879L243.002 111.929C243.014 111.777 243.027 111.492 243.04 111.074C243.052 110.656 243.059 110.156 243.059 109.573C243.071 108.99 243.078 108.363 243.078 107.692C243.078 107.008 243.078 106.337 243.078 105.678C243.078 104.943 243.071 104.253 243.059 103.607C243.059 102.948 243.052 102.378 243.04 101.897C243.027 101.403 243.014 101.048 243.002 100.833H245.434C245.408 101.061 245.389 101.428 245.377 101.935C245.364 102.442 245.351 103.012 245.339 103.645C245.339 104.278 245.339 104.918 245.339 105.564V109.896C246.213 109.567 247.144 109.174 248.132 108.718C249.12 108.249 250.089 107.749 251.039 107.217C252.001 106.672 252.882 106.128 253.68 105.583C254.478 105.038 255.13 104.519 255.637 104.025C255.649 104.24 255.681 104.532 255.732 104.899C255.782 105.254 255.839 105.602 255.903 105.944C255.979 106.286 256.042 106.546 256.093 106.723C255.586 107.141 254.972 107.584 254.25 108.053C253.54 108.509 252.761 108.971 251.913 109.44C251.064 109.909 250.19 110.365 249.291 110.808C248.404 111.239 247.524 111.631 246.65 111.986C245.788 112.341 244.984 112.638 244.237 112.879ZM267.341 114.304V106.077C266.378 106.736 265.39 107.35 264.377 107.92C263.376 108.477 262.394 108.965 261.432 109.383C261.33 109.193 261.191 108.971 261.014 108.718C260.836 108.465 260.646 108.218 260.444 107.977C260.254 107.736 260.064 107.546 259.874 107.407C260.976 107.014 262.116 106.501 263.294 105.868C264.472 105.235 265.605 104.532 266.695 103.759C267.797 102.986 268.804 102.176 269.716 101.327C270.628 100.478 271.369 99.636 271.939 98.8L273.915 100.149C273.37 100.871 272.737 101.587 272.015 102.296C271.305 102.993 270.539 103.67 269.716 104.329V114.304H267.341ZM285.999 114.646C285.986 114.443 285.923 114.063 285.809 113.506C285.707 112.936 285.574 112.246 285.41 111.435C285.258 110.624 285.087 109.757 284.897 108.832C284.707 107.895 284.517 106.957 284.327 106.02C283.174 106.248 282.135 106.457 281.211 106.647C280.286 106.837 279.627 106.983 279.235 107.084L278.722 104.652C279.203 104.627 279.906 104.551 280.831 104.424C281.755 104.297 282.769 104.145 283.871 103.968C283.63 102.866 283.415 101.91 283.225 101.099C283.047 100.276 282.914 99.7627 282.826 99.56L285.068 99.066C285.08 99.1927 285.125 99.4713 285.201 99.902C285.289 100.333 285.397 100.871 285.524 101.517C285.663 102.15 285.815 102.847 285.98 103.607C287.044 103.417 288.063 103.227 289.039 103.037C290.027 102.834 290.888 102.651 291.623 102.486C292.357 102.309 292.87 102.169 293.162 102.068L294.587 102.999C294.371 103.455 294.112 103.962 293.808 104.519C293.504 105.076 293.181 105.646 292.839 106.229C292.497 106.812 292.155 107.369 291.813 107.901C291.471 108.42 291.154 108.883 290.863 109.288C290.749 109.174 290.565 109.041 290.312 108.889C290.058 108.724 289.799 108.572 289.533 108.433C289.279 108.281 289.07 108.167 288.906 108.091C289.21 107.711 289.577 107.204 290.008 106.571C290.451 105.938 290.863 105.317 291.243 104.709C290.571 104.836 289.818 104.975 288.982 105.127C288.146 105.279 287.297 105.444 286.436 105.621C286.651 106.571 286.86 107.521 287.063 108.471C287.278 109.408 287.481 110.276 287.671 111.074C287.873 111.872 288.044 112.543 288.184 113.088C288.323 113.62 288.418 113.956 288.469 114.095C288.241 114.108 287.968 114.139 287.652 114.19C287.335 114.253 287.025 114.323 286.721 114.399C286.429 114.475 286.189 114.557 285.999 114.646ZM297.893 108.015C297.905 107.838 297.912 107.597 297.912 107.293C297.912 106.989 297.912 106.685 297.912 106.381C297.912 106.077 297.905 105.836 297.893 105.659C298.133 105.672 298.558 105.684 299.166 105.697C299.786 105.71 300.521 105.722 301.37 105.735C302.231 105.748 303.149 105.76 304.125 105.773C305.1 105.773 306.075 105.773 307.051 105.773C308.026 105.773 308.944 105.767 309.806 105.754C310.68 105.741 311.433 105.729 312.067 105.716C312.7 105.703 313.15 105.684 313.416 105.659C313.403 105.824 313.39 106.058 313.378 106.362C313.378 106.666 313.378 106.976 313.378 107.293C313.39 107.597 313.397 107.831 313.397 107.996C313.08 107.983 312.611 107.971 311.991 107.958C311.383 107.945 310.667 107.933 309.844 107.92C309.033 107.907 308.165 107.901 307.241 107.901C306.329 107.901 305.404 107.901 304.467 107.901C303.529 107.901 302.636 107.907 301.788 107.92C300.939 107.933 300.173 107.945 299.489 107.958C298.817 107.971 298.285 107.99 297.893 108.015Z" fill="black"/>
<path d="M301.24 54.1284C301.012 53.8002 300.734 53.4435 300.406 53.0582C300.077 52.6587 299.742 52.3234 299.4 52.0523C300.983 51.3388 302.368 50.4256 303.552 49.3126C304.75 48.1997 305.714 46.9226 306.441 45.4814C307.183 44.026 307.661 42.4564 307.875 40.7727C307.319 40.7869 306.663 40.8084 305.906 40.8369C305.15 40.8654 304.365 40.894 303.552 40.9225C302.753 40.951 301.982 40.9796 301.24 41.0081C300.498 41.0367 299.871 41.0581 299.357 41.0723C299.371 41.5432 299.385 42.0498 299.4 42.592C299.428 43.1342 299.45 43.6693 299.464 44.1972C299.492 44.7252 299.521 45.1961 299.549 45.6099C299.578 46.0094 299.607 46.2948 299.635 46.466L297.002 46.573C297.017 46.3732 297.017 46.0094 297.002 45.4814C296.988 44.9392 296.967 44.3256 296.938 43.6407C296.924 42.9416 296.903 42.2495 296.874 41.5646C296.845 40.8654 296.81 40.2519 296.767 39.7239C296.738 39.1817 296.71 38.8178 296.681 38.6323C296.981 38.6609 297.445 38.6823 298.073 38.6965C298.7 38.6965 299.421 38.6894 300.234 38.6751C301.062 38.6609 301.918 38.6466 302.803 38.6323C303.702 38.6038 304.572 38.5753 305.414 38.5467C306.256 38.5039 307.005 38.4682 307.661 38.4397C308.318 38.3969 308.817 38.3541 309.16 38.3113L310.658 38.9962C310.472 42.5206 309.545 45.5599 307.875 48.1141C306.22 50.6539 304.008 52.6587 301.24 54.1284ZM316.373 47.2579C316.387 47.0582 316.394 46.787 316.394 46.4446C316.394 46.1021 316.394 45.7597 316.394 45.4172C316.394 45.0748 316.387 44.8037 316.373 44.6039C316.644 44.6182 317.122 44.6324 317.807 44.6467C318.506 44.661 319.333 44.6752 320.289 44.6895C321.26 44.7038 322.294 44.718 323.393 44.7323C324.492 44.7323 325.59 44.7323 326.689 44.7323C327.788 44.7323 328.822 44.7252 329.792 44.7109C330.777 44.6966 331.626 44.6824 332.34 44.6681C333.053 44.6538 333.56 44.6324 333.859 44.6039C333.845 44.7894 333.831 45.0534 333.816 45.3958C333.816 45.7383 333.816 46.0879 333.816 46.4446C333.831 46.787 333.838 47.051 333.838 47.2365C333.481 47.2222 332.953 47.208 332.254 47.1937C331.569 47.1794 330.763 47.1652 329.835 47.1509C328.922 47.1366 327.945 47.1295 326.903 47.1295C325.876 47.1295 324.834 47.1295 323.778 47.1295C322.722 47.1295 321.716 47.1366 320.76 47.1509C319.804 47.1652 318.941 47.1794 318.17 47.1937C317.414 47.208 316.815 47.2294 316.373 47.2579ZM340.58 54.8133C340.48 54.5993 340.33 54.3496 340.13 54.0642C339.931 53.7788 339.717 53.5006 339.488 53.2295C339.274 52.9441 339.074 52.7229 338.889 52.566C340.615 51.9096 342.221 51.0749 343.705 50.0618C345.203 49.0344 346.53 47.8715 347.686 46.573C348.856 45.2745 349.798 43.8904 350.511 42.4207C349.912 42.4493 349.27 42.485 348.585 42.5278C347.914 42.5563 347.301 42.5848 346.744 42.6134C346.188 42.6276 345.774 42.6348 345.503 42.6348C344.803 43.548 344.033 44.4041 343.191 45.2032C342.363 45.988 341.486 46.6943 340.558 47.3221C340.43 47.1652 340.245 46.9725 340.002 46.7442C339.774 46.5159 339.531 46.2876 339.274 46.0593C339.032 45.831 338.803 45.6527 338.589 45.5242C339.645 44.9107 340.644 44.1473 341.586 43.2341C342.528 42.3066 343.362 41.3078 344.09 40.2376C344.818 39.1532 345.374 38.083 345.759 37.0271L348.242 37.9046C348.071 38.3041 347.893 38.6965 347.707 39.0818C347.522 39.4671 347.322 39.8452 347.108 40.2162C347.721 40.2019 348.385 40.1877 349.098 40.1734C349.826 40.1448 350.49 40.1163 351.089 40.0878C351.688 40.045 352.116 40.0022 352.373 39.9593L353.978 40.8797C353.308 42.9059 352.316 44.8108 351.003 46.5944C349.705 48.378 348.164 49.969 346.38 51.3674C344.611 52.7657 342.677 53.9144 340.58 54.8133ZM363.032 53.9358C362.946 53.7503 362.811 53.5077 362.625 53.2081C362.44 52.9084 362.233 52.6088 362.005 52.3091C361.791 52.0095 361.584 51.774 361.384 51.6028C364.095 50.7039 366.335 49.4696 368.105 47.9C369.888 46.3304 371.172 44.3185 371.957 41.8643C371.287 41.8785 370.523 41.8999 369.667 41.9285C368.811 41.957 367.933 41.9855 367.034 42.0141C366.15 42.0426 365.294 42.0712 364.466 42.0997C363.653 42.1282 362.939 42.1568 362.326 42.1853C361.712 42.2138 361.263 42.2352 360.977 42.2495L360.806 39.3601C361.22 39.3886 361.762 39.41 362.433 39.4243C363.103 39.4385 363.845 39.4457 364.659 39.4457C365.486 39.4457 366.328 39.4457 367.184 39.4457C368.055 39.4314 368.897 39.4171 369.71 39.4029C370.523 39.3743 371.258 39.3458 371.914 39.3172C372.571 39.2887 373.092 39.2602 373.477 39.2316L375.211 40.1306C374.725 42.4136 373.926 44.4612 372.813 46.2734C371.7 48.0712 370.316 49.6194 368.661 50.9179C367.006 52.2021 365.13 53.2081 363.032 53.9358ZM382.809 51.7312V40.259H395.822V51.7312H382.809ZM385.463 49.2912H393.168V42.699H385.463V49.2912ZM401.986 47.2579C402.001 47.0582 402.008 46.787 402.008 46.4446C402.008 46.1021 402.008 45.7597 402.008 45.4172C402.008 45.0748 402.001 44.8037 401.986 44.6039C402.257 44.6182 402.735 44.6324 403.42 44.6467C404.119 44.661 404.947 44.6752 405.903 44.6895C406.873 44.7038 407.908 44.718 409.007 44.7323C410.105 44.7323 411.204 44.7323 412.303 44.7323C413.401 44.7323 414.436 44.7252 415.406 44.7109C416.391 44.6966 417.24 44.6824 417.953 44.6681C418.667 44.6538 419.173 44.6324 419.473 44.6039C419.459 44.7894 419.444 45.0534 419.43 45.3958C419.43 45.7383 419.43 46.0879 419.43 46.4446C419.444 46.787 419.451 47.051 419.451 47.2365C419.095 47.2222 418.567 47.208 417.868 47.1937C417.183 47.1794 416.377 47.1652 415.449 47.1509C414.536 47.1366 413.558 47.1295 412.517 47.1295C411.489 47.1295 410.448 47.1295 409.392 47.1295C408.336 47.1295 407.33 47.1366 406.374 47.1509C405.418 47.1652 404.555 47.1794 403.784 47.1937C403.028 47.208 402.429 47.2294 401.986 47.2579Z" fill="#221366"/>
<path d="M436.24 54.1284C436.012 53.8002 435.734 53.4435 435.406 53.0582C435.077 52.6587 434.742 52.3234 434.4 52.0523C435.983 51.3388 437.368 50.4256 438.552 49.3126C439.75 48.1997 440.714 46.9226 441.441 45.4814C442.183 44.026 442.661 42.4564 442.875 40.7727C442.319 40.7869 441.663 40.8084 440.906 40.8369C440.15 40.8654 439.365 40.894 438.552 40.9225C437.753 40.951 436.982 40.9796 436.24 41.0081C435.498 41.0367 434.871 41.0581 434.357 41.0723C434.371 41.5432 434.385 42.0498 434.4 42.592C434.428 43.1342 434.45 43.6693 434.464 44.1972C434.492 44.7252 434.521 45.1961 434.549 45.6099C434.578 46.0094 434.607 46.2948 434.635 46.466L432.002 46.573C432.017 46.3732 432.017 46.0094 432.002 45.4814C431.988 44.9392 431.967 44.3256 431.938 43.6407C431.924 42.9416 431.903 42.2495 431.874 41.5646C431.845 40.8654 431.81 40.2519 431.767 39.7239C431.738 39.1817 431.71 38.8178 431.681 38.6323C431.981 38.6609 432.445 38.6823 433.073 38.6965C433.7 38.6965 434.421 38.6894 435.234 38.6751C436.062 38.6609 436.918 38.6466 437.803 38.6323C438.702 38.6038 439.572 38.5753 440.414 38.5467C441.256 38.5039 442.005 38.4682 442.661 38.4397C443.318 38.3969 443.817 38.3541 444.16 38.3113L445.658 38.9962C445.472 42.5206 444.545 45.5599 442.875 48.1141C441.22 50.6539 439.008 52.6587 436.24 54.1284ZM451.373 47.2579C451.387 47.0582 451.394 46.787 451.394 46.4446C451.394 46.1021 451.394 45.7597 451.394 45.4172C451.394 45.0748 451.387 44.8037 451.373 44.6039C451.644 44.6182 452.122 44.6324 452.807 44.6467C453.506 44.661 454.333 44.6752 455.289 44.6895C456.26 44.7038 457.294 44.718 458.393 44.7323C459.492 44.7323 460.59 44.7323 461.689 44.7323C462.788 44.7323 463.822 44.7252 464.792 44.7109C465.777 44.6966 466.626 44.6824 467.34 44.6681C468.053 44.6538 468.56 44.6324 468.859 44.6039C468.845 44.7894 468.831 45.0534 468.816 45.3958C468.816 45.7383 468.816 46.0879 468.816 46.4446C468.831 46.787 468.838 47.051 468.838 47.2365C468.481 47.2222 467.953 47.208 467.254 47.1937C466.569 47.1794 465.763 47.1652 464.835 47.1509C463.922 47.1366 462.945 47.1295 461.903 47.1295C460.876 47.1295 459.834 47.1295 458.778 47.1295C457.722 47.1295 456.716 47.1366 455.76 47.1509C454.804 47.1652 453.941 47.1794 453.17 47.1937C452.414 47.208 451.815 47.2294 451.373 47.2579ZM475.58 54.8133C475.48 54.5993 475.33 54.3496 475.13 54.0642C474.931 53.7788 474.717 53.5006 474.488 53.2295C474.274 52.9441 474.074 52.7229 473.889 52.566C475.615 51.9096 477.221 51.0749 478.705 50.0618C480.203 49.0344 481.53 47.8715 482.686 46.573C483.856 45.2745 484.798 43.8904 485.511 42.4207C484.912 42.4493 484.27 42.485 483.585 42.5278C482.914 42.5563 482.301 42.5848 481.744 42.6134C481.188 42.6276 480.774 42.6348 480.503 42.6348C479.803 43.548 479.033 44.4041 478.191 45.2032C477.363 45.988 476.486 46.6943 475.558 47.3221C475.43 47.1652 475.245 46.9725 475.002 46.7442C474.774 46.5159 474.531 46.2876 474.274 46.0593C474.032 45.831 473.803 45.6527 473.589 45.5242C474.645 44.9107 475.644 44.1473 476.586 43.2341C477.528 42.3066 478.362 41.3078 479.09 40.2376C479.818 39.1532 480.374 38.083 480.759 37.0271L483.242 37.9046C483.071 38.3041 482.893 38.6965 482.707 39.0818C482.522 39.4671 482.322 39.8452 482.108 40.2162C482.721 40.2019 483.385 40.1877 484.098 40.1734C484.826 40.1448 485.49 40.1163 486.089 40.0878C486.688 40.045 487.116 40.0022 487.373 39.9593L488.978 40.8797C488.308 42.9059 487.316 44.8108 486.003 46.5944C484.705 48.378 483.164 49.969 481.38 51.3674C479.611 52.7657 477.677 53.9144 475.58 54.8133ZM498.032 53.9358C497.946 53.7503 497.811 53.5077 497.625 53.2081C497.44 52.9084 497.233 52.6088 497.005 52.3091C496.791 52.0095 496.584 51.774 496.384 51.6028C499.095 50.7039 501.335 49.4696 503.105 47.9C504.888 46.3304 506.172 44.3185 506.957 41.8643C506.287 41.8785 505.523 41.8999 504.667 41.9285C503.811 41.957 502.933 41.9855 502.034 42.0141C501.15 42.0426 500.294 42.0712 499.466 42.0997C498.653 42.1282 497.939 42.1568 497.326 42.1853C496.712 42.2138 496.263 42.2352 495.977 42.2495L495.806 39.3601C496.22 39.3886 496.762 39.41 497.433 39.4243C498.103 39.4385 498.845 39.4457 499.659 39.4457C500.486 39.4457 501.328 39.4457 502.184 39.4457C503.055 39.4314 503.897 39.4171 504.71 39.4029C505.523 39.3743 506.258 39.3458 506.914 39.3172C507.571 39.2887 508.092 39.2602 508.477 39.2316L510.211 40.1306C509.725 42.4136 508.926 44.4612 507.813 46.2734C506.7 48.0712 505.316 49.6194 503.661 50.9179C502.006 52.2021 500.13 53.2081 498.032 53.9358ZM517.809 51.7312V40.259H530.822V51.7312H517.809ZM520.463 49.2912H528.168V42.699H520.463V49.2912ZM536.986 47.2579C537.001 47.0582 537.008 46.787 537.008 46.4446C537.008 46.1021 537.008 45.7597 537.008 45.4172C537.008 45.0748 537.001 44.8037 536.986 44.6039C537.257 44.6182 537.735 44.6324 538.42 44.6467C539.119 44.661 539.947 44.6752 540.903 44.6895C541.873 44.7038 542.908 44.718 544.007 44.7323C545.105 44.7323 546.204 44.7323 547.303 44.7323C548.401 44.7323 549.436 44.7252 550.406 44.7109C551.391 44.6966 552.24 44.6824 552.953 44.6681C553.667 44.6538 554.173 44.6324 554.473 44.6039C554.459 44.7894 554.444 45.0534 554.43 45.3958C554.43 45.7383 554.43 46.0879 554.43 46.4446C554.444 46.787 554.451 47.051 554.451 47.2365C554.095 47.2222 553.567 47.208 552.868 47.1937C552.183 47.1794 551.377 47.1652 550.449 47.1509C549.536 47.1366 548.558 47.1295 547.517 47.1295C546.489 47.1295 545.448 47.1295 544.392 47.1295C543.336 47.1295 542.33 47.1366 541.374 47.1509C540.418 47.1652 539.555 47.1794 538.784 47.1937C538.028 47.208 537.429 47.2294 536.986 47.2579Z" fill="#221366"/>
<rect x="35.4312" y="149" width="499.083" height="49" rx="2" fill="#DFDFDF" stroke="black" stroke-width="2"/>
<path d="M54.9036 182.931C54.7389 182.665 54.5109 182.355 54.2196 182C53.9283 181.645 53.6369 181.367 53.3456 181.164C55.0809 180.442 56.3666 179.473 57.2026 178.257C58.0513 177.028 58.4946 175.445 58.5326 173.507H55.2076V177.288H52.9276V173.526C52.3069 173.526 51.7053 173.532 51.1226 173.545C50.5526 173.545 50.0459 173.551 49.6026 173.564C49.1719 173.564 48.8616 173.57 48.6716 173.583V171.303C48.8109 171.303 49.0896 171.309 49.5076 171.322C49.9383 171.335 50.4513 171.347 51.0466 171.36C51.6546 171.36 52.2816 171.366 52.9276 171.379C52.9276 170.796 52.9213 170.233 52.9086 169.688C52.9086 169.143 52.9023 168.662 52.8896 168.244C52.8769 167.813 52.8579 167.503 52.8326 167.313H55.2836C55.2709 167.503 55.2583 167.813 55.2456 168.244C55.2329 168.675 55.2203 169.169 55.2076 169.726C55.2076 170.271 55.2076 170.828 55.2076 171.398H58.5326C58.5326 170.955 58.5263 170.448 58.5136 169.878C58.5009 169.308 58.4883 168.757 58.4756 168.225C58.4629 167.68 58.4503 167.25 58.4376 166.933H60.8126V171.379C61.4333 171.366 62.0286 171.36 62.5986 171.36C63.1813 171.347 63.6943 171.341 64.1376 171.341C64.5936 171.328 64.9293 171.316 65.1446 171.303V173.583C64.9419 173.57 64.6126 173.564 64.1566 173.564C63.7133 173.551 63.2003 173.545 62.6176 173.545C62.0349 173.532 61.4333 173.526 60.8126 173.526C60.7746 175.857 60.2616 177.776 59.2736 179.283C58.2856 180.778 56.8289 181.994 54.9036 182.931ZM68.2226 176.015C68.2353 175.838 68.2416 175.597 68.2416 175.293C68.2416 174.989 68.2416 174.685 68.2416 174.381C68.2416 174.077 68.2353 173.836 68.2226 173.659C68.4633 173.672 68.8876 173.684 69.4956 173.697C70.1163 173.71 70.8509 173.722 71.6996 173.735C72.5609 173.748 73.4793 173.76 74.4546 173.773C75.4299 173.773 76.4053 173.773 77.3806 173.773C78.3559 173.773 79.2743 173.767 80.1356 173.754C81.0096 173.741 81.7633 173.729 82.3966 173.716C83.0299 173.703 83.4796 173.684 83.7456 173.659C83.7329 173.824 83.7203 174.058 83.7076 174.362C83.7076 174.666 83.7076 174.976 83.7076 175.293C83.7203 175.597 83.7266 175.831 83.7266 175.996C83.4099 175.983 82.9413 175.971 82.3206 175.958C81.7126 175.945 80.9969 175.933 80.1736 175.92C79.3629 175.907 78.4953 175.901 77.5706 175.901C76.6586 175.901 75.7339 175.901 74.7966 175.901C73.8593 175.901 72.9663 175.907 72.1176 175.92C71.2689 175.933 70.5026 175.945 69.8186 175.958C69.1473 175.971 68.6153 175.99 68.2226 176.015ZM93.7396 181.658C92.7263 181.658 91.9283 181.595 91.3456 181.468C90.7629 181.329 90.3513 181.082 90.1106 180.727C89.8699 180.372 89.7496 179.853 89.7496 179.169V167.94H92.1056C92.0929 168.244 92.0739 168.675 92.0486 169.232C92.0359 169.777 92.0233 170.397 92.0106 171.094C92.0106 171.778 92.0106 172.481 92.0106 173.203C92.7706 172.962 93.5749 172.69 94.4236 172.386C95.2849 172.082 96.1083 171.772 96.8936 171.455C97.6916 171.138 98.3629 170.841 98.9076 170.562L100.162 172.69C99.6296 172.918 99.0216 173.152 98.3376 173.393C97.6663 173.621 96.9569 173.849 96.2096 174.077C95.4623 174.305 94.7276 174.527 94.0056 174.742C93.2836 174.945 92.6186 175.135 92.0106 175.312V178.276C92.0106 178.567 92.0423 178.789 92.1056 178.941C92.1816 179.08 92.3273 179.175 92.5426 179.226C92.7579 179.277 93.0746 179.302 93.4926 179.302C94.0373 179.302 94.6516 179.289 95.3356 179.264C96.0196 179.239 96.7226 179.207 97.4446 179.169C98.1666 179.118 98.8569 179.061 99.5156 178.998C100.174 178.935 100.744 178.865 101.226 178.789C101.162 179.017 101.105 179.296 101.055 179.625C101.017 179.942 100.985 180.258 100.96 180.575C100.947 180.879 100.941 181.12 100.941 181.297C100.269 181.36 99.5093 181.424 98.6606 181.487C97.8119 181.538 96.9569 181.582 96.0956 181.62C95.2343 181.645 94.4489 181.658 93.7396 181.658ZM101.112 171.208C100.884 170.803 100.58 170.366 100.2 169.897C99.8196 169.428 99.4776 169.055 99.1736 168.776L100.257 167.997C100.434 168.162 100.649 168.396 100.903 168.7C101.169 168.991 101.422 169.295 101.663 169.612C101.916 169.929 102.106 170.195 102.233 170.41L101.112 171.208ZM102.879 169.84C102.727 169.574 102.537 169.295 102.309 169.004C102.081 168.7 101.84 168.409 101.587 168.13C101.346 167.851 101.124 167.623 100.922 167.446L101.986 166.648C102.176 166.813 102.397 167.047 102.651 167.351C102.917 167.642 103.17 167.946 103.411 168.263C103.664 168.567 103.86 168.827 104 169.042L102.879 169.84ZM107.819 181.734C107.654 181.455 107.432 181.12 107.154 180.727C106.888 180.334 106.615 180.024 106.337 179.796C107.287 179.378 108.237 178.859 109.187 178.238C110.137 177.617 111.042 176.921 111.904 176.148C112.778 175.363 113.569 174.539 114.279 173.678C115.001 172.804 115.609 171.917 116.103 171.018C115.482 171.056 114.798 171.1 114.051 171.151C113.316 171.202 112.581 171.252 111.847 171.303C111.125 171.341 110.466 171.385 109.871 171.436C109.288 171.474 108.838 171.506 108.522 171.531L108.256 169.118C108.572 169.118 109.047 169.112 109.681 169.099C110.314 169.086 111.023 169.067 111.809 169.042C112.594 169.004 113.373 168.966 114.146 168.928C114.931 168.89 115.634 168.846 116.255 168.795C116.888 168.732 117.357 168.675 117.661 168.624L119.2 169.612C118.896 170.499 118.503 171.373 118.022 172.234C117.54 173.083 116.996 173.9 116.388 174.685C116.831 175.027 117.3 175.413 117.794 175.844C118.3 176.275 118.794 176.718 119.276 177.174C119.757 177.63 120.2 178.067 120.606 178.485C121.011 178.903 121.347 179.277 121.613 179.606C121.296 179.809 120.96 180.075 120.606 180.404C120.251 180.721 119.941 181.025 119.675 181.316C119.434 180.974 119.124 180.588 118.744 180.157C118.364 179.714 117.952 179.27 117.509 178.827C117.078 178.371 116.641 177.934 116.198 177.516C115.754 177.085 115.336 176.705 114.944 176.376C113.892 177.503 112.752 178.523 111.524 179.435C110.295 180.347 109.06 181.113 107.819 181.734ZM128.567 180.879L127.332 179.929C127.344 179.777 127.357 179.492 127.37 179.074C127.382 178.656 127.389 178.156 127.389 177.573C127.401 176.99 127.408 176.363 127.408 175.692C127.408 175.008 127.408 174.337 127.408 173.678C127.408 172.943 127.401 172.253 127.389 171.607C127.389 170.948 127.382 170.378 127.37 169.897C127.357 169.403 127.344 169.048 127.332 168.833H129.764C129.738 169.061 129.719 169.428 129.707 169.935C129.694 170.442 129.681 171.012 129.669 171.645C129.669 172.278 129.669 172.918 129.669 173.564V177.896C130.543 177.567 131.474 177.174 132.462 176.718C133.45 176.249 134.419 175.749 135.369 175.217C136.331 174.672 137.212 174.128 138.01 173.583C138.808 173.038 139.46 172.519 139.967 172.025C139.979 172.24 140.011 172.532 140.062 172.899C140.112 173.254 140.169 173.602 140.233 173.944C140.309 174.286 140.372 174.546 140.423 174.723C139.916 175.141 139.302 175.584 138.58 176.053C137.87 176.509 137.091 176.971 136.243 177.44C135.394 177.909 134.52 178.365 133.621 178.808C132.734 179.239 131.854 179.631 130.98 179.986C130.118 180.341 129.314 180.638 128.567 180.879ZM151.671 182.304V174.077C150.708 174.736 149.72 175.35 148.707 175.92C147.706 176.477 146.724 176.965 145.762 177.383C145.66 177.193 145.521 176.971 145.344 176.718C145.166 176.465 144.976 176.218 144.774 175.977C144.584 175.736 144.394 175.546 144.204 175.407C145.306 175.014 146.446 174.501 147.624 173.868C148.802 173.235 149.935 172.532 151.025 171.759C152.127 170.986 153.134 170.176 154.046 169.327C154.958 168.478 155.699 167.636 156.269 166.8L158.245 168.149C157.7 168.871 157.067 169.587 156.345 170.296C155.635 170.993 154.869 171.67 154.046 172.329V182.304H151.671ZM170.329 182.646C170.316 182.443 170.253 182.063 170.139 181.506C170.037 180.936 169.904 180.246 169.74 179.435C169.588 178.624 169.417 177.757 169.227 176.832C169.037 175.895 168.847 174.957 168.657 174.02C167.504 174.248 166.465 174.457 165.541 174.647C164.616 174.837 163.957 174.983 163.565 175.084L163.052 172.652C163.533 172.627 164.236 172.551 165.161 172.424C166.085 172.297 167.099 172.145 168.201 171.968C167.96 170.866 167.745 169.91 167.555 169.099C167.377 168.276 167.244 167.763 167.156 167.56L169.398 167.066C169.41 167.193 169.455 167.471 169.531 167.902C169.619 168.333 169.727 168.871 169.854 169.517C169.993 170.15 170.145 170.847 170.31 171.607C171.374 171.417 172.393 171.227 173.369 171.037C174.357 170.834 175.218 170.651 175.953 170.486C176.687 170.309 177.2 170.169 177.492 170.068L178.917 170.999C178.701 171.455 178.442 171.962 178.138 172.519C177.834 173.076 177.511 173.646 177.169 174.229C176.827 174.812 176.485 175.369 176.143 175.901C175.801 176.42 175.484 176.883 175.193 177.288C175.079 177.174 174.895 177.041 174.642 176.889C174.388 176.724 174.129 176.572 173.863 176.433C173.609 176.281 173.4 176.167 173.236 176.091C173.54 175.711 173.907 175.204 174.338 174.571C174.781 173.938 175.193 173.317 175.573 172.709C174.901 172.836 174.148 172.975 173.312 173.127C172.476 173.279 171.627 173.444 170.766 173.621C170.981 174.571 171.19 175.521 171.393 176.471C171.608 177.408 171.811 178.276 172.001 179.074C172.203 179.872 172.374 180.543 172.514 181.088C172.653 181.62 172.748 181.956 172.799 182.095C172.571 182.108 172.298 182.139 171.982 182.19C171.665 182.253 171.355 182.323 171.051 182.399C170.759 182.475 170.519 182.557 170.329 182.646ZM182.223 176.015C182.235 175.838 182.242 175.597 182.242 175.293C182.242 174.989 182.242 174.685 182.242 174.381C182.242 174.077 182.235 173.836 182.223 173.659C182.463 173.672 182.888 173.684 183.496 173.697C184.116 173.71 184.851 173.722 185.7 173.735C186.561 173.748 187.479 173.76 188.455 173.773C189.43 173.773 190.405 173.773 191.381 173.773C192.356 173.773 193.274 173.767 194.136 173.754C195.01 173.741 195.763 173.729 196.397 173.716C197.03 173.703 197.48 173.684 197.746 173.659C197.733 173.824 197.72 174.058 197.708 174.362C197.708 174.666 197.708 174.976 197.708 175.293C197.72 175.597 197.727 175.831 197.727 175.996C197.41 175.983 196.941 175.971 196.321 175.958C195.713 175.945 194.997 175.933 194.174 175.92C193.363 175.907 192.495 175.901 191.571 175.901C190.659 175.901 189.734 175.901 188.797 175.901C187.859 175.901 186.966 175.907 186.118 175.92C185.269 175.933 184.503 175.945 183.819 175.958C183.147 175.971 182.615 175.99 182.223 176.015Z" fill="black"/>
<rect x="35.4312" y="217" width="499.083" height="49" rx="2" fill="#DFDFDF" stroke="black" stroke-width="2"/>
<path d="M54.8086 250.589V235.275H57.1266V241.032L57.9816 239.816C58.2856 240.044 58.6846 240.316 59.1786 240.633C59.6853 240.95 60.2236 241.279 60.7936 241.621C61.3636 241.95 61.9146 242.254 62.4466 242.533C62.9786 242.812 63.4283 243.021 63.7956 243.16C63.6436 243.299 63.4663 243.502 63.2636 243.768C63.0736 244.021 62.8899 244.287 62.7126 244.566C62.5479 244.832 62.4213 245.06 62.3326 245.25C62.0286 245.098 61.6486 244.889 61.1926 244.623C60.7493 244.357 60.2743 244.072 59.7676 243.768C59.2736 243.451 58.7923 243.135 58.3236 242.818C57.8676 242.501 57.4686 242.216 57.1266 241.963V250.589H54.8086ZM63.9286 238.03C63.6879 237.625 63.3713 237.2 62.9786 236.757C62.5986 236.301 62.2503 235.934 61.9336 235.655L62.9976 234.838C63.1749 234.99 63.3966 235.218 63.6626 235.522C63.9286 235.813 64.1883 236.111 64.4416 236.415C64.6949 236.719 64.8913 236.979 65.0306 237.194L63.9286 238.03ZM62.1806 239.417C61.9399 239.012 61.6296 238.581 61.2496 238.125C60.8696 237.669 60.5213 237.302 60.2046 237.023L61.2686 236.206C61.4459 236.371 61.6676 236.605 61.9336 236.909C62.1996 237.2 62.4529 237.498 62.6936 237.802C62.9469 238.106 63.1433 238.366 63.2826 238.581L62.1806 239.417ZM70.1986 250.133C70.0339 249.867 69.7996 249.544 69.4956 249.164C69.2043 248.784 68.9319 248.493 68.6786 248.29C70.0339 247.657 71.3069 246.859 72.4976 245.896C73.7009 244.933 74.7839 243.876 75.7466 242.723C75.1639 242.28 74.6003 241.881 74.0556 241.526C73.5109 241.171 73.0233 240.893 72.5926 240.69L73.9606 239.075C74.4293 239.29 74.9296 239.563 75.4616 239.892C75.9936 240.221 76.5319 240.576 77.0766 240.956C77.6339 240.133 78.1153 239.284 78.5206 238.41C78.9386 237.536 79.2679 236.675 79.5086 235.826L81.7316 236.586C81.0603 238.613 80.1229 240.519 78.9196 242.305C79.4896 242.761 80.0279 243.217 80.5346 243.673C81.0413 244.116 81.4719 244.534 81.8266 244.927C81.6493 245.079 81.4466 245.275 81.2186 245.516C81.0033 245.744 80.7943 245.978 80.5916 246.219C80.3889 246.447 80.2243 246.65 80.0976 246.827C79.7936 246.447 79.4136 246.029 78.9576 245.573C78.5143 245.117 78.0329 244.661 77.5136 244.205C76.5129 245.421 75.3983 246.536 74.1696 247.549C72.9409 248.562 71.6173 249.424 70.1986 250.133ZM94.6706 250.304V242.077C93.7079 242.736 92.7199 243.35 91.7066 243.92C90.7059 244.477 89.7243 244.965 88.7616 245.383C88.6603 245.193 88.5209 244.971 88.3436 244.718C88.1663 244.465 87.9763 244.218 87.7736 243.977C87.5836 243.736 87.3936 243.546 87.2036 243.407C88.3056 243.014 89.4456 242.501 90.6236 241.868C91.8016 241.235 92.9353 240.532 94.0246 239.759C95.1266 238.986 96.1336 238.176 97.0456 237.327C97.9576 236.478 98.6986 235.636 99.2686 234.8L101.245 236.149C100.7 236.871 100.067 237.587 99.3446 238.296C98.6353 238.993 97.8689 239.67 97.0456 240.329V250.304H94.6706ZM108.807 249.468L107.515 247.131C108.414 246.941 109.358 246.631 110.346 246.2C111.346 245.757 112.347 245.244 113.348 244.661C114.348 244.066 115.298 243.432 116.198 242.761C117.097 242.077 117.908 241.387 118.63 240.69C119.364 239.993 119.96 239.328 120.416 238.695C120.466 238.91 120.549 239.176 120.663 239.493C120.789 239.81 120.922 240.12 121.062 240.424C121.201 240.715 121.321 240.943 121.423 241.108C120.802 241.906 120.023 242.717 119.086 243.54C118.161 244.351 117.135 245.136 116.008 245.896C114.88 246.643 113.702 247.327 112.474 247.948C111.245 248.569 110.023 249.075 108.807 249.468ZM110.84 241.089C110.675 240.912 110.441 240.703 110.137 240.462C109.845 240.221 109.516 239.968 109.149 239.702C108.794 239.436 108.446 239.195 108.104 238.98C107.762 238.752 107.464 238.581 107.211 238.467L108.731 236.548C108.984 236.687 109.282 236.865 109.624 237.08C109.966 237.295 110.314 237.53 110.669 237.783C111.036 238.036 111.378 238.29 111.695 238.543C112.011 238.784 112.265 238.999 112.455 239.189L110.84 241.089ZM128.567 248.879L127.332 247.929C127.344 247.777 127.357 247.492 127.37 247.074C127.382 246.656 127.389 246.156 127.389 245.573C127.401 244.99 127.408 244.363 127.408 243.692C127.408 243.008 127.408 242.337 127.408 241.678C127.408 240.943 127.401 240.253 127.389 239.607C127.389 238.948 127.382 238.378 127.37 237.897C127.357 237.403 127.344 237.048 127.332 236.833H129.764C129.738 237.061 129.719 237.428 129.707 237.935C129.694 238.442 129.681 239.012 129.669 239.645C129.669 240.278 129.669 240.918 129.669 241.564V245.896C130.543 245.567 131.474 245.174 132.462 244.718C133.45 244.249 134.419 243.749 135.369 243.217C136.331 242.672 137.212 242.128 138.01 241.583C138.808 241.038 139.46 240.519 139.967 240.025C139.979 240.24 140.011 240.532 140.062 240.899C140.112 241.254 140.169 241.602 140.233 241.944C140.309 242.286 140.372 242.546 140.423 242.723C139.916 243.141 139.302 243.584 138.58 244.053C137.87 244.509 137.091 244.971 136.243 245.44C135.394 245.909 134.52 246.365 133.621 246.808C132.734 247.239 131.854 247.631 130.98 247.986C130.118 248.341 129.314 248.638 128.567 248.879ZM151.671 250.304V242.077C150.708 242.736 149.72 243.35 148.707 243.92C147.706 244.477 146.724 244.965 145.762 245.383C145.66 245.193 145.521 244.971 145.344 244.718C145.166 244.465 144.976 244.218 144.774 243.977C144.584 243.736 144.394 243.546 144.204 243.407C145.306 243.014 146.446 242.501 147.624 241.868C148.802 241.235 149.935 240.532 151.025 239.759C152.127 238.986 153.134 238.176 154.046 237.327C154.958 236.478 155.699 235.636 156.269 234.8L158.245 236.149C157.7 236.871 157.067 237.587 156.345 238.296C155.635 238.993 154.869 239.67 154.046 240.329V250.304H151.671ZM170.329 250.646C170.316 250.443 170.253 250.063 170.139 249.506C170.037 248.936 169.904 248.246 169.74 247.435C169.588 246.624 169.417 245.757 169.227 244.832C169.037 243.895 168.847 242.957 168.657 242.02C167.504 242.248 166.465 242.457 165.541 242.647C164.616 242.837 163.957 242.983 163.565 243.084L163.052 240.652C163.533 240.627 164.236 240.551 165.161 240.424C166.085 240.297 167.099 240.145 168.201 239.968C167.96 238.866 167.745 237.91 167.555 237.099C167.377 236.276 167.244 235.763 167.156 235.56L169.398 235.066C169.41 235.193 169.455 235.471 169.531 235.902C169.619 236.333 169.727 236.871 169.854 237.517C169.993 238.15 170.145 238.847 170.31 239.607C171.374 239.417 172.393 239.227 173.369 239.037C174.357 238.834 175.218 238.651 175.953 238.486C176.687 238.309 177.2 238.169 177.492 238.068L178.917 238.999C178.701 239.455 178.442 239.962 178.138 240.519C177.834 241.076 177.511 241.646 177.169 242.229C176.827 242.812 176.485 243.369 176.143 243.901C175.801 244.42 175.484 244.883 175.193 245.288C175.079 245.174 174.895 245.041 174.642 244.889C174.388 244.724 174.129 244.572 173.863 244.433C173.609 244.281 173.4 244.167 173.236 244.091C173.54 243.711 173.907 243.204 174.338 242.571C174.781 241.938 175.193 241.317 175.573 240.709C174.901 240.836 174.148 240.975 173.312 241.127C172.476 241.279 171.627 241.444 170.766 241.621C170.981 242.571 171.19 243.521 171.393 244.471C171.608 245.408 171.811 246.276 172.001 247.074C172.203 247.872 172.374 248.543 172.514 249.088C172.653 249.62 172.748 249.956 172.799 250.095C172.571 250.108 172.298 250.139 171.982 250.19C171.665 250.253 171.355 250.323 171.051 250.399C170.759 250.475 170.519 250.557 170.329 250.646ZM182.223 244.015C182.235 243.838 182.242 243.597 182.242 243.293C182.242 242.989 182.242 242.685 182.242 242.381C182.242 242.077 182.235 241.836 182.223 241.659C182.463 241.672 182.888 241.684 183.496 241.697C184.116 241.71 184.851 241.722 185.7 241.735C186.561 241.748 187.479 241.76 188.455 241.773C189.43 241.773 190.405 241.773 191.381 241.773C192.356 241.773 193.274 241.767 194.136 241.754C195.01 241.741 195.763 241.729 196.397 241.716C197.03 241.703 197.48 241.684 197.746 241.659C197.733 241.824 197.72 242.058 197.708 242.362C197.708 242.666 197.708 242.976 197.708 243.293C197.72 243.597 197.727 243.831 197.727 243.996C197.41 243.983 196.941 243.971 196.321 243.958C195.713 243.945 194.997 243.933 194.174 243.92C193.363 243.907 192.495 243.901 191.571 243.901C190.659 243.901 189.734 243.901 188.797 243.901C187.859 243.901 186.966 243.907 186.118 243.92C185.269 243.933 184.503 243.945 183.819 243.958C183.147 243.971 182.615 243.99 182.223 244.015Z" fill="black"/>
<rect x="35.4312" y="285" width="499.083" height="49" rx="2" fill="#DFDFDF" stroke="black" stroke-width="2"/>
<path d="M52.4526 318.817C52.3639 318.627 52.2309 318.405 52.0536 318.152C51.8763 317.899 51.6863 317.658 51.4836 317.43C51.2809 317.189 51.0973 316.999 50.9326 316.86C52.6426 316.201 53.8903 315.365 54.6756 314.352C55.4609 313.339 55.9043 312.04 56.0056 310.457C55.0049 310.47 54.0423 310.482 53.1176 310.495C52.2056 310.508 51.4266 310.527 50.7806 310.552C50.1346 310.565 49.7039 310.577 49.4886 310.59L49.3746 308.348C49.5266 308.361 49.8876 308.367 50.4576 308.367C51.0276 308.367 51.7306 308.367 52.5666 308.367C53.4026 308.354 54.3083 308.342 55.2836 308.329C56.2716 308.316 57.2533 308.304 58.2286 308.291C59.2039 308.278 60.1096 308.266 60.9456 308.253C61.7943 308.24 62.5036 308.228 63.0736 308.215C63.6563 308.19 64.0236 308.171 64.1756 308.158L64.1946 310.4C64.0173 310.387 63.6436 310.381 63.0736 310.381C62.5036 310.381 61.8133 310.387 61.0026 310.4C60.1919 310.4 59.3179 310.406 58.3806 310.419C58.2666 312.484 57.7219 314.187 56.7466 315.53C55.7839 316.86 54.3526 317.956 52.4526 318.817ZM52.0916 305.992L51.9586 303.769C52.1106 303.769 52.4209 303.769 52.8896 303.769C53.3709 303.769 53.9346 303.763 54.5806 303.75C55.2393 303.737 55.9233 303.725 56.6326 303.712C57.3546 303.699 58.0386 303.687 58.6846 303.674C59.3433 303.649 59.9006 303.63 60.3566 303.617C60.8253 303.604 61.1293 303.592 61.2686 303.579L61.3066 305.802C61.1419 305.789 60.8253 305.789 60.3566 305.802C59.9006 305.802 59.3496 305.808 58.7036 305.821C58.0703 305.821 57.4053 305.834 56.7086 305.859C56.0246 305.872 55.3596 305.884 54.7136 305.897C54.0803 305.91 53.5293 305.929 53.0606 305.954C52.5919 305.967 52.2689 305.979 52.0916 305.992ZM65.4106 305.441C65.1699 305.036 64.8596 304.605 64.4796 304.149C64.0996 303.693 63.7576 303.326 63.4536 303.047L64.5176 302.249C64.6949 302.414 64.9166 302.648 65.1826 302.952C65.4486 303.243 65.7019 303.547 65.9426 303.864C66.1959 304.168 66.3923 304.428 66.5316 304.643L65.4106 305.441ZM63.6246 306.809C63.4853 306.543 63.3016 306.258 63.0736 305.954C62.8456 305.65 62.6113 305.359 62.3706 305.08C62.1299 304.801 61.9083 304.567 61.7056 304.377L62.7696 303.598C62.9469 303.763 63.1623 303.997 63.4156 304.301C63.6816 304.592 63.9349 304.896 64.1756 305.213C64.4289 305.53 64.6189 305.796 64.7456 306.011L63.6246 306.809ZM68.2226 312.015C68.2353 311.838 68.2416 311.597 68.2416 311.293C68.2416 310.989 68.2416 310.685 68.2416 310.381C68.2416 310.077 68.2353 309.836 68.2226 309.659C68.4633 309.672 68.8876 309.684 69.4956 309.697C70.1163 309.71 70.8509 309.722 71.6996 309.735C72.5609 309.748 73.4793 309.76 74.4546 309.773C75.4299 309.773 76.4053 309.773 77.3806 309.773C78.3559 309.773 79.2743 309.767 80.1356 309.754C81.0096 309.741 81.7633 309.729 82.3966 309.716C83.0299 309.703 83.4796 309.684 83.7456 309.659C83.7329 309.824 83.7203 310.058 83.7076 310.362C83.7076 310.666 83.7076 310.976 83.7076 311.293C83.7203 311.597 83.7266 311.831 83.7266 311.996C83.4099 311.983 82.9413 311.971 82.3206 311.958C81.7126 311.945 80.9969 311.933 80.1736 311.92C79.3629 311.907 78.4953 311.901 77.5706 311.901C76.6586 311.901 75.7339 311.901 74.7966 311.901C73.8593 311.901 72.9663 311.907 72.1176 311.92C71.2689 311.933 70.5026 311.945 69.8186 311.958C69.1473 311.971 68.6153 311.99 68.2226 312.015ZM89.2366 318.931C89.0719 318.576 88.8693 318.209 88.6286 317.829C88.3879 317.436 88.1599 317.139 87.9446 316.936C89.3506 316.429 90.6806 315.764 91.9346 314.941C93.2013 314.118 94.3413 313.174 95.3546 312.11C94.9746 311.857 94.6009 311.622 94.2336 311.407C93.8663 311.192 93.5116 311.008 93.1696 310.856L94.4806 309.108C95.2026 309.437 95.9753 309.862 96.7986 310.381C97.1279 309.912 97.4383 309.437 97.7296 308.956C98.0209 308.462 98.2743 307.962 98.4896 307.455C97.9576 307.48 97.3813 307.512 96.7606 307.55C96.1526 307.575 95.5826 307.601 95.0506 307.626C94.5186 307.639 94.1006 307.651 93.7966 307.664C93.2393 308.513 92.6123 309.323 91.9156 310.096C91.2189 310.856 90.4463 311.559 89.5976 312.205C89.3949 311.952 89.1289 311.66 88.7996 311.331C88.4703 311.002 88.1789 310.767 87.9256 310.628C88.8123 309.995 89.6419 309.241 90.4146 308.367C91.1999 307.493 91.8776 306.562 92.4476 305.574C93.0303 304.586 93.4673 303.617 93.7586 302.667L95.9436 303.351C95.8043 303.744 95.6523 304.136 95.4876 304.529C95.3229 304.909 95.1456 305.283 94.9556 305.65C95.5129 305.637 96.1146 305.625 96.7606 305.612C97.4193 305.587 98.0336 305.561 98.6036 305.536C99.1736 305.498 99.6106 305.46 99.9146 305.422L101.397 306.22C101.067 307.233 100.675 308.196 100.219 309.108C99.7626 310.007 99.2559 310.862 98.6986 311.673C99.1799 312.028 99.6296 312.389 100.048 312.756C100.478 313.111 100.833 313.446 101.112 313.763C100.934 313.89 100.732 314.067 100.504 314.295C100.288 314.523 100.079 314.757 99.8766 314.998C99.6866 315.239 99.5346 315.448 99.4206 315.625C98.8253 314.954 98.0843 314.251 97.1976 313.516C96.1336 314.694 94.9303 315.733 93.5876 316.632C92.2576 317.531 90.8073 318.298 89.2366 318.931ZM120.625 316.043C120.295 315.828 119.871 315.517 119.352 315.112C118.832 314.694 118.269 314.238 117.661 313.744C117.065 313.237 116.476 312.737 115.894 312.243C115.324 311.736 114.804 311.274 114.336 310.856C113.88 310.438 113.538 310.109 113.31 309.868C113.145 309.691 112.999 309.602 112.873 309.602C112.746 309.589 112.588 309.665 112.398 309.83C112.056 310.096 111.65 310.381 111.182 310.685C110.726 310.989 110.244 311.287 109.738 311.578C109.231 311.869 108.737 312.135 108.256 312.376C107.774 312.617 107.344 312.813 106.964 312.965L105.558 310.837C105.988 310.698 106.489 310.501 107.059 310.248C107.641 309.982 108.237 309.684 108.845 309.355C109.453 309.026 110.023 308.684 110.555 308.329C111.099 307.974 111.549 307.639 111.904 307.322C112.296 306.98 112.651 306.815 112.968 306.828C113.284 306.841 113.639 307.05 114.032 307.455C114.285 307.708 114.665 308.057 115.172 308.5C115.678 308.931 116.248 309.406 116.882 309.925C117.528 310.444 118.193 310.964 118.877 311.483C119.561 311.99 120.213 312.458 120.834 312.889C121.467 313.32 122.018 313.662 122.487 313.915C122.17 314.181 121.834 314.517 121.48 314.922C121.125 315.315 120.84 315.688 120.625 316.043ZM120.34 306.695C120.099 306.302 119.776 305.884 119.371 305.441C118.978 304.998 118.623 304.637 118.307 304.358L119.352 303.522C119.542 303.674 119.77 303.896 120.036 304.187C120.302 304.478 120.561 304.776 120.815 305.08C121.081 305.384 121.283 305.644 121.423 305.859L120.34 306.695ZM118.611 308.12C118.37 307.715 118.053 307.29 117.661 306.847C117.268 306.391 116.913 306.024 116.597 305.745L117.661 304.928C117.838 305.08 118.06 305.308 118.326 305.612C118.592 305.903 118.851 306.201 119.105 306.505C119.358 306.809 119.554 307.069 119.694 307.284L118.611 308.12ZM125.223 312.015C125.235 311.838 125.242 311.597 125.242 311.293C125.242 310.989 125.242 310.685 125.242 310.381C125.242 310.077 125.235 309.836 125.223 309.659C125.463 309.672 125.888 309.684 126.496 309.697C127.116 309.71 127.851 309.722 128.7 309.735C129.561 309.748 130.479 309.76 131.455 309.773C132.43 309.773 133.405 309.773 134.381 309.773C135.356 309.773 136.274 309.767 137.136 309.754C138.01 309.741 138.763 309.729 139.397 309.716C140.03 309.703 140.48 309.684 140.746 309.659C140.733 309.824 140.72 310.058 140.708 310.362C140.708 310.666 140.708 310.976 140.708 311.293C140.72 311.597 140.727 311.831 140.727 311.996C140.41 311.983 139.941 311.971 139.321 311.958C138.713 311.945 137.997 311.933 137.174 311.92C136.363 311.907 135.495 311.901 134.571 311.901C133.659 311.901 132.734 311.901 131.797 311.901C130.859 311.901 129.966 311.907 129.118 311.92C128.269 311.933 127.503 311.945 126.819 311.958C126.147 311.971 125.615 311.99 125.223 312.015ZM145.819 317.734C145.654 317.455 145.432 317.12 145.154 316.727C144.888 316.334 144.615 316.024 144.337 315.796C145.287 315.378 146.237 314.859 147.187 314.238C148.137 313.617 149.042 312.921 149.904 312.148C150.778 311.363 151.569 310.539 152.279 309.678C153.001 308.804 153.609 307.917 154.103 307.018C153.482 307.056 152.798 307.1 152.051 307.151C151.316 307.202 150.581 307.252 149.847 307.303C149.125 307.341 148.466 307.385 147.871 307.436C147.288 307.474 146.838 307.506 146.522 307.531L146.256 305.118C146.572 305.118 147.047 305.112 147.681 305.099C148.314 305.086 149.023 305.067 149.809 305.042C150.594 305.004 151.373 304.966 152.146 304.928C152.931 304.89 153.634 304.846 154.255 304.795C154.888 304.732 155.357 304.675 155.661 304.624L157.2 305.612C156.896 306.499 156.503 307.373 156.022 308.234C155.54 309.083 154.996 309.9 154.388 310.685C154.831 311.027 155.3 311.413 155.794 311.844C156.3 312.275 156.794 312.718 157.276 313.174C157.757 313.63 158.2 314.067 158.606 314.485C159.011 314.903 159.347 315.277 159.613 315.606C159.296 315.809 158.96 316.075 158.606 316.404C158.251 316.721 157.941 317.025 157.675 317.316C157.434 316.974 157.124 316.588 156.744 316.157C156.364 315.714 155.952 315.27 155.509 314.827C155.078 314.371 154.641 313.934 154.198 313.516C153.754 313.085 153.336 312.705 152.944 312.376C151.892 313.503 150.752 314.523 149.524 315.435C148.295 316.347 147.06 317.113 145.819 317.734ZM166.567 316.879L165.332 315.929C165.344 315.777 165.357 315.492 165.37 315.074C165.382 314.656 165.389 314.156 165.389 313.573C165.401 312.99 165.408 312.363 165.408 311.692C165.408 311.008 165.408 310.337 165.408 309.678C165.408 308.943 165.401 308.253 165.389 307.607C165.389 306.948 165.382 306.378 165.37 305.897C165.357 305.403 165.344 305.048 165.332 304.833H167.764C167.738 305.061 167.719 305.428 167.707 305.935C167.694 306.442 167.681 307.012 167.669 307.645C167.669 308.278 167.669 308.918 167.669 309.564V313.896C168.543 313.567 169.474 313.174 170.462 312.718C171.45 312.249 172.419 311.749 173.369 311.217C174.331 310.672 175.212 310.128 176.01 309.583C176.808 309.038 177.46 308.519 177.967 308.025C177.979 308.24 178.011 308.532 178.062 308.899C178.112 309.254 178.169 309.602 178.233 309.944C178.309 310.286 178.372 310.546 178.423 310.723C177.916 311.141 177.302 311.584 176.58 312.053C175.87 312.509 175.091 312.971 174.243 313.44C173.394 313.909 172.52 314.365 171.621 314.808C170.734 315.239 169.854 315.631 168.98 315.986C168.118 316.341 167.314 316.638 166.567 316.879ZM189.671 318.304V310.077C188.708 310.736 187.72 311.35 186.707 311.92C185.706 312.477 184.724 312.965 183.762 313.383C183.66 313.193 183.521 312.971 183.344 312.718C183.166 312.465 182.976 312.218 182.774 311.977C182.584 311.736 182.394 311.546 182.204 311.407C183.306 311.014 184.446 310.501 185.624 309.868C186.802 309.235 187.935 308.532 189.025 307.759C190.127 306.986 191.134 306.176 192.046 305.327C192.958 304.478 193.699 303.636 194.269 302.8L196.245 304.149C195.7 304.871 195.067 305.587 194.345 306.296C193.635 306.993 192.869 307.67 192.046 308.329V318.304H189.671ZM208.329 318.646C208.316 318.443 208.253 318.063 208.139 317.506C208.037 316.936 207.904 316.246 207.74 315.435C207.588 314.624 207.417 313.757 207.227 312.832C207.037 311.895 206.847 310.957 206.657 310.02C205.504 310.248 204.465 310.457 203.541 310.647C202.616 310.837 201.957 310.983 201.565 311.084L201.052 308.652C201.533 308.627 202.236 308.551 203.161 308.424C204.085 308.297 205.099 308.145 206.201 307.968C205.96 306.866 205.745 305.91 205.555 305.099C205.377 304.276 205.244 303.763 205.156 303.56L207.398 303.066C207.41 303.193 207.455 303.471 207.531 303.902C207.619 304.333 207.727 304.871 207.854 305.517C207.993 306.15 208.145 306.847 208.31 307.607C209.374 307.417 210.393 307.227 211.369 307.037C212.357 306.834 213.218 306.651 213.953 306.486C214.687 306.309 215.2 306.169 215.492 306.068L216.917 306.999C216.701 307.455 216.442 307.962 216.138 308.519C215.834 309.076 215.511 309.646 215.169 310.229C214.827 310.812 214.485 311.369 214.143 311.901C213.801 312.42 213.484 312.883 213.193 313.288C213.079 313.174 212.895 313.041 212.642 312.889C212.388 312.724 212.129 312.572 211.863 312.433C211.609 312.281 211.4 312.167 211.236 312.091C211.54 311.711 211.907 311.204 212.338 310.571C212.781 309.938 213.193 309.317 213.573 308.709C212.901 308.836 212.148 308.975 211.312 309.127C210.476 309.279 209.627 309.444 208.766 309.621C208.981 310.571 209.19 311.521 209.393 312.471C209.608 313.408 209.811 314.276 210.001 315.074C210.203 315.872 210.374 316.543 210.514 317.088C210.653 317.62 210.748 317.956 210.799 318.095C210.571 318.108 210.298 318.139 209.982 318.19C209.665 318.253 209.355 318.323 209.051 318.399C208.759 318.475 208.519 318.557 208.329 318.646ZM220.223 312.015C220.235 311.838 220.242 311.597 220.242 311.293C220.242 310.989 220.242 310.685 220.242 310.381C220.242 310.077 220.235 309.836 220.223 309.659C220.463 309.672 220.888 309.684 221.496 309.697C222.116 309.71 222.851 309.722 223.7 309.735C224.561 309.748 225.479 309.76 226.455 309.773C227.43 309.773 228.405 309.773 229.381 309.773C230.356 309.773 231.274 309.767 232.136 309.754C233.01 309.741 233.763 309.729 234.397 309.716C235.03 309.703 235.48 309.684 235.746 309.659C235.733 309.824 235.72 310.058 235.708 310.362C235.708 310.666 235.708 310.976 235.708 311.293C235.72 311.597 235.727 311.831 235.727 311.996C235.41 311.983 234.941 311.971 234.321 311.958C233.713 311.945 232.997 311.933 232.174 311.92C231.363 311.907 230.495 311.901 229.571 311.901C228.659 311.901 227.734 311.901 226.797 311.901C225.859 311.901 224.966 311.907 224.118 311.92C223.269 311.933 222.503 311.945 221.819 311.958C221.147 311.971 220.615 311.99 220.223 312.015Z" fill="black"/>
<path d="M358.849 59.8245C359.305 58.5211 358.617 57.0953 357.314 56.6399C356.01 56.1845 354.584 56.872 354.129 58.1755L358.849 59.8245ZM355.452 328.275C356.708 328.848 358.191 328.293 358.764 327.037L368.099 306.565C368.672 305.309 368.118 303.826 366.861 303.253C365.605 302.68 364.122 303.234 363.549 304.491L355.252 322.688L337.054 314.39C335.798 313.817 334.315 314.372 333.742 315.628C333.17 316.884 333.724 318.367 334.98 318.94L355.452 328.275ZM354.129 58.1755C335.702 110.92 325.959 152.162 325.733 193.249C325.506 234.352 334.803 275.101 354.147 326.875L358.831 325.125C339.602 273.662 330.51 233.547 330.732 193.277C330.955 152.991 340.499 112.351 358.849 59.8245L354.129 58.1755Z" fill="#221366"/>
<path d="M478.492 59.8245C478.947 58.5211 478.259 57.0953 476.956 56.6399C475.653 56.1845 474.227 56.872 473.771 58.1755L478.492 59.8245ZM475.094 328.275C476.351 328.848 477.833 328.293 478.406 327.037L487.741 306.565C488.314 305.309 487.76 303.826 486.504 303.253C485.247 302.68 483.765 303.234 483.192 304.491L474.894 322.688L456.697 314.39C455.44 313.817 453.958 314.372 453.385 315.628C452.812 316.884 453.366 318.367 454.622 318.94L475.094 328.275ZM473.771 58.1755C455.345 110.92 445.602 152.162 445.375 193.249C445.148 234.352 454.445 275.101 473.79 326.875L478.473 325.125C459.245 273.662 450.153 233.547 450.375 193.277C450.597 152.991 460.141 112.351 478.492 59.8245L473.771 58.1755Z" fill="#221366"/>
<path d="M375.868 325.175C375.413 326.479 376.1 327.905 377.404 328.36C378.707 328.815 380.133 328.128 380.588 326.825L375.868 325.175ZM379.265 56.7253C378.009 56.1525 376.526 56.7065 375.954 57.9628L366.619 78.4349C366.046 79.6912 366.6 81.174 367.856 81.7468C369.112 82.3196 370.595 81.7656 371.168 80.5093L379.466 62.3119L397.663 70.6097C398.919 71.1825 400.402 70.6285 400.975 69.3722C401.548 68.116 400.994 66.6332 399.738 66.0603L379.265 56.7253ZM380.588 326.825C399.015 274.08 408.758 232.838 408.985 191.751C409.212 150.648 399.915 109.899 380.57 58.125L375.886 59.875C395.115 111.338 404.207 151.453 403.985 191.723C403.763 232.009 394.219 272.649 375.868 325.175L380.588 326.825Z" fill="#221366"/>
<path d="M495.51 325.175C495.055 326.479 495.742 327.905 497.046 328.36C498.349 328.815 499.775 328.128 500.231 326.825L495.51 325.175ZM498.908 56.7253C497.651 56.1525 496.169 56.7065 495.596 57.9628L486.261 78.4349C485.688 79.6912 486.242 81.174 487.498 81.7468C488.754 82.3196 490.237 81.7656 490.81 80.5093L499.108 62.3119L517.305 70.6097C518.562 71.1825 520.044 70.6285 520.617 69.3722C521.19 68.116 520.636 66.6332 519.38 66.0603L498.908 56.7253ZM500.231 326.825C518.657 274.08 528.4 232.838 528.627 191.751C528.854 150.648 519.557 109.899 500.212 58.125L495.529 59.875C514.757 111.338 523.849 151.453 523.627 191.723C523.405 232.009 513.861 272.649 495.51 325.175L500.231 326.825Z" fill="#221366"/>
<rect x="1.77294" y="1.77294" width="273.342" height="45.4541" rx="2.95491" fill="white" stroke="black" stroke-width="3.54589"/>
<path d="M34.006 31.7727L32.6539 30.7326C32.6678 30.5662 32.6816 30.2542 32.6955 29.7965C32.7094 29.3389 32.7163 28.7911 32.7163 28.1532C32.7302 27.5153 32.7371 26.8288 32.7371 26.0938C32.7371 25.345 32.7371 24.61 32.7371 23.8889C32.7371 23.0845 32.7302 22.3287 32.7163 21.6215C32.7163 20.9003 32.7094 20.2763 32.6955 19.7493C32.6816 19.2085 32.6678 18.8202 32.6539 18.5844H35.3165C35.2888 18.834 35.268 19.2362 35.2541 19.7909C35.2402 20.3456 35.2264 20.9697 35.2125 21.6631C35.2125 22.3565 35.2125 23.0568 35.2125 23.764V28.5068C36.1694 28.1463 37.1887 27.7164 38.2704 27.2171C39.352 26.704 40.4129 26.1562 41.453 25.5738C42.507 24.9775 43.4708 24.3812 44.3445 23.7848C45.2181 23.1885 45.9323 22.62 46.487 22.0791C46.5009 22.3149 46.5356 22.6338 46.591 23.036C46.6465 23.4243 46.7089 23.8056 46.7783 24.1801C46.8615 24.5545 46.9308 24.8388 46.9863 25.0329C46.4316 25.4906 45.759 25.976 44.9685 26.4891C44.1919 26.9883 43.339 27.4945 42.4099 28.0076C41.4808 28.5207 40.5239 29.0199 39.5393 29.5053C38.5685 29.9768 37.6047 30.4067 36.6478 30.795C35.7048 31.1833 34.8242 31.5092 34.006 31.7727ZM59.3009 33.3328V24.3257C58.2469 25.0468 57.1652 25.7194 56.0558 26.3435C54.9603 26.9536 53.8855 27.4875 52.8315 27.9452C52.7206 27.7372 52.5681 27.4945 52.3739 27.2171C52.1798 26.9398 51.9717 26.6693 51.7499 26.4059C51.5418 26.1424 51.3338 25.9344 51.1258 25.7818C52.3323 25.3519 53.5804 24.7903 54.8701 24.0969C56.1598 23.4035 57.401 22.6338 58.5936 21.7879C59.8001 20.9419 60.9026 20.0544 61.9011 19.1253C62.8996 18.1961 63.7108 17.2739 64.3349 16.3586L66.4983 17.8356C65.902 18.626 65.2086 19.4096 64.4181 20.1862C63.6415 20.9489 62.8025 21.6908 61.9011 22.4119V33.3328H59.3009ZM79.7281 33.7073C79.7143 33.4854 79.6449 33.0693 79.5201 32.4592C79.4092 31.8351 79.2636 31.0793 79.0833 30.1918C78.9169 29.3042 78.7297 28.3543 78.5216 27.3419C78.3136 26.3157 78.1056 25.2895 77.8976 24.2633C76.6356 24.5129 75.4985 24.7417 74.4861 24.9497C73.4738 25.1578 72.7526 25.3172 72.3227 25.4282L71.7611 22.7656C72.2881 22.7378 73.0577 22.6546 74.0701 22.5159C75.0824 22.3773 76.1919 22.2109 77.3984 22.0167C77.1349 20.8102 76.8991 19.7632 76.6911 18.8756C76.4969 17.9742 76.3513 17.4126 76.2543 17.1907L78.7089 16.6499C78.7227 16.7885 78.7713 17.0936 78.8545 17.5651C78.9515 18.0366 79.0694 18.626 79.2081 19.3333C79.3606 20.0267 79.5271 20.7894 79.7073 21.6215C80.8722 21.4135 81.9886 21.2054 83.0564 20.9974C84.1381 20.7755 85.0811 20.5745 85.8854 20.3942C86.6898 20.2 87.2514 20.0475 87.5704 19.9365L89.1305 20.9558C88.8948 21.4551 88.6105 22.0098 88.2776 22.62C87.9448 23.2301 87.5912 23.8542 87.2168 24.4921C86.8423 25.13 86.4679 25.7402 86.0935 26.3227C85.719 26.8912 85.3723 27.3974 85.0534 27.8412C84.9286 27.7164 84.7275 27.5708 84.4501 27.4043C84.1728 27.2241 83.8885 27.0576 83.5973 26.9051C83.3199 26.7387 83.0911 26.6139 82.9108 26.5307C83.2436 26.1146 83.6458 25.5599 84.1173 24.8665C84.6027 24.1731 85.0534 23.4936 85.4694 22.828C84.7344 22.9666 83.9093 23.1192 82.994 23.2856C82.0787 23.452 81.1496 23.6323 80.2066 23.8264C80.4423 24.8665 80.6712 25.9066 80.893 26.9467C81.1288 27.9729 81.3507 28.9229 81.5587 29.7965C81.7806 30.6702 81.9678 31.4052 82.1203 32.0015C82.2729 32.584 82.3769 32.9515 82.4324 33.104C82.1827 33.1179 81.8846 33.1525 81.5379 33.208C81.1912 33.2774 80.8514 33.3536 80.5186 33.4368C80.1997 33.52 79.9362 33.6102 79.7281 33.7073ZM92.75 26.4475C92.7639 26.2533 92.7708 25.9898 92.7708 25.657C92.7708 25.3242 92.7708 24.9913 92.7708 24.6585C92.7708 24.3257 92.7639 24.0622 92.75 23.8681C93.0135 23.8819 93.4781 23.8958 94.1437 23.9097C94.8232 23.9235 95.6276 23.9374 96.5567 23.9513C97.4997 23.9651 98.5051 23.979 99.573 23.9929C100.641 23.9929 101.709 23.9929 102.776 23.9929C103.844 23.9929 104.85 23.9859 105.793 23.9721C106.75 23.9582 107.575 23.9443 108.268 23.9305C108.961 23.9166 109.454 23.8958 109.745 23.8681C109.731 24.0483 109.717 24.3049 109.703 24.6377C109.703 24.9705 109.703 25.3103 109.703 25.657C109.717 25.9898 109.724 26.2464 109.724 26.4267C109.378 26.4128 108.864 26.3989 108.185 26.3851C107.519 26.3712 106.736 26.3573 105.834 26.3435C104.947 26.3296 103.997 26.3227 102.984 26.3227C101.986 26.3227 100.974 26.3227 99.9474 26.3227C98.9212 26.3227 97.9435 26.3296 97.0144 26.3435C96.0852 26.3573 95.2462 26.3712 94.4974 26.3851C93.7624 26.3989 93.1799 26.4197 92.75 26.4475ZM123.89 34.0609C123.044 34.0609 122.455 33.9291 122.122 33.6657C121.789 33.416 121.623 32.9931 121.623 32.3968V16.005H124.119V22.6408C124.798 22.3357 125.485 22.0098 126.178 21.6631C126.872 21.3025 127.524 20.935 128.134 20.5606C128.744 20.1862 129.25 19.8256 129.652 19.4789L131.296 21.4759C130.699 21.8919 129.992 22.3287 129.174 22.7864C128.369 23.244 127.524 23.6808 126.636 24.0969C125.762 24.499 124.923 24.8527 124.119 25.1578V31.0862C124.119 31.2804 124.168 31.426 124.265 31.5231C124.362 31.6063 124.563 31.6479 124.868 31.6479H127.614C128.03 31.6479 128.356 31.5716 128.591 31.4191C128.827 31.2527 129 30.9614 129.111 30.5454C129.236 30.1294 129.34 29.533 129.423 28.7565C129.784 28.909 130.207 29.0685 130.692 29.2349C131.178 29.3874 131.573 29.5053 131.878 29.5885C131.725 30.8089 131.517 31.745 131.254 32.3968C130.99 33.0347 130.623 33.4715 130.151 33.7073C129.68 33.943 129.063 34.0609 128.3 34.0609H123.89ZM115.944 34.4145V23.8264C115.556 24.298 115.16 24.7417 114.758 25.1578C114.37 25.5738 113.982 25.9482 113.593 26.2811C113.413 26.0453 113.143 25.7749 112.782 25.4698C112.435 25.1508 112.116 24.9012 111.825 24.7209C112.269 24.3604 112.74 23.9027 113.24 23.348C113.739 22.7933 114.231 22.1831 114.717 21.5175C115.202 20.8518 115.66 20.1723 116.09 19.4789C116.519 18.7855 116.894 18.1198 117.213 17.4819C117.532 16.844 117.761 16.2824 117.899 15.797L120.167 16.6499C119.737 17.8286 119.154 19.0421 118.419 20.2902V34.4145H115.944ZM146.127 25.6154C146.002 25.449 145.822 25.2618 145.586 25.0537C145.364 24.8457 145.129 24.6446 144.879 24.4505C144.629 24.2564 144.401 24.1038 144.193 23.9929C144.567 23.7016 144.976 23.348 145.42 22.932C145.864 22.5159 146.307 22.0652 146.751 21.5799C147.195 21.0945 147.604 20.6091 147.979 20.1237C147.216 20.1376 146.335 20.1654 145.337 20.207C144.352 20.2347 143.333 20.2694 142.279 20.311C141.239 20.3526 140.233 20.3942 139.263 20.4358C138.292 20.4774 137.432 20.512 136.683 20.5398C135.934 20.5675 135.38 20.5953 135.019 20.623L134.915 18.002C135.373 18.0297 135.997 18.0505 136.787 18.0644C137.592 18.0644 138.486 18.0644 139.471 18.0644C140.469 18.0505 141.495 18.0366 142.549 18.0228C143.603 17.995 144.616 17.9673 145.586 17.9396C146.571 17.898 147.445 17.8494 148.207 17.794C148.984 17.7385 149.573 17.683 149.975 17.6275L151.619 18.8964C151.314 19.4512 150.939 20.0405 150.496 20.6646C150.052 21.2886 149.573 21.9127 149.06 22.5367C148.561 23.1469 148.055 23.7224 147.542 24.2633C147.042 24.7903 146.571 25.241 146.127 25.6154ZM138.098 33.9153C137.973 33.735 137.806 33.52 137.598 33.2704C137.39 33.0347 137.169 32.8059 136.933 32.584C136.697 32.3482 136.468 32.1679 136.246 32.0431C137.536 31.322 138.562 30.4414 139.325 29.4013C140.088 28.3612 140.629 27.1825 140.948 25.865C141.267 24.5476 141.398 23.1261 141.343 21.6007H143.943C143.943 24.4297 143.465 26.8635 142.508 28.9021C141.565 30.9268 140.095 32.5978 138.098 33.9153ZM158.712 33.0208C158.629 32.8405 158.49 32.6048 158.296 32.3135C158.116 32.0223 157.915 31.7311 157.693 31.4399C157.485 31.1486 157.284 30.9198 157.09 30.7534C159.738 29.8936 161.923 28.701 163.642 27.1755C165.362 25.6362 166.603 23.6808 167.366 21.3094C166.714 21.3233 165.972 21.3441 165.14 21.3718C164.322 21.3996 163.476 21.4273 162.602 21.4551C161.728 21.4828 160.889 21.5105 160.085 21.5383C159.295 21.566 158.601 21.5937 158.005 21.6215C157.409 21.6353 156.972 21.6492 156.694 21.6631L156.528 18.8756C156.93 18.9034 157.457 18.9242 158.109 18.938C158.775 18.9519 159.503 18.9589 160.293 18.9589C161.084 18.9589 161.902 18.9589 162.748 18.9589C163.594 18.945 164.405 18.9311 165.182 18.9172C165.972 18.8895 166.686 18.8618 167.324 18.834C167.962 18.8063 168.468 18.7716 168.843 18.73L170.528 19.6245C170.07 21.8434 169.293 23.8334 168.198 25.5946C167.116 27.3419 165.771 28.8466 164.162 30.1086C162.567 31.3567 160.751 32.3274 158.712 33.0208ZM171.963 19.5621C171.394 19.5621 170.902 19.361 170.486 18.9589C170.084 18.5428 169.883 18.0505 169.883 17.4819C169.883 16.9134 170.084 16.428 170.486 16.0258C170.902 15.6236 171.394 15.4226 171.963 15.4226C172.531 15.4226 173.017 15.6236 173.419 16.0258C173.821 16.428 174.022 16.9134 174.022 17.4819C174.022 18.0505 173.821 18.5428 173.419 18.9589C173.017 19.361 172.531 19.5621 171.963 19.5621ZM171.963 18.6676C172.282 18.6676 172.552 18.5567 172.774 18.3348C173.01 18.099 173.128 17.8148 173.128 17.4819C173.128 17.163 173.01 16.8925 172.774 16.6707C172.552 16.4349 172.282 16.317 171.963 16.317C171.63 16.317 171.346 16.4349 171.11 16.6707C170.888 16.8925 170.777 17.163 170.777 17.4819C170.777 17.8148 170.888 18.099 171.11 18.3348C171.346 18.5567 171.63 18.6676 171.963 18.6676ZM178.12 30.795V19.6453H190.768V30.795H178.12ZM180.7 28.4236H188.188V22.0167H180.7V28.4236ZM196.759 26.4475C196.772 26.2533 196.779 25.9898 196.779 25.657C196.779 25.3242 196.779 24.9913 196.779 24.6585C196.779 24.3257 196.772 24.0622 196.759 23.8681C197.022 23.8819 197.487 23.8958 198.152 23.9097C198.832 23.9235 199.636 23.9374 200.565 23.9513C201.508 23.9651 202.514 23.979 203.581 23.9929C204.649 23.9929 205.717 23.9929 206.785 23.9929C207.853 23.9929 208.858 23.9859 209.801 23.9721C210.758 23.9582 211.583 23.9443 212.277 23.9305C212.97 23.9166 213.462 23.8958 213.754 23.8681C213.74 24.0483 213.726 24.3049 213.712 24.6377C213.712 24.9705 213.712 25.3103 213.712 25.657C213.726 25.9898 213.733 26.2464 213.733 26.4267C213.386 26.4128 212.873 26.3989 212.193 26.3851C211.528 26.3712 210.744 26.3573 209.843 26.3435C208.955 26.3296 208.005 26.3227 206.993 26.3227C205.994 26.3227 204.982 26.3227 203.956 26.3227C202.93 26.3227 201.952 26.3296 201.023 26.3435C200.094 26.3573 199.255 26.3712 198.506 26.3851C197.771 26.3989 197.188 26.4197 196.759 26.4475ZM220.514 33.4784C220.431 33.2566 220.313 33 220.16 32.7088C220.008 32.4037 219.841 32.1125 219.661 31.8351C219.481 31.5439 219.314 31.322 219.162 31.1695C221.062 30.7534 222.511 30.0947 223.509 29.1933C224.522 28.2919 225.111 27.0715 225.278 25.5322C224.071 25.5461 222.92 25.5669 221.825 25.5946C220.729 25.6223 219.793 25.6501 219.016 25.6778C218.254 25.6917 217.754 25.7125 217.519 25.7402L217.352 23.348C217.505 23.3619 217.824 23.3757 218.309 23.3896C218.808 23.3896 219.425 23.3896 220.16 23.3896C220.895 23.3757 221.707 23.3619 222.594 23.348C223.482 23.3341 224.397 23.3203 225.34 23.3064V20.4358C223.676 20.6715 222.144 20.8102 220.743 20.8518C220.715 20.6299 220.66 20.3734 220.576 20.0821C220.493 19.7771 220.396 19.4789 220.285 19.1877C220.188 18.8964 220.091 18.6676 219.994 18.5012C220.895 18.5151 221.852 18.4804 222.865 18.3972C223.877 18.314 224.889 18.1961 225.902 18.0436C226.914 17.891 227.871 17.7038 228.772 17.4819C229.674 17.2462 230.457 16.9896 231.123 16.7123L232.101 18.834C231.546 19.0559 230.908 19.2639 230.187 19.4581C229.48 19.6522 228.731 19.8325 227.94 19.9989V23.244C229.022 23.2163 230.034 23.1885 230.977 23.1608C231.92 23.1331 232.718 23.1053 233.37 23.0776C234.021 23.036 234.437 23.0013 234.618 22.9736V25.4698C234.41 25.4559 233.973 25.449 233.307 25.449C232.655 25.449 231.858 25.4559 230.915 25.4698C229.972 25.4698 228.966 25.4767 227.899 25.4906C227.732 27.5846 227.032 29.2765 225.798 30.5662C224.563 31.8559 222.802 32.8267 220.514 33.4784Z" fill="black"/>
</svg>
