<svg width="524" height="363" viewBox="0 0 524 363" fill="none" xmlns="http://www.w3.org/2000/svg">
<rect y="25" width="524" height="338" rx="5.27523" fill="white"/>
<rect x="1.58257" y="26.5826" width="520.835" height="334.835" rx="3.69266" stroke="black" stroke-opacity="0.77" stroke-width="3.16514"/>
<rect x="25.4312" y="86" width="475" height="49" rx="2" fill="#DFDFDF" stroke="black" stroke-width="2"/>
<path d="M37.0377 119L42.1107 105.7H44.0487L49.1217 119H46.6327L45.6067 116.074H40.4957L39.4697 119H37.0377ZM41.2177 114.041H44.9037L43.0797 108.854L41.2177 114.041ZM50.6654 119V105.7H56.7454C57.9867 105.7 58.9684 105.991 59.6904 106.574C60.4251 107.157 60.7924 108.138 60.7924 109.519C60.7924 110.9 60.4251 111.888 59.6904 112.483C58.9684 113.078 57.9867 113.376 56.7454 113.376H52.8504V119H50.6654ZM52.8504 111.324H56.4414C57.0874 111.324 57.5877 111.185 57.9424 110.906C58.2971 110.627 58.4744 110.165 58.4744 109.519C58.4744 108.886 58.2971 108.43 57.9424 108.151C57.5877 107.872 57.0874 107.733 56.4414 107.733H52.8504V111.324ZM62.6517 119V105.7H64.8367V119H62.6517ZM68.2536 119.931L67.0376 119.304L74.4476 104.731L75.6636 105.377L68.2536 119.931ZM85.7136 119.304V111.077C84.7509 111.736 83.7629 112.35 82.7496 112.92C81.7489 113.477 80.7672 113.965 79.8046 114.383C79.7032 114.193 79.5639 113.971 79.3866 113.718C79.2092 113.465 79.0192 113.218 78.8166 112.977C78.6266 112.736 78.4366 112.546 78.2466 112.407C79.3486 112.014 80.4886 111.501 81.6666 110.868C82.8446 110.235 83.9782 109.532 85.0676 108.759C86.1696 107.986 87.1766 107.176 88.0886 106.327C89.0006 105.478 89.7416 104.636 90.3116 103.8L92.2876 105.149C91.7429 105.871 91.1096 106.587 90.3876 107.296C89.6782 107.993 88.9119 108.67 88.0886 109.329V119.304H85.7136ZM99.8496 118.468L98.5576 116.131C99.4569 115.941 100.401 115.631 101.389 115.2C102.389 114.757 103.39 114.244 104.391 113.661C105.391 113.066 106.341 112.432 107.241 111.761C108.14 111.077 108.951 110.387 109.673 109.69C110.407 108.993 111.003 108.328 111.459 107.695C111.509 107.91 111.592 108.176 111.706 108.493C111.832 108.81 111.965 109.12 112.105 109.424C112.244 109.715 112.364 109.943 112.466 110.108C111.845 110.906 111.066 111.717 110.129 112.54C109.204 113.351 108.178 114.136 107.051 114.896C105.923 115.643 104.745 116.327 103.517 116.948C102.288 117.569 101.066 118.075 99.8496 118.468ZM101.883 110.089C101.718 109.912 101.484 109.703 101.18 109.462C100.888 109.221 100.559 108.968 100.192 108.702C99.8369 108.436 99.4886 108.195 99.1466 107.98C98.8046 107.752 98.5069 107.581 98.2536 107.467L99.7736 105.548C100.027 105.687 100.325 105.865 100.667 106.08C101.009 106.295 101.357 106.53 101.712 106.783C102.079 107.036 102.421 107.29 102.738 107.543C103.054 107.784 103.308 107.999 103.498 108.189L101.883 110.089ZM118.28 119.931C118.115 119.576 117.912 119.209 117.672 118.829C117.431 118.436 117.203 118.139 116.988 117.936C118.394 117.429 119.724 116.764 120.978 115.941C122.244 115.118 123.384 114.174 124.398 113.11C124.018 112.857 123.644 112.622 123.277 112.407C122.909 112.192 122.555 112.008 122.213 111.856L123.524 110.108C124.246 110.437 125.018 110.862 125.842 111.381C126.171 110.912 126.481 110.437 126.773 109.956C127.064 109.462 127.317 108.962 127.533 108.455C127.001 108.48 126.424 108.512 125.804 108.55C125.196 108.575 124.626 108.601 124.094 108.626C123.562 108.639 123.144 108.651 122.84 108.664C122.282 109.513 121.655 110.323 120.959 111.096C120.262 111.856 119.489 112.559 118.641 113.205C118.438 112.952 118.172 112.66 117.843 112.331C117.513 112.002 117.222 111.767 116.969 111.628C117.855 110.995 118.685 110.241 119.458 109.367C120.243 108.493 120.921 107.562 121.491 106.574C122.073 105.586 122.51 104.617 122.802 103.667L124.987 104.351C124.847 104.744 124.695 105.136 124.531 105.529C124.366 105.909 124.189 106.283 123.999 106.65C124.556 106.637 125.158 106.625 125.804 106.612C126.462 106.587 127.077 106.561 127.647 106.536C128.217 106.498 128.654 106.46 128.958 106.422L130.44 107.22C130.11 108.233 129.718 109.196 129.262 110.108C128.806 111.007 128.299 111.862 127.742 112.673C128.223 113.028 128.673 113.389 129.091 113.756C129.521 114.111 129.876 114.446 130.155 114.763C129.977 114.89 129.775 115.067 129.547 115.295C129.331 115.523 129.122 115.757 128.92 115.998C128.73 116.239 128.578 116.448 128.464 116.625C127.868 115.954 127.127 115.251 126.241 114.516C125.177 115.694 123.973 116.733 122.631 117.632C121.301 118.531 119.85 119.298 118.28 119.931ZM135.266 113.015C135.278 112.838 135.285 112.597 135.285 112.293C135.285 111.989 135.285 111.685 135.285 111.381C135.285 111.077 135.278 110.836 135.266 110.659C135.506 110.672 135.931 110.684 136.539 110.697C137.159 110.71 137.894 110.722 138.743 110.735C139.604 110.748 140.522 110.76 141.498 110.773C142.473 110.773 143.448 110.773 144.424 110.773C145.399 110.773 146.317 110.767 147.179 110.754C148.053 110.741 148.806 110.729 149.44 110.716C150.073 110.703 150.523 110.684 150.789 110.659C150.776 110.824 150.763 111.058 150.751 111.362C150.751 111.666 150.751 111.976 150.751 112.293C150.763 112.597 150.77 112.831 150.77 112.996C150.453 112.983 149.984 112.971 149.364 112.958C148.756 112.945 148.04 112.933 147.217 112.92C146.406 112.907 145.538 112.901 144.614 112.901C143.702 112.901 142.777 112.901 141.84 112.901C140.902 112.901 140.009 112.907 139.161 112.92C138.312 112.933 137.546 112.945 136.862 112.958C136.19 112.971 135.658 112.99 135.266 113.015ZM157.686 118.943C157.61 118.778 157.489 118.563 157.325 118.297C157.16 118.031 156.976 117.765 156.774 117.499C156.584 117.233 156.4 117.024 156.223 116.872C158.629 116.074 160.618 114.978 162.189 113.585C163.772 112.192 164.912 110.406 165.609 108.227C165.013 108.24 164.336 108.259 163.576 108.284C162.816 108.309 162.037 108.335 161.239 108.36C160.453 108.385 159.693 108.411 158.959 108.436C158.237 108.461 157.603 108.487 157.059 108.512C156.514 108.537 156.115 108.556 155.862 108.569L155.71 106.004C156.077 106.029 156.558 106.048 157.154 106.061C157.749 106.074 158.408 106.08 159.13 106.08C159.864 106.08 160.612 106.08 161.372 106.08C162.144 106.067 162.892 106.055 163.614 106.042C164.336 106.017 164.988 105.991 165.571 105.966C166.153 105.941 166.616 105.915 166.958 105.89L168.497 106.688C168.066 108.715 167.357 110.532 166.369 112.141C165.381 113.737 164.152 115.111 162.683 116.264C161.213 117.404 159.548 118.297 157.686 118.943ZM175.299 117.29V115.39C175.615 115.415 176.204 115.434 177.066 115.447C177.927 115.46 178.959 115.466 180.163 115.466V111.856C179.365 111.856 178.636 111.862 177.978 111.875C177.319 111.875 176.888 111.888 176.686 111.913V110.032C176.977 110.057 177.509 110.076 178.282 110.089C179.067 110.089 180.023 110.089 181.151 110.089C182.24 110.089 183.171 110.083 183.944 110.07C184.729 110.057 185.248 110.045 185.502 110.032V111.913C185.299 111.888 184.9 111.875 184.305 111.875C183.709 111.862 182.962 111.856 182.063 111.856V115.466C183.215 115.453 184.21 115.441 185.046 115.428C185.894 115.415 186.439 115.403 186.68 115.39V117.29C186.376 117.265 185.73 117.246 184.742 117.233C183.766 117.22 182.544 117.214 181.075 117.214C180.251 117.214 179.434 117.22 178.624 117.233C177.813 117.233 177.104 117.239 176.496 117.252C175.9 117.252 175.501 117.265 175.299 117.29ZM199.714 119.304V111.077C198.751 111.736 197.763 112.35 196.75 112.92C195.749 113.477 194.767 113.965 193.805 114.383C193.703 114.193 193.564 113.971 193.387 113.718C193.209 113.465 193.019 113.218 192.817 112.977C192.627 112.736 192.437 112.546 192.247 112.407C193.349 112.014 194.489 111.501 195.667 110.868C196.845 110.235 197.978 109.532 199.068 108.759C200.17 107.986 201.177 107.176 202.089 106.327C203.001 105.478 203.742 104.636 204.312 103.8L206.288 105.149C205.743 105.871 205.11 106.587 204.388 107.296C203.678 107.993 202.912 108.67 202.089 109.329V119.304H199.714ZM212.862 118.734C212.697 118.455 212.475 118.12 212.197 117.727C211.931 117.334 211.658 117.024 211.38 116.796C212.33 116.378 213.28 115.859 214.23 115.238C215.18 114.617 216.085 113.921 216.947 113.148C217.821 112.363 218.612 111.539 219.322 110.678C220.044 109.804 220.652 108.917 221.146 108.018C220.525 108.056 219.841 108.1 219.094 108.151C218.359 108.202 217.624 108.252 216.89 108.303C216.168 108.341 215.509 108.385 214.914 108.436C214.331 108.474 213.881 108.506 213.565 108.531L213.299 106.118C213.615 106.118 214.09 106.112 214.724 106.099C215.357 106.086 216.066 106.067 216.852 106.042C217.637 106.004 218.416 105.966 219.189 105.928C219.974 105.89 220.677 105.846 221.298 105.795C221.931 105.732 222.4 105.675 222.704 105.624L224.243 106.612C223.939 107.499 223.546 108.373 223.065 109.234C222.583 110.083 222.039 110.9 221.431 111.685C221.874 112.027 222.343 112.413 222.837 112.844C223.343 113.275 223.837 113.718 224.319 114.174C224.8 114.63 225.243 115.067 225.649 115.485C226.054 115.903 226.39 116.277 226.656 116.606C226.339 116.809 226.003 117.075 225.649 117.404C225.294 117.721 224.984 118.025 224.718 118.316C224.477 117.974 224.167 117.588 223.787 117.157C223.407 116.714 222.995 116.27 222.552 115.827C222.121 115.371 221.684 114.934 221.241 114.516C220.797 114.085 220.379 113.705 219.987 113.376C218.935 114.503 217.795 115.523 216.567 116.435C215.338 117.347 214.103 118.113 212.862 118.734ZM233.61 117.879L232.375 116.929C232.387 116.777 232.4 116.492 232.413 116.074C232.425 115.656 232.432 115.156 232.432 114.573C232.444 113.99 232.451 113.363 232.451 112.692C232.451 112.008 232.451 111.337 232.451 110.678C232.451 109.943 232.444 109.253 232.432 108.607C232.432 107.948 232.425 107.378 232.413 106.897C232.4 106.403 232.387 106.048 232.375 105.833H234.807C234.781 106.061 234.762 106.428 234.75 106.935C234.737 107.442 234.724 108.012 234.712 108.645C234.712 109.278 234.712 109.918 234.712 110.564V114.896C235.586 114.567 236.517 114.174 237.505 113.718C238.493 113.249 239.462 112.749 240.412 112.217C241.374 111.672 242.255 111.128 243.053 110.583C243.851 110.038 244.503 109.519 245.01 109.025C245.022 109.24 245.054 109.532 245.105 109.899C245.155 110.254 245.212 110.602 245.276 110.944C245.352 111.286 245.415 111.546 245.466 111.723C244.959 112.141 244.345 112.584 243.623 113.053C242.913 113.509 242.134 113.971 241.286 114.44C240.437 114.909 239.563 115.365 238.664 115.808C237.777 116.239 236.897 116.631 236.023 116.986C235.161 117.341 234.357 117.638 233.61 117.879ZM256.714 119.304V111.077C255.751 111.736 254.763 112.35 253.75 112.92C252.749 113.477 251.767 113.965 250.805 114.383C250.703 114.193 250.564 113.971 250.387 113.718C250.209 113.465 250.019 113.218 249.817 112.977C249.627 112.736 249.437 112.546 249.247 112.407C250.349 112.014 251.489 111.501 252.667 110.868C253.845 110.235 254.978 109.532 256.068 108.759C257.17 107.986 258.177 107.176 259.089 106.327C260.001 105.478 260.742 104.636 261.312 103.8L263.288 105.149C262.743 105.871 262.11 106.587 261.388 107.296C260.678 107.993 259.912 108.67 259.089 109.329V119.304H256.714ZM275.372 119.646C275.359 119.443 275.296 119.063 275.182 118.506C275.08 117.936 274.947 117.246 274.783 116.435C274.631 115.624 274.46 114.757 274.27 113.832C274.08 112.895 273.89 111.957 273.7 111.02C272.547 111.248 271.508 111.457 270.584 111.647C269.659 111.837 269 111.983 268.608 112.084L268.095 109.652C268.576 109.627 269.279 109.551 270.204 109.424C271.128 109.297 272.142 109.145 273.244 108.968C273.003 107.866 272.788 106.91 272.598 106.099C272.42 105.276 272.287 104.763 272.199 104.56L274.441 104.066C274.453 104.193 274.498 104.471 274.574 104.902C274.662 105.333 274.77 105.871 274.897 106.517C275.036 107.15 275.188 107.847 275.353 108.607C276.417 108.417 277.436 108.227 278.412 108.037C279.4 107.834 280.261 107.651 280.996 107.486C281.73 107.309 282.243 107.169 282.535 107.068L283.96 107.999C283.744 108.455 283.485 108.962 283.181 109.519C282.877 110.076 282.554 110.646 282.212 111.229C281.87 111.812 281.528 112.369 281.186 112.901C280.844 113.42 280.527 113.883 280.236 114.288C280.122 114.174 279.938 114.041 279.685 113.889C279.431 113.724 279.172 113.572 278.906 113.433C278.652 113.281 278.443 113.167 278.279 113.091C278.583 112.711 278.95 112.204 279.381 111.571C279.824 110.938 280.236 110.317 280.616 109.709C279.944 109.836 279.191 109.975 278.355 110.127C277.519 110.279 276.67 110.444 275.809 110.621C276.024 111.571 276.233 112.521 276.436 113.471C276.651 114.408 276.854 115.276 277.044 116.074C277.246 116.872 277.417 117.543 277.557 118.088C277.696 118.62 277.791 118.956 277.842 119.095C277.614 119.108 277.341 119.139 277.025 119.19C276.708 119.253 276.398 119.323 276.094 119.399C275.802 119.475 275.562 119.557 275.372 119.646ZM287.266 113.015C287.278 112.838 287.285 112.597 287.285 112.293C287.285 111.989 287.285 111.685 287.285 111.381C287.285 111.077 287.278 110.836 287.266 110.659C287.506 110.672 287.931 110.684 288.539 110.697C289.159 110.71 289.894 110.722 290.743 110.735C291.604 110.748 292.522 110.76 293.498 110.773C294.473 110.773 295.448 110.773 296.424 110.773C297.399 110.773 298.317 110.767 299.179 110.754C300.053 110.741 300.806 110.729 301.44 110.716C302.073 110.703 302.523 110.684 302.789 110.659C302.776 110.824 302.763 111.058 302.751 111.362C302.751 111.666 302.751 111.976 302.751 112.293C302.763 112.597 302.77 112.831 302.77 112.996C302.453 112.983 301.984 112.971 301.364 112.958C300.756 112.945 300.04 112.933 299.217 112.92C298.406 112.907 297.538 112.901 296.614 112.901C295.702 112.901 294.777 112.901 293.84 112.901C292.902 112.901 292.009 112.907 291.161 112.92C290.312 112.933 289.546 112.945 288.862 112.958C288.19 112.971 287.658 112.99 287.266 113.015Z" fill="black"/>
<path d="M319.192 57.1657C318.897 56.7422 318.538 56.2819 318.115 55.7848C317.691 55.2693 317.259 54.8366 316.817 54.4868C318.86 53.5662 320.646 52.3879 322.174 50.9518C323.721 49.5157 324.964 47.8679 325.903 46.0083C326.86 44.1303 327.477 42.1051 327.753 39.9325C327.035 39.9509 326.188 39.9785 325.212 40.0153C324.237 40.0522 323.224 40.089 322.174 40.1258C321.143 40.1626 320.149 40.1995 319.192 40.2363C318.234 40.2731 317.424 40.3007 316.761 40.3191C316.78 40.9267 316.798 41.5803 316.817 42.28C316.853 42.9796 316.881 43.67 316.9 44.3513C316.936 45.0325 316.973 45.6401 317.01 46.174C317.047 46.6895 317.084 47.0578 317.12 47.2787L313.724 47.4168C313.742 47.159 313.742 46.6895 313.724 46.0083C313.705 45.3087 313.677 44.517 313.641 43.6332C313.622 42.731 313.595 41.8381 313.558 40.9543C313.521 40.0522 313.475 39.2605 313.42 38.5792C313.383 37.8796 313.346 37.4101 313.309 37.1708C313.696 37.2076 314.294 37.2352 315.104 37.2536C315.914 37.2536 316.844 37.2444 317.894 37.226C318.962 37.2076 320.066 37.1892 321.208 37.1708C322.368 37.1339 323.491 37.0971 324.577 37.0603C325.663 37.0051 326.63 36.959 327.477 36.9222C328.324 36.867 328.968 36.8117 329.41 36.7565L331.343 37.6403C331.104 42.1879 329.907 46.1096 327.753 49.4052C325.617 52.6825 322.764 55.2693 319.192 57.1657ZM338.717 48.3005C338.736 48.0428 338.745 47.693 338.745 47.2511C338.745 46.8092 338.745 46.3673 338.745 45.9254C338.745 45.4836 338.736 45.1338 338.717 44.876C339.067 44.8944 339.684 44.9128 340.568 44.9312C341.47 44.9496 342.538 44.968 343.771 44.9865C345.023 45.0049 346.358 45.0233 347.776 45.0417C349.193 45.0417 350.611 45.0417 352.029 45.0417C353.446 45.0417 354.781 45.0325 356.033 45.0141C357.304 44.9957 358.399 44.9773 359.32 44.9588C360.24 44.9404 360.894 44.9128 361.281 44.876C361.262 45.1153 361.244 45.456 361.225 45.8978C361.225 46.3397 361.225 46.7908 361.225 47.2511C361.244 47.693 361.253 48.0336 361.253 48.2729C360.793 48.2545 360.111 48.2361 359.209 48.2177C358.326 48.1993 357.285 48.1809 356.089 48.1625C354.91 48.144 353.649 48.1348 352.305 48.1348C350.979 48.1348 349.635 48.1348 348.273 48.1348C346.91 48.1348 345.612 48.144 344.379 48.1625C343.145 48.1809 342.031 48.1993 341.037 48.2177C340.061 48.2361 339.288 48.2637 338.717 48.3005ZM369.952 58.0495C369.824 57.7733 369.63 57.4511 369.372 57.0829C369.115 56.7146 368.839 56.3556 368.544 56.0058C368.268 55.6375 368.01 55.3522 367.771 55.1496C369.998 54.3027 372.07 53.2256 373.985 51.9184C375.918 50.5928 377.63 49.0922 379.121 47.4168C380.631 45.7413 381.846 43.9554 382.767 42.059C381.994 42.0958 381.165 42.1419 380.281 42.1971C379.416 42.2339 378.624 42.2708 377.906 42.3076C377.188 42.326 376.654 42.3352 376.304 42.3352C375.402 43.5135 374.408 44.6182 373.322 45.6493C372.254 46.6619 371.122 47.5733 369.925 48.3834C369.759 48.1809 369.52 47.9323 369.207 47.6377C368.912 47.3431 368.599 47.0486 368.268 46.754C367.955 46.4594 367.66 46.2292 367.384 46.0635C368.746 45.2718 370.035 44.2868 371.25 43.1085C372.466 41.9117 373.543 40.6229 374.482 39.2421C375.421 37.8428 376.139 36.4619 376.636 35.0995L379.839 36.2318C379.618 36.7473 379.388 37.2536 379.149 37.7507C378.91 38.2478 378.652 38.7357 378.376 39.2144C379.167 39.196 380.024 39.1776 380.944 39.1592C381.883 39.1224 382.739 39.0856 383.513 39.0487C384.286 38.9935 384.838 38.9383 385.17 38.883L387.241 40.0706C386.376 42.685 385.096 45.143 383.402 47.4444C381.727 49.7458 379.738 51.7987 377.437 53.6031C375.154 55.4074 372.659 56.8895 369.952 58.0495ZM398.923 56.9171C398.813 56.6778 398.638 56.3648 398.398 55.9782C398.159 55.5915 397.892 55.2049 397.597 54.8182C397.321 54.4316 397.054 54.1278 396.796 53.9069C400.295 52.7469 403.185 51.1543 405.468 49.1291C407.77 47.1038 409.427 44.5078 410.439 41.341C409.574 41.3594 408.589 41.387 407.484 41.4238C406.38 41.4606 405.247 41.4975 404.087 41.5343C402.946 41.5711 401.841 41.6079 400.773 41.6448C399.724 41.6816 398.803 41.7184 398.012 41.7552C397.22 41.7921 396.64 41.8197 396.272 41.8381L396.051 38.1097C396.585 38.1466 397.284 38.1742 398.15 38.1926C399.015 38.211 399.972 38.2202 401.022 38.2202C402.09 38.2202 403.176 38.2202 404.281 38.2202C405.404 38.2018 406.49 38.1834 407.54 38.165C408.589 38.1282 409.537 38.0913 410.384 38.0545C411.231 38.0177 411.903 37.9809 412.4 37.944L414.637 39.104C414.011 42.0498 412.98 44.6919 411.544 47.0301C410.108 49.35 408.322 51.3477 406.186 53.0231C404.051 54.6801 401.629 55.9782 398.923 56.9171ZM424.441 54.0726V39.2697H441.233V54.0726H424.441ZM427.866 50.9242H437.808V42.418H427.866V50.9242ZM449.187 48.3005C449.205 48.0428 449.214 47.693 449.214 47.2511C449.214 46.8092 449.214 46.3673 449.214 45.9254C449.214 45.4836 449.205 45.1338 449.187 44.876C449.536 44.8944 450.153 44.9128 451.037 44.9312C451.939 44.9496 453.007 44.968 454.241 44.9865C455.492 45.0049 456.827 45.0233 458.245 45.0417C459.663 45.0417 461.08 45.0417 462.498 45.0417C463.916 45.0417 465.251 45.0325 466.503 45.0141C467.773 44.9957 468.868 44.9773 469.789 44.9588C470.71 44.9404 471.363 44.9128 471.75 44.876C471.731 45.1153 471.713 45.456 471.695 45.8978C471.695 46.3397 471.695 46.7908 471.695 47.2511C471.713 47.693 471.722 48.0336 471.722 48.2729C471.262 48.2545 470.581 48.2361 469.679 48.2177C468.795 48.1993 467.755 48.1809 466.558 48.1625C465.379 48.144 464.118 48.1348 462.774 48.1348C461.449 48.1348 460.105 48.1348 458.742 48.1348C457.38 48.1348 456.082 48.144 454.848 48.1625C453.615 48.1809 452.501 48.1993 451.506 48.2177C450.531 48.2361 449.757 48.2637 449.187 48.3005Z" fill="#221366"/>
<rect x="25.4312" y="154" width="475" height="49" rx="2" fill="#DFDFDF" stroke="black" stroke-width="2"/>
<path d="M44.2767 187.931C44.112 187.665 43.884 187.355 43.5927 187C43.3013 186.645 43.01 186.367 42.7187 186.164C44.454 185.442 45.7397 184.473 46.5757 183.257C47.4243 182.028 47.8677 180.445 47.9057 178.507H44.5807V182.288H42.3007V178.526C41.68 178.526 41.0783 178.532 40.4957 178.545C39.9257 178.545 39.419 178.551 38.9757 178.564C38.545 178.564 38.2347 178.57 38.0447 178.583V176.303C38.184 176.303 38.4627 176.309 38.8807 176.322C39.3113 176.335 39.8243 176.347 40.4197 176.36C41.0277 176.36 41.6547 176.366 42.3007 176.379C42.3007 175.796 42.2943 175.233 42.2817 174.688C42.2817 174.143 42.2753 173.662 42.2627 173.244C42.25 172.813 42.231 172.503 42.2057 172.313H44.6567C44.644 172.503 44.6313 172.813 44.6187 173.244C44.606 173.675 44.5933 174.169 44.5807 174.726C44.5807 175.271 44.5807 175.828 44.5807 176.398H47.9057C47.9057 175.955 47.8993 175.448 47.8867 174.878C47.874 174.308 47.8613 173.757 47.8487 173.225C47.836 172.68 47.8233 172.25 47.8107 171.933H50.1857V176.379C50.8063 176.366 51.4017 176.36 51.9717 176.36C52.5543 176.347 53.0673 176.341 53.5107 176.341C53.9667 176.328 54.3023 176.316 54.5177 176.303V178.583C54.315 178.57 53.9857 178.564 53.5297 178.564C53.0863 178.551 52.5733 178.545 51.9907 178.545C51.408 178.532 50.8063 178.526 50.1857 178.526C50.1477 180.857 49.6347 182.776 48.6467 184.283C47.6587 185.778 46.202 186.994 44.2767 187.931ZM57.5957 181.015C57.6083 180.838 57.6147 180.597 57.6147 180.293C57.6147 179.989 57.6147 179.685 57.6147 179.381C57.6147 179.077 57.6083 178.836 57.5957 178.659C57.8363 178.672 58.2607 178.684 58.8687 178.697C59.4893 178.71 60.224 178.722 61.0727 178.735C61.934 178.748 62.8523 178.76 63.8277 178.773C64.803 178.773 65.7783 178.773 66.7537 178.773C67.729 178.773 68.6473 178.767 69.5087 178.754C70.3827 178.741 71.1363 178.729 71.7697 178.716C72.403 178.703 72.8527 178.684 73.1187 178.659C73.106 178.824 73.0933 179.058 73.0807 179.362C73.0807 179.666 73.0807 179.976 73.0807 180.293C73.0933 180.597 73.0997 180.831 73.0997 180.996C72.783 180.983 72.3143 180.971 71.6937 180.958C71.0857 180.945 70.37 180.933 69.5467 180.92C68.736 180.907 67.8683 180.901 66.9437 180.901C66.0317 180.901 65.107 180.901 64.1697 180.901C63.2323 180.901 62.3393 180.907 61.4907 180.92C60.642 180.933 59.8757 180.945 59.1917 180.958C58.5203 180.971 57.9883 180.99 57.5957 181.015ZM83.1127 186.658C82.0993 186.658 81.3013 186.595 80.7187 186.468C80.136 186.329 79.7243 186.082 79.4837 185.727C79.243 185.372 79.1227 184.853 79.1227 184.169V172.94H81.4787C81.466 173.244 81.447 173.675 81.4217 174.232C81.409 174.777 81.3963 175.397 81.3837 176.094C81.3837 176.778 81.3837 177.481 81.3837 178.203C82.1437 177.962 82.948 177.69 83.7967 177.386C84.658 177.082 85.4813 176.772 86.2667 176.455C87.0647 176.138 87.736 175.841 88.2807 175.562L89.5347 177.69C89.0027 177.918 88.3947 178.152 87.7107 178.393C87.0393 178.621 86.33 178.849 85.5827 179.077C84.8353 179.305 84.1007 179.527 83.3787 179.742C82.6567 179.945 81.9917 180.135 81.3837 180.312V183.276C81.3837 183.567 81.4153 183.789 81.4787 183.941C81.5547 184.08 81.7003 184.175 81.9157 184.226C82.131 184.277 82.4477 184.302 82.8657 184.302C83.4103 184.302 84.0247 184.289 84.7087 184.264C85.3927 184.239 86.0957 184.207 86.8177 184.169C87.5397 184.118 88.23 184.061 88.8887 183.998C89.5473 183.935 90.1173 183.865 90.5987 183.789C90.5353 184.017 90.4783 184.296 90.4277 184.625C90.3897 184.942 90.358 185.258 90.3327 185.575C90.32 185.879 90.3137 186.12 90.3137 186.297C89.6423 186.36 88.8823 186.424 88.0337 186.487C87.185 186.538 86.33 186.582 85.4687 186.62C84.6073 186.645 83.822 186.658 83.1127 186.658ZM90.4847 176.208C90.2567 175.803 89.9527 175.366 89.5727 174.897C89.1927 174.428 88.8507 174.055 88.5467 173.776L89.6297 172.997C89.807 173.162 90.0223 173.396 90.2757 173.7C90.5417 173.991 90.795 174.295 91.0357 174.612C91.289 174.929 91.479 175.195 91.6057 175.41L90.4847 176.208ZM92.2517 174.84C92.0997 174.574 91.9097 174.295 91.6817 174.004C91.4537 173.7 91.213 173.409 90.9597 173.13C90.719 172.851 90.4973 172.623 90.2947 172.446L91.3587 171.648C91.5487 171.813 91.7703 172.047 92.0237 172.351C92.2897 172.642 92.543 172.946 92.7837 173.263C93.037 173.567 93.2333 173.827 93.3727 174.042L92.2517 174.84ZM97.1917 186.734C97.027 186.455 96.8053 186.12 96.5267 185.727C96.2607 185.334 95.9883 185.024 95.7097 184.796C96.6597 184.378 97.6097 183.859 98.5597 183.238C99.5097 182.617 100.415 181.921 101.277 181.148C102.151 180.363 102.942 179.539 103.652 178.678C104.374 177.804 104.982 176.917 105.476 176.018C104.855 176.056 104.171 176.1 103.424 176.151C102.689 176.202 101.954 176.252 101.22 176.303C100.498 176.341 99.839 176.385 99.2437 176.436C98.661 176.474 98.2113 176.506 97.8947 176.531L97.6287 174.118C97.9453 174.118 98.4203 174.112 99.0537 174.099C99.687 174.086 100.396 174.067 101.182 174.042C101.967 174.004 102.746 173.966 103.519 173.928C104.304 173.89 105.007 173.846 105.628 173.795C106.261 173.732 106.73 173.675 107.034 173.624L108.573 174.612C108.269 175.499 107.876 176.373 107.395 177.234C106.913 178.083 106.369 178.9 105.761 179.685C106.204 180.027 106.673 180.413 107.167 180.844C107.673 181.275 108.167 181.718 108.649 182.174C109.13 182.63 109.573 183.067 109.979 183.485C110.384 183.903 110.72 184.277 110.986 184.606C110.669 184.809 110.333 185.075 109.979 185.404C109.624 185.721 109.314 186.025 109.048 186.316C108.807 185.974 108.497 185.588 108.117 185.157C107.737 184.714 107.325 184.27 106.882 183.827C106.451 183.371 106.014 182.934 105.571 182.516C105.127 182.085 104.709 181.705 104.317 181.376C103.265 182.503 102.125 183.523 100.897 184.435C99.668 185.347 98.433 186.113 97.1917 186.734ZM117.94 185.879L116.705 184.929C116.717 184.777 116.73 184.492 116.743 184.074C116.755 183.656 116.762 183.156 116.762 182.573C116.774 181.99 116.781 181.363 116.781 180.692C116.781 180.008 116.781 179.337 116.781 178.678C116.781 177.943 116.774 177.253 116.762 176.607C116.762 175.948 116.755 175.378 116.743 174.897C116.73 174.403 116.717 174.048 116.705 173.833H119.137C119.111 174.061 119.092 174.428 119.08 174.935C119.067 175.442 119.054 176.012 119.042 176.645C119.042 177.278 119.042 177.918 119.042 178.564V182.896C119.916 182.567 120.847 182.174 121.835 181.718C122.823 181.249 123.792 180.749 124.742 180.217C125.704 179.672 126.585 179.128 127.383 178.583C128.181 178.038 128.833 177.519 129.34 177.025C129.352 177.24 129.384 177.532 129.435 177.899C129.485 178.254 129.542 178.602 129.606 178.944C129.682 179.286 129.745 179.546 129.796 179.723C129.289 180.141 128.675 180.584 127.953 181.053C127.243 181.509 126.464 181.971 125.616 182.44C124.767 182.909 123.893 183.365 122.994 183.808C122.107 184.239 121.227 184.631 120.353 184.986C119.491 185.341 118.687 185.638 117.94 185.879ZM141.044 187.304V179.077C140.081 179.736 139.093 180.35 138.08 180.92C137.079 181.477 136.097 181.965 135.135 182.383C135.033 182.193 134.894 181.971 134.717 181.718C134.539 181.465 134.349 181.218 134.147 180.977C133.957 180.736 133.767 180.546 133.577 180.407C134.679 180.014 135.819 179.501 136.997 178.868C138.175 178.235 139.308 177.532 140.398 176.759C141.5 175.986 142.507 175.176 143.419 174.327C144.331 173.478 145.072 172.636 145.642 171.8L147.618 173.149C147.073 173.871 146.44 174.587 145.718 175.296C145.008 175.993 144.242 176.67 143.419 177.329V187.304H141.044ZM159.702 187.646C159.689 187.443 159.626 187.063 159.512 186.506C159.41 185.936 159.277 185.246 159.113 184.435C158.961 183.624 158.79 182.757 158.6 181.832C158.41 180.895 158.22 179.957 158.03 179.02C156.877 179.248 155.838 179.457 154.914 179.647C153.989 179.837 153.33 179.983 152.938 180.084L152.425 177.652C152.906 177.627 153.609 177.551 154.534 177.424C155.458 177.297 156.472 177.145 157.574 176.968C157.333 175.866 157.118 174.91 156.928 174.099C156.75 173.276 156.617 172.763 156.529 172.56L158.771 172.066C158.783 172.193 158.828 172.471 158.904 172.902C158.992 173.333 159.1 173.871 159.227 174.517C159.366 175.15 159.518 175.847 159.683 176.607C160.747 176.417 161.766 176.227 162.742 176.037C163.73 175.834 164.591 175.651 165.326 175.486C166.06 175.309 166.573 175.169 166.865 175.068L168.29 175.999C168.074 176.455 167.815 176.962 167.511 177.519C167.207 178.076 166.884 178.646 166.542 179.229C166.2 179.812 165.858 180.369 165.516 180.901C165.174 181.42 164.857 181.883 164.566 182.288C164.452 182.174 164.268 182.041 164.015 181.889C163.761 181.724 163.502 181.572 163.236 181.433C162.982 181.281 162.773 181.167 162.609 181.091C162.913 180.711 163.28 180.204 163.711 179.571C164.154 178.938 164.566 178.317 164.946 177.709C164.274 177.836 163.521 177.975 162.685 178.127C161.849 178.279 161 178.444 160.139 178.621C160.354 179.571 160.563 180.521 160.766 181.471C160.981 182.408 161.184 183.276 161.374 184.074C161.576 184.872 161.747 185.543 161.887 186.088C162.026 186.62 162.121 186.956 162.172 187.095C161.944 187.108 161.671 187.139 161.355 187.19C161.038 187.253 160.728 187.323 160.424 187.399C160.132 187.475 159.892 187.557 159.702 187.646ZM171.596 181.015C171.608 180.838 171.615 180.597 171.615 180.293C171.615 179.989 171.615 179.685 171.615 179.381C171.615 179.077 171.608 178.836 171.596 178.659C171.836 178.672 172.261 178.684 172.869 178.697C173.489 178.71 174.224 178.722 175.073 178.735C175.934 178.748 176.852 178.76 177.828 178.773C178.803 178.773 179.778 178.773 180.754 178.773C181.729 178.773 182.647 178.767 183.509 178.754C184.383 178.741 185.136 178.729 185.77 178.716C186.403 178.703 186.853 178.684 187.119 178.659C187.106 178.824 187.093 179.058 187.081 179.362C187.081 179.666 187.081 179.976 187.081 180.293C187.093 180.597 187.1 180.831 187.1 180.996C186.783 180.983 186.314 180.971 185.694 180.958C185.086 180.945 184.37 180.933 183.547 180.92C182.736 180.907 181.868 180.901 180.944 180.901C180.032 180.901 179.107 180.901 178.17 180.901C177.232 180.901 176.339 180.907 175.491 180.92C174.642 180.933 173.876 180.945 173.192 180.958C172.52 180.971 171.988 180.99 171.596 181.015Z" fill="black"/>
<rect x="25.4312" y="222" width="475" height="49" rx="2" fill="#DFDFDF" stroke="black" stroke-width="2"/>
<path d="M44.1817 255.589V240.275H46.4997V246.032L47.3547 244.816C47.6587 245.044 48.0577 245.316 48.5517 245.633C49.0583 245.95 49.5967 246.279 50.1667 246.621C50.7367 246.95 51.2877 247.254 51.8197 247.533C52.3517 247.812 52.8013 248.021 53.1687 248.16C53.0167 248.299 52.8393 248.502 52.6367 248.768C52.4467 249.021 52.263 249.287 52.0857 249.566C51.921 249.832 51.7943 250.06 51.7057 250.25C51.4017 250.098 51.0217 249.889 50.5657 249.623C50.1223 249.357 49.6473 249.072 49.1407 248.768C48.6467 248.451 48.1653 248.135 47.6967 247.818C47.2407 247.501 46.8417 247.216 46.4997 246.963V255.589H44.1817ZM53.3017 243.03C53.061 242.625 52.7443 242.2 52.3517 241.757C51.9717 241.301 51.6233 240.934 51.3067 240.655L52.3707 239.838C52.548 239.99 52.7697 240.218 53.0357 240.522C53.3017 240.813 53.5613 241.111 53.8147 241.415C54.068 241.719 54.2643 241.979 54.4037 242.194L53.3017 243.03ZM51.5537 244.417C51.313 244.012 51.0027 243.581 50.6227 243.125C50.2427 242.669 49.8943 242.302 49.5777 242.023L50.6417 241.206C50.819 241.371 51.0407 241.605 51.3067 241.909C51.5727 242.2 51.826 242.498 52.0667 242.802C52.32 243.106 52.5163 243.366 52.6557 243.581L51.5537 244.417ZM59.5717 255.133C59.407 254.867 59.1727 254.544 58.8687 254.164C58.5773 253.784 58.305 253.493 58.0517 253.29C59.407 252.657 60.68 251.859 61.8707 250.896C63.074 249.933 64.157 248.876 65.1197 247.723C64.537 247.28 63.9733 246.881 63.4287 246.526C62.884 246.171 62.3963 245.893 61.9657 245.69L63.3337 244.075C63.8023 244.29 64.3027 244.563 64.8347 244.892C65.3667 245.221 65.905 245.576 66.4497 245.956C67.007 245.133 67.4883 244.284 67.8937 243.41C68.3117 242.536 68.641 241.675 68.8817 240.826L71.1047 241.586C70.4333 243.613 69.496 245.519 68.2927 247.305C68.8627 247.761 69.401 248.217 69.9077 248.673C70.4143 249.116 70.845 249.534 71.1997 249.927C71.0223 250.079 70.8197 250.275 70.5917 250.516C70.3763 250.744 70.1673 250.978 69.9647 251.219C69.762 251.447 69.5973 251.65 69.4707 251.827C69.1667 251.447 68.7867 251.029 68.3307 250.573C67.8873 250.117 67.406 249.661 66.8867 249.205C65.886 250.421 64.7713 251.536 63.5427 252.549C62.314 253.562 60.9903 254.424 59.5717 255.133ZM84.0437 255.304V247.077C83.081 247.736 82.093 248.35 81.0797 248.92C80.079 249.477 79.0973 249.965 78.1347 250.383C78.0333 250.193 77.894 249.971 77.7167 249.718C77.5393 249.465 77.3493 249.218 77.1467 248.977C76.9567 248.736 76.7667 248.546 76.5767 248.407C77.6787 248.014 78.8187 247.501 79.9967 246.868C81.1747 246.235 82.3083 245.532 83.3977 244.759C84.4997 243.986 85.5067 243.176 86.4187 242.327C87.3307 241.478 88.0717 240.636 88.6417 239.8L90.6177 241.149C90.073 241.871 89.4397 242.587 88.7177 243.296C88.0083 243.993 87.242 244.67 86.4187 245.329V255.304H84.0437ZM98.1797 254.468L96.8877 252.131C97.787 251.941 98.7307 251.631 99.7187 251.2C100.719 250.757 101.72 250.244 102.721 249.661C103.721 249.066 104.671 248.432 105.571 247.761C106.47 247.077 107.281 246.387 108.003 245.69C108.737 244.993 109.333 244.328 109.789 243.695C109.839 243.91 109.922 244.176 110.036 244.493C110.162 244.81 110.295 245.12 110.435 245.424C110.574 245.715 110.694 245.943 110.796 246.108C110.175 246.906 109.396 247.717 108.459 248.54C107.534 249.351 106.508 250.136 105.381 250.896C104.253 251.643 103.075 252.327 101.847 252.948C100.618 253.569 99.3957 254.075 98.1797 254.468ZM100.213 246.089C100.048 245.912 99.8137 245.703 99.5097 245.462C99.2183 245.221 98.889 244.968 98.5217 244.702C98.167 244.436 97.8187 244.195 97.4767 243.98C97.1347 243.752 96.837 243.581 96.5837 243.467L98.1037 241.548C98.357 241.687 98.6547 241.865 98.9967 242.08C99.3387 242.295 99.687 242.53 100.042 242.783C100.409 243.036 100.751 243.29 101.068 243.543C101.384 243.784 101.638 243.999 101.828 244.189L100.213 246.089ZM117.94 253.879L116.705 252.929C116.717 252.777 116.73 252.492 116.743 252.074C116.755 251.656 116.762 251.156 116.762 250.573C116.774 249.99 116.781 249.363 116.781 248.692C116.781 248.008 116.781 247.337 116.781 246.678C116.781 245.943 116.774 245.253 116.762 244.607C116.762 243.948 116.755 243.378 116.743 242.897C116.73 242.403 116.717 242.048 116.705 241.833H119.137C119.111 242.061 119.092 242.428 119.08 242.935C119.067 243.442 119.054 244.012 119.042 244.645C119.042 245.278 119.042 245.918 119.042 246.564V250.896C119.916 250.567 120.847 250.174 121.835 249.718C122.823 249.249 123.792 248.749 124.742 248.217C125.704 247.672 126.585 247.128 127.383 246.583C128.181 246.038 128.833 245.519 129.34 245.025C129.352 245.24 129.384 245.532 129.435 245.899C129.485 246.254 129.542 246.602 129.606 246.944C129.682 247.286 129.745 247.546 129.796 247.723C129.289 248.141 128.675 248.584 127.953 249.053C127.243 249.509 126.464 249.971 125.616 250.44C124.767 250.909 123.893 251.365 122.994 251.808C122.107 252.239 121.227 252.631 120.353 252.986C119.491 253.341 118.687 253.638 117.94 253.879ZM141.044 255.304V247.077C140.081 247.736 139.093 248.35 138.08 248.92C137.079 249.477 136.097 249.965 135.135 250.383C135.033 250.193 134.894 249.971 134.717 249.718C134.539 249.465 134.349 249.218 134.147 248.977C133.957 248.736 133.767 248.546 133.577 248.407C134.679 248.014 135.819 247.501 136.997 246.868C138.175 246.235 139.308 245.532 140.398 244.759C141.5 243.986 142.507 243.176 143.419 242.327C144.331 241.478 145.072 240.636 145.642 239.8L147.618 241.149C147.073 241.871 146.44 242.587 145.718 243.296C145.008 243.993 144.242 244.67 143.419 245.329V255.304H141.044ZM159.702 255.646C159.689 255.443 159.626 255.063 159.512 254.506C159.41 253.936 159.277 253.246 159.113 252.435C158.961 251.624 158.79 250.757 158.6 249.832C158.41 248.895 158.22 247.957 158.03 247.02C156.877 247.248 155.838 247.457 154.914 247.647C153.989 247.837 153.33 247.983 152.938 248.084L152.425 245.652C152.906 245.627 153.609 245.551 154.534 245.424C155.458 245.297 156.472 245.145 157.574 244.968C157.333 243.866 157.118 242.91 156.928 242.099C156.75 241.276 156.617 240.763 156.529 240.56L158.771 240.066C158.783 240.193 158.828 240.471 158.904 240.902C158.992 241.333 159.1 241.871 159.227 242.517C159.366 243.15 159.518 243.847 159.683 244.607C160.747 244.417 161.766 244.227 162.742 244.037C163.73 243.834 164.591 243.651 165.326 243.486C166.06 243.309 166.573 243.169 166.865 243.068L168.29 243.999C168.074 244.455 167.815 244.962 167.511 245.519C167.207 246.076 166.884 246.646 166.542 247.229C166.2 247.812 165.858 248.369 165.516 248.901C165.174 249.42 164.857 249.883 164.566 250.288C164.452 250.174 164.268 250.041 164.015 249.889C163.761 249.724 163.502 249.572 163.236 249.433C162.982 249.281 162.773 249.167 162.609 249.091C162.913 248.711 163.28 248.204 163.711 247.571C164.154 246.938 164.566 246.317 164.946 245.709C164.274 245.836 163.521 245.975 162.685 246.127C161.849 246.279 161 246.444 160.139 246.621C160.354 247.571 160.563 248.521 160.766 249.471C160.981 250.408 161.184 251.276 161.374 252.074C161.576 252.872 161.747 253.543 161.887 254.088C162.026 254.62 162.121 254.956 162.172 255.095C161.944 255.108 161.671 255.139 161.355 255.19C161.038 255.253 160.728 255.323 160.424 255.399C160.132 255.475 159.892 255.557 159.702 255.646ZM171.596 249.015C171.608 248.838 171.615 248.597 171.615 248.293C171.615 247.989 171.615 247.685 171.615 247.381C171.615 247.077 171.608 246.836 171.596 246.659C171.836 246.672 172.261 246.684 172.869 246.697C173.489 246.71 174.224 246.722 175.073 246.735C175.934 246.748 176.852 246.76 177.828 246.773C178.803 246.773 179.778 246.773 180.754 246.773C181.729 246.773 182.647 246.767 183.509 246.754C184.383 246.741 185.136 246.729 185.77 246.716C186.403 246.703 186.853 246.684 187.119 246.659C187.106 246.824 187.093 247.058 187.081 247.362C187.081 247.666 187.081 247.976 187.081 248.293C187.093 248.597 187.1 248.831 187.1 248.996C186.783 248.983 186.314 248.971 185.694 248.958C185.086 248.945 184.37 248.933 183.547 248.92C182.736 248.907 181.868 248.901 180.944 248.901C180.032 248.901 179.107 248.901 178.17 248.901C177.232 248.901 176.339 248.907 175.491 248.92C174.642 248.933 173.876 248.945 173.192 248.958C172.52 248.971 171.988 248.99 171.596 249.015Z" fill="black"/>
<rect x="25.4312" y="290" width="475" height="49" rx="2" fill="#DFDFDF" stroke="black" stroke-width="2"/>
<path d="M41.8257 323.817C41.737 323.627 41.604 323.405 41.4267 323.152C41.2493 322.899 41.0593 322.658 40.8567 322.43C40.654 322.189 40.4703 321.999 40.3057 321.86C42.0157 321.201 43.2633 320.365 44.0487 319.352C44.834 318.339 45.2773 317.04 45.3787 315.457C44.378 315.47 43.4153 315.482 42.4907 315.495C41.5787 315.508 40.7997 315.527 40.1537 315.552C39.5077 315.565 39.077 315.577 38.8617 315.59L38.7477 313.348C38.8997 313.361 39.2607 313.367 39.8307 313.367C40.4007 313.367 41.1037 313.367 41.9397 313.367C42.7757 313.354 43.6813 313.342 44.6567 313.329C45.6447 313.316 46.6263 313.304 47.6017 313.291C48.577 313.278 49.4827 313.266 50.3187 313.253C51.1673 313.24 51.8767 313.228 52.4467 313.215C53.0293 313.19 53.3967 313.171 53.5487 313.158L53.5677 315.4C53.3903 315.387 53.0167 315.381 52.4467 315.381C51.8767 315.381 51.1863 315.387 50.3757 315.4C49.565 315.4 48.691 315.406 47.7537 315.419C47.6397 317.484 47.095 319.187 46.1197 320.53C45.157 321.86 43.7257 322.956 41.8257 323.817ZM41.4647 310.992L41.3317 308.769C41.4837 308.769 41.794 308.769 42.2627 308.769C42.744 308.769 43.3077 308.763 43.9537 308.75C44.6123 308.737 45.2963 308.725 46.0057 308.712C46.7277 308.699 47.4117 308.687 48.0577 308.674C48.7163 308.649 49.2737 308.63 49.7297 308.617C50.1983 308.604 50.5023 308.592 50.6417 308.579L50.6797 310.802C50.515 310.789 50.1983 310.789 49.7297 310.802C49.2737 310.802 48.7227 310.808 48.0767 310.821C47.4433 310.821 46.7783 310.834 46.0817 310.859C45.3977 310.872 44.7327 310.884 44.0867 310.897C43.4533 310.91 42.9023 310.929 42.4337 310.954C41.965 310.967 41.642 310.979 41.4647 310.992ZM54.7837 310.441C54.543 310.036 54.2327 309.605 53.8527 309.149C53.4727 308.693 53.1307 308.326 52.8267 308.047L53.8907 307.249C54.068 307.414 54.2897 307.648 54.5557 307.952C54.8217 308.243 55.075 308.547 55.3157 308.864C55.569 309.168 55.7653 309.428 55.9047 309.643L54.7837 310.441ZM52.9977 311.809C52.8583 311.543 52.6747 311.258 52.4467 310.954C52.2187 310.65 51.9843 310.359 51.7437 310.08C51.503 309.801 51.2813 309.567 51.0787 309.377L52.1427 308.598C52.32 308.763 52.5353 308.997 52.7887 309.301C53.0547 309.592 53.308 309.896 53.5487 310.213C53.802 310.53 53.992 310.796 54.1187 311.011L52.9977 311.809ZM57.5957 317.015C57.6083 316.838 57.6147 316.597 57.6147 316.293C57.6147 315.989 57.6147 315.685 57.6147 315.381C57.6147 315.077 57.6083 314.836 57.5957 314.659C57.8363 314.672 58.2607 314.684 58.8687 314.697C59.4893 314.71 60.224 314.722 61.0727 314.735C61.934 314.748 62.8523 314.76 63.8277 314.773C64.803 314.773 65.7783 314.773 66.7537 314.773C67.729 314.773 68.6473 314.767 69.5087 314.754C70.3827 314.741 71.1363 314.729 71.7697 314.716C72.403 314.703 72.8527 314.684 73.1187 314.659C73.106 314.824 73.0933 315.058 73.0807 315.362C73.0807 315.666 73.0807 315.976 73.0807 316.293C73.0933 316.597 73.0997 316.831 73.0997 316.996C72.783 316.983 72.3143 316.971 71.6937 316.958C71.0857 316.945 70.37 316.933 69.5467 316.92C68.736 316.907 67.8683 316.901 66.9437 316.901C66.0317 316.901 65.107 316.901 64.1697 316.901C63.2323 316.901 62.3393 316.907 61.4907 316.92C60.642 316.933 59.8757 316.945 59.1917 316.958C58.5203 316.971 57.9883 316.99 57.5957 317.015ZM78.6097 323.931C78.445 323.576 78.2423 323.209 78.0017 322.829C77.761 322.436 77.533 322.139 77.3177 321.936C78.7237 321.429 80.0537 320.764 81.3077 319.941C82.5743 319.118 83.7143 318.174 84.7277 317.11C84.3477 316.857 83.974 316.622 83.6067 316.407C83.2393 316.192 82.8847 316.008 82.5427 315.856L83.8537 314.108C84.5757 314.437 85.3483 314.862 86.1717 315.381C86.501 314.912 86.8113 314.437 87.1027 313.956C87.394 313.462 87.6473 312.962 87.8627 312.455C87.3307 312.48 86.7543 312.512 86.1337 312.55C85.5257 312.575 84.9557 312.601 84.4237 312.626C83.8917 312.639 83.4737 312.651 83.1697 312.664C82.6123 313.513 81.9853 314.323 81.2887 315.096C80.592 315.856 79.8193 316.559 78.9707 317.205C78.768 316.952 78.502 316.66 78.1727 316.331C77.8433 316.002 77.552 315.767 77.2987 315.628C78.1853 314.995 79.015 314.241 79.7877 313.367C80.573 312.493 81.2507 311.562 81.8207 310.574C82.4033 309.586 82.8403 308.617 83.1317 307.667L85.3167 308.351C85.1773 308.744 85.0253 309.136 84.8607 309.529C84.696 309.909 84.5187 310.283 84.3287 310.65C84.886 310.637 85.4877 310.625 86.1337 310.612C86.7923 310.587 87.4067 310.561 87.9767 310.536C88.5467 310.498 88.9837 310.46 89.2877 310.422L90.7697 311.22C90.4403 312.233 90.0477 313.196 89.5917 314.108C89.1357 315.007 88.629 315.862 88.0717 316.673C88.553 317.028 89.0027 317.389 89.4207 317.756C89.8513 318.111 90.206 318.446 90.4847 318.763C90.3073 318.89 90.1047 319.067 89.8767 319.295C89.6613 319.523 89.4523 319.757 89.2497 319.998C89.0597 320.239 88.9077 320.448 88.7937 320.625C88.1983 319.954 87.4573 319.251 86.5707 318.516C85.5067 319.694 84.3033 320.733 82.9607 321.632C81.6307 322.531 80.1803 323.298 78.6097 323.931ZM109.998 321.043C109.668 320.828 109.244 320.517 108.725 320.112C108.205 319.694 107.642 319.238 107.034 318.744C106.438 318.237 105.849 317.737 105.267 317.243C104.697 316.736 104.177 316.274 103.709 315.856C103.253 315.438 102.911 315.109 102.683 314.868C102.518 314.691 102.372 314.602 102.246 314.602C102.119 314.589 101.961 314.665 101.771 314.83C101.429 315.096 101.023 315.381 100.555 315.685C100.099 315.989 99.6173 316.287 99.1107 316.578C98.604 316.869 98.11 317.135 97.6287 317.376C97.1473 317.617 96.7167 317.813 96.3367 317.965L94.9307 315.837C95.3613 315.698 95.8617 315.501 96.4317 315.248C97.0143 314.982 97.6097 314.684 98.2177 314.355C98.8257 314.026 99.3957 313.684 99.9277 313.329C100.472 312.974 100.922 312.639 101.277 312.322C101.669 311.98 102.024 311.815 102.341 311.828C102.657 311.841 103.012 312.05 103.405 312.455C103.658 312.708 104.038 313.057 104.545 313.5C105.051 313.931 105.621 314.406 106.255 314.925C106.901 315.444 107.566 315.964 108.25 316.483C108.934 316.99 109.586 317.458 110.207 317.889C110.84 318.32 111.391 318.662 111.86 318.915C111.543 319.181 111.207 319.517 110.853 319.922C110.498 320.315 110.213 320.688 109.998 321.043ZM109.713 311.695C109.472 311.302 109.149 310.884 108.744 310.441C108.351 309.998 107.996 309.637 107.68 309.358L108.725 308.522C108.915 308.674 109.143 308.896 109.409 309.187C109.675 309.478 109.934 309.776 110.188 310.08C110.454 310.384 110.656 310.644 110.796 310.859L109.713 311.695ZM107.984 313.12C107.743 312.715 107.426 312.29 107.034 311.847C106.641 311.391 106.286 311.024 105.97 310.745L107.034 309.928C107.211 310.08 107.433 310.308 107.699 310.612C107.965 310.903 108.224 311.201 108.478 311.505C108.731 311.809 108.927 312.069 109.067 312.284L107.984 313.12ZM114.596 317.015C114.608 316.838 114.615 316.597 114.615 316.293C114.615 315.989 114.615 315.685 114.615 315.381C114.615 315.077 114.608 314.836 114.596 314.659C114.836 314.672 115.261 314.684 115.869 314.697C116.489 314.71 117.224 314.722 118.073 314.735C118.934 314.748 119.852 314.76 120.828 314.773C121.803 314.773 122.778 314.773 123.754 314.773C124.729 314.773 125.647 314.767 126.509 314.754C127.383 314.741 128.136 314.729 128.77 314.716C129.403 314.703 129.853 314.684 130.119 314.659C130.106 314.824 130.093 315.058 130.081 315.362C130.081 315.666 130.081 315.976 130.081 316.293C130.093 316.597 130.1 316.831 130.1 316.996C129.783 316.983 129.314 316.971 128.694 316.958C128.086 316.945 127.37 316.933 126.547 316.92C125.736 316.907 124.868 316.901 123.944 316.901C123.032 316.901 122.107 316.901 121.17 316.901C120.232 316.901 119.339 316.907 118.491 316.92C117.642 316.933 116.876 316.945 116.192 316.958C115.52 316.971 114.988 316.99 114.596 317.015ZM135.192 322.734C135.027 322.455 134.805 322.12 134.527 321.727C134.261 321.334 133.988 321.024 133.71 320.796C134.66 320.378 135.61 319.859 136.56 319.238C137.51 318.617 138.415 317.921 139.277 317.148C140.151 316.363 140.942 315.539 141.652 314.678C142.374 313.804 142.982 312.917 143.476 312.018C142.855 312.056 142.171 312.1 141.424 312.151C140.689 312.202 139.954 312.252 139.22 312.303C138.498 312.341 137.839 312.385 137.244 312.436C136.661 312.474 136.211 312.506 135.895 312.531L135.629 310.118C135.945 310.118 136.42 310.112 137.054 310.099C137.687 310.086 138.396 310.067 139.182 310.042C139.967 310.004 140.746 309.966 141.519 309.928C142.304 309.89 143.007 309.846 143.628 309.795C144.261 309.732 144.73 309.675 145.034 309.624L146.573 310.612C146.269 311.499 145.876 312.373 145.395 313.234C144.913 314.083 144.369 314.9 143.761 315.685C144.204 316.027 144.673 316.413 145.167 316.844C145.673 317.275 146.167 317.718 146.649 318.174C147.13 318.63 147.573 319.067 147.979 319.485C148.384 319.903 148.72 320.277 148.986 320.606C148.669 320.809 148.333 321.075 147.979 321.404C147.624 321.721 147.314 322.025 147.048 322.316C146.807 321.974 146.497 321.588 146.117 321.157C145.737 320.714 145.325 320.27 144.882 319.827C144.451 319.371 144.014 318.934 143.571 318.516C143.127 318.085 142.709 317.705 142.317 317.376C141.265 318.503 140.125 319.523 138.897 320.435C137.668 321.347 136.433 322.113 135.192 322.734ZM155.94 321.879L154.705 320.929C154.717 320.777 154.73 320.492 154.743 320.074C154.755 319.656 154.762 319.156 154.762 318.573C154.774 317.99 154.781 317.363 154.781 316.692C154.781 316.008 154.781 315.337 154.781 314.678C154.781 313.943 154.774 313.253 154.762 312.607C154.762 311.948 154.755 311.378 154.743 310.897C154.73 310.403 154.717 310.048 154.705 309.833H157.137C157.111 310.061 157.092 310.428 157.08 310.935C157.067 311.442 157.054 312.012 157.042 312.645C157.042 313.278 157.042 313.918 157.042 314.564V318.896C157.916 318.567 158.847 318.174 159.835 317.718C160.823 317.249 161.792 316.749 162.742 316.217C163.704 315.672 164.585 315.128 165.383 314.583C166.181 314.038 166.833 313.519 167.34 313.025C167.352 313.24 167.384 313.532 167.435 313.899C167.485 314.254 167.542 314.602 167.606 314.944C167.682 315.286 167.745 315.546 167.796 315.723C167.289 316.141 166.675 316.584 165.953 317.053C165.243 317.509 164.464 317.971 163.616 318.44C162.767 318.909 161.893 319.365 160.994 319.808C160.107 320.239 159.227 320.631 158.353 320.986C157.491 321.341 156.687 321.638 155.94 321.879ZM179.044 323.304V315.077C178.081 315.736 177.093 316.35 176.08 316.92C175.079 317.477 174.097 317.965 173.135 318.383C173.033 318.193 172.894 317.971 172.717 317.718C172.539 317.465 172.349 317.218 172.147 316.977C171.957 316.736 171.767 316.546 171.577 316.407C172.679 316.014 173.819 315.501 174.997 314.868C176.175 314.235 177.308 313.532 178.398 312.759C179.5 311.986 180.507 311.176 181.419 310.327C182.331 309.478 183.072 308.636 183.642 307.8L185.618 309.149C185.073 309.871 184.44 310.587 183.718 311.296C183.008 311.993 182.242 312.67 181.419 313.329V323.304H179.044ZM197.702 323.646C197.689 323.443 197.626 323.063 197.512 322.506C197.41 321.936 197.277 321.246 197.113 320.435C196.961 319.624 196.79 318.757 196.6 317.832C196.41 316.895 196.22 315.957 196.03 315.02C194.877 315.248 193.838 315.457 192.914 315.647C191.989 315.837 191.33 315.983 190.938 316.084L190.425 313.652C190.906 313.627 191.609 313.551 192.534 313.424C193.458 313.297 194.472 313.145 195.574 312.968C195.333 311.866 195.118 310.91 194.928 310.099C194.75 309.276 194.617 308.763 194.529 308.56L196.771 308.066C196.783 308.193 196.828 308.471 196.904 308.902C196.992 309.333 197.1 309.871 197.227 310.517C197.366 311.15 197.518 311.847 197.683 312.607C198.747 312.417 199.766 312.227 200.742 312.037C201.73 311.834 202.591 311.651 203.326 311.486C204.06 311.309 204.573 311.169 204.865 311.068L206.29 311.999C206.074 312.455 205.815 312.962 205.511 313.519C205.207 314.076 204.884 314.646 204.542 315.229C204.2 315.812 203.858 316.369 203.516 316.901C203.174 317.42 202.857 317.883 202.566 318.288C202.452 318.174 202.268 318.041 202.015 317.889C201.761 317.724 201.502 317.572 201.236 317.433C200.982 317.281 200.773 317.167 200.609 317.091C200.913 316.711 201.28 316.204 201.711 315.571C202.154 314.938 202.566 314.317 202.946 313.709C202.274 313.836 201.521 313.975 200.685 314.127C199.849 314.279 199 314.444 198.139 314.621C198.354 315.571 198.563 316.521 198.766 317.471C198.981 318.408 199.184 319.276 199.374 320.074C199.576 320.872 199.747 321.543 199.887 322.088C200.026 322.62 200.121 322.956 200.172 323.095C199.944 323.108 199.671 323.139 199.355 323.19C199.038 323.253 198.728 323.323 198.424 323.399C198.132 323.475 197.892 323.557 197.702 323.646ZM209.596 317.015C209.608 316.838 209.615 316.597 209.615 316.293C209.615 315.989 209.615 315.685 209.615 315.381C209.615 315.077 209.608 314.836 209.596 314.659C209.836 314.672 210.261 314.684 210.869 314.697C211.489 314.71 212.224 314.722 213.073 314.735C213.934 314.748 214.852 314.76 215.828 314.773C216.803 314.773 217.778 314.773 218.754 314.773C219.729 314.773 220.647 314.767 221.509 314.754C222.383 314.741 223.136 314.729 223.77 314.716C224.403 314.703 224.853 314.684 225.119 314.659C225.106 314.824 225.093 315.058 225.081 315.362C225.081 315.666 225.081 315.976 225.081 316.293C225.093 316.597 225.1 316.831 225.1 316.996C224.783 316.983 224.314 316.971 223.694 316.958C223.086 316.945 222.37 316.933 221.547 316.92C220.736 316.907 219.868 316.901 218.944 316.901C218.032 316.901 217.107 316.901 216.17 316.901C215.232 316.901 214.339 316.907 213.491 316.92C212.642 316.933 211.876 316.945 211.192 316.958C210.52 316.971 209.988 316.99 209.596 317.015Z" fill="black"/>
<path d="M333.383 64.7889C333.818 63.4788 333.109 62.0635 331.799 61.6277C330.489 61.192 329.074 61.9009 328.638 63.2111L333.383 64.7889ZM329.937 333.258C331.184 333.851 332.676 333.32 333.268 332.073L342.927 311.752C343.519 310.505 342.989 309.013 341.742 308.42C340.495 307.828 339.003 308.358 338.411 309.605L329.825 327.669L311.762 319.084C310.515 318.491 309.023 319.022 308.431 320.269C307.838 321.516 308.369 323.007 309.616 323.6L329.937 333.258ZM328.638 63.2111C311.098 115.953 301.827 157.182 301.612 198.25C301.396 239.332 310.241 280.068 328.655 331.838L333.366 330.162C315.06 278.695 306.4 238.567 306.612 198.276C306.823 157.971 315.913 117.318 333.383 64.7889L328.638 63.2111Z" fill="#221366"/>
<path d="M426.2 64.7889C426.636 63.4788 425.927 62.0635 424.617 61.6277C423.307 61.192 421.892 61.9009 421.456 63.2111L426.2 64.7889ZM422.755 333.258C424.002 333.851 425.493 333.32 426.086 332.073L435.744 311.752C436.337 310.505 435.807 309.013 434.56 308.42C433.313 307.828 431.821 308.358 431.229 309.605L422.643 327.669L404.58 319.084C403.333 318.491 401.841 319.022 401.249 320.269C400.656 321.516 401.186 323.007 402.433 323.6L422.755 333.258ZM421.456 63.2111C403.916 115.953 394.645 157.182 394.43 198.25C394.214 239.332 403.059 280.068 421.473 331.838L426.184 330.162C407.878 278.695 399.218 238.567 399.43 198.276C399.641 157.971 408.731 117.318 426.2 64.7889L421.456 63.2111Z" fill="#221366"/>
<path d="M349.332 330.211C348.897 331.521 349.605 332.937 350.916 333.372C352.226 333.808 353.641 333.099 354.077 331.789L349.332 330.211ZM352.778 61.742C351.531 61.1494 350.039 61.6798 349.447 62.9269L339.788 83.2485C339.196 84.4955 339.726 85.9869 340.973 86.5796C342.22 87.1722 343.712 86.6418 344.304 85.3947L352.889 67.3311L370.953 75.9163C372.2 76.5089 373.691 75.9785 374.284 74.7314C374.877 73.4844 374.346 71.993 373.099 71.4003L352.778 61.742ZM354.077 331.789C371.617 279.047 380.887 237.818 381.103 196.75C381.319 155.668 372.474 114.932 354.06 63.1622L349.349 64.8378C367.655 116.305 376.315 156.433 376.103 196.724C375.891 237.029 366.802 277.682 349.332 330.211L354.077 331.789Z" fill="#221366"/>
<path d="M442.15 330.211C441.714 331.521 442.423 332.937 443.733 333.372C445.044 333.808 446.459 333.099 446.895 331.789L442.15 330.211ZM445.595 61.742C444.348 61.1494 442.857 61.6798 442.264 62.9269L432.606 83.2485C432.013 84.4955 432.544 85.9869 433.791 86.5796C435.038 87.1722 436.529 86.6418 437.122 85.3947L445.707 67.3311L463.771 75.9163C465.018 76.5089 466.509 75.9785 467.102 74.7314C467.695 73.4844 467.164 71.993 465.917 71.4003L445.595 61.742ZM446.895 331.789C464.435 279.047 473.705 237.818 473.921 196.75C474.137 155.668 465.291 114.932 446.878 63.1622L442.167 64.8378C460.473 116.305 469.133 156.433 468.921 196.724C468.709 237.029 459.62 277.682 442.15 330.211L446.895 331.789Z" fill="#221366"/>
<rect x="1.77294" y="1.77294" width="273.342" height="45.4541" rx="2.95491" fill="white" stroke="black" stroke-width="3.54589"/>
<path d="M34.006 31.7727L32.6539 30.7326C32.6678 30.5662 32.6816 30.2542 32.6955 29.7965C32.7094 29.3389 32.7163 28.7911 32.7163 28.1532C32.7302 27.5153 32.7371 26.8288 32.7371 26.0938C32.7371 25.345 32.7371 24.61 32.7371 23.8889C32.7371 23.0845 32.7302 22.3287 32.7163 21.6215C32.7163 20.9003 32.7094 20.2763 32.6955 19.7493C32.6816 19.2085 32.6678 18.8202 32.6539 18.5844H35.3165C35.2888 18.834 35.268 19.2362 35.2541 19.7909C35.2402 20.3456 35.2264 20.9697 35.2125 21.6631C35.2125 22.3565 35.2125 23.0568 35.2125 23.764V28.5068C36.1694 28.1463 37.1887 27.7164 38.2704 27.2171C39.352 26.704 40.4129 26.1562 41.453 25.5738C42.507 24.9775 43.4708 24.3812 44.3445 23.7848C45.2181 23.1885 45.9323 22.62 46.487 22.0791C46.5009 22.3149 46.5356 22.6338 46.591 23.036C46.6465 23.4243 46.7089 23.8056 46.7783 24.1801C46.8615 24.5545 46.9308 24.8388 46.9863 25.0329C46.4316 25.4906 45.759 25.976 44.9685 26.4891C44.1919 26.9883 43.339 27.4945 42.4099 28.0076C41.4808 28.5207 40.5239 29.0199 39.5393 29.5053C38.5685 29.9768 37.6047 30.4067 36.6478 30.795C35.7048 31.1833 34.8242 31.5092 34.006 31.7727ZM59.3009 33.3328V24.3257C58.2469 25.0468 57.1652 25.7194 56.0558 26.3435C54.9603 26.9536 53.8855 27.4875 52.8315 27.9452C52.7206 27.7372 52.5681 27.4945 52.3739 27.2171C52.1798 26.9398 51.9717 26.6693 51.7499 26.4059C51.5418 26.1424 51.3338 25.9344 51.1258 25.7818C52.3323 25.3519 53.5804 24.7903 54.8701 24.0969C56.1598 23.4035 57.401 22.6338 58.5936 21.7879C59.8001 20.9419 60.9026 20.0544 61.9011 19.1253C62.8996 18.1961 63.7108 17.2739 64.3349 16.3586L66.4983 17.8356C65.902 18.626 65.2086 19.4096 64.4181 20.1862C63.6415 20.9489 62.8025 21.6908 61.9011 22.4119V33.3328H59.3009ZM79.7281 33.7073C79.7143 33.4854 79.6449 33.0693 79.5201 32.4592C79.4092 31.8351 79.2636 31.0793 79.0833 30.1918C78.9169 29.3042 78.7297 28.3543 78.5216 27.3419C78.3136 26.3157 78.1056 25.2895 77.8976 24.2633C76.6356 24.5129 75.4985 24.7417 74.4861 24.9497C73.4738 25.1578 72.7526 25.3172 72.3227 25.4282L71.7611 22.7656C72.2881 22.7378 73.0577 22.6546 74.0701 22.5159C75.0824 22.3773 76.1919 22.2109 77.3984 22.0167C77.1349 20.8102 76.8991 19.7632 76.6911 18.8756C76.4969 17.9742 76.3513 17.4126 76.2543 17.1907L78.7089 16.6499C78.7227 16.7885 78.7713 17.0936 78.8545 17.5651C78.9515 18.0366 79.0694 18.626 79.2081 19.3333C79.3606 20.0267 79.5271 20.7894 79.7073 21.6215C80.8722 21.4135 81.9886 21.2054 83.0564 20.9974C84.1381 20.7755 85.0811 20.5745 85.8854 20.3942C86.6898 20.2 87.2514 20.0475 87.5704 19.9365L89.1305 20.9558C88.8948 21.4551 88.6105 22.0098 88.2776 22.62C87.9448 23.2301 87.5912 23.8542 87.2168 24.4921C86.8423 25.13 86.4679 25.7402 86.0935 26.3227C85.719 26.8912 85.3723 27.3974 85.0534 27.8412C84.9286 27.7164 84.7275 27.5708 84.4501 27.4043C84.1728 27.2241 83.8885 27.0576 83.5973 26.9051C83.3199 26.7387 83.0911 26.6139 82.9108 26.5307C83.2436 26.1146 83.6458 25.5599 84.1173 24.8665C84.6027 24.1731 85.0534 23.4936 85.4694 22.828C84.7344 22.9666 83.9093 23.1192 82.994 23.2856C82.0787 23.452 81.1496 23.6323 80.2066 23.8264C80.4423 24.8665 80.6712 25.9066 80.893 26.9467C81.1288 27.9729 81.3507 28.9229 81.5587 29.7965C81.7806 30.6702 81.9678 31.4052 82.1203 32.0015C82.2729 32.584 82.3769 32.9515 82.4324 33.104C82.1827 33.1179 81.8846 33.1525 81.5379 33.208C81.1912 33.2774 80.8514 33.3536 80.5186 33.4368C80.1997 33.52 79.9362 33.6102 79.7281 33.7073ZM92.75 26.4475C92.7639 26.2533 92.7708 25.9898 92.7708 25.657C92.7708 25.3242 92.7708 24.9913 92.7708 24.6585C92.7708 24.3257 92.7639 24.0622 92.75 23.8681C93.0135 23.8819 93.4781 23.8958 94.1437 23.9097C94.8232 23.9235 95.6276 23.9374 96.5567 23.9513C97.4997 23.9651 98.5051 23.979 99.573 23.9929C100.641 23.9929 101.709 23.9929 102.776 23.9929C103.844 23.9929 104.85 23.9859 105.793 23.9721C106.75 23.9582 107.575 23.9443 108.268 23.9305C108.961 23.9166 109.454 23.8958 109.745 23.8681C109.731 24.0483 109.717 24.3049 109.703 24.6377C109.703 24.9705 109.703 25.3103 109.703 25.657C109.717 25.9898 109.724 26.2464 109.724 26.4267C109.378 26.4128 108.864 26.3989 108.185 26.3851C107.519 26.3712 106.736 26.3573 105.834 26.3435C104.947 26.3296 103.997 26.3227 102.984 26.3227C101.986 26.3227 100.974 26.3227 99.9474 26.3227C98.9212 26.3227 97.9435 26.3296 97.0144 26.3435C96.0852 26.3573 95.2462 26.3712 94.4974 26.3851C93.7624 26.3989 93.1799 26.4197 92.75 26.4475ZM123.89 34.0609C123.044 34.0609 122.455 33.9291 122.122 33.6657C121.789 33.416 121.623 32.9931 121.623 32.3968V16.005H124.119V22.6408C124.798 22.3357 125.485 22.0098 126.178 21.6631C126.872 21.3025 127.524 20.935 128.134 20.5606C128.744 20.1862 129.25 19.8256 129.652 19.4789L131.296 21.4759C130.699 21.8919 129.992 22.3287 129.174 22.7864C128.369 23.244 127.524 23.6808 126.636 24.0969C125.762 24.499 124.923 24.8527 124.119 25.1578V31.0862C124.119 31.2804 124.168 31.426 124.265 31.5231C124.362 31.6063 124.563 31.6479 124.868 31.6479H127.614C128.03 31.6479 128.356 31.5716 128.591 31.4191C128.827 31.2527 129 30.9614 129.111 30.5454C129.236 30.1294 129.34 29.533 129.423 28.7565C129.784 28.909 130.207 29.0685 130.692 29.2349C131.178 29.3874 131.573 29.5053 131.878 29.5885C131.725 30.8089 131.517 31.745 131.254 32.3968C130.99 33.0347 130.623 33.4715 130.151 33.7073C129.68 33.943 129.063 34.0609 128.3 34.0609H123.89ZM115.944 34.4145V23.8264C115.556 24.298 115.16 24.7417 114.758 25.1578C114.37 25.5738 113.982 25.9482 113.593 26.2811C113.413 26.0453 113.143 25.7749 112.782 25.4698C112.435 25.1508 112.116 24.9012 111.825 24.7209C112.269 24.3604 112.74 23.9027 113.24 23.348C113.739 22.7933 114.231 22.1831 114.717 21.5175C115.202 20.8518 115.66 20.1723 116.09 19.4789C116.519 18.7855 116.894 18.1198 117.213 17.4819C117.532 16.844 117.761 16.2824 117.899 15.797L120.167 16.6499C119.737 17.8286 119.154 19.0421 118.419 20.2902V34.4145H115.944ZM146.127 25.6154C146.002 25.449 145.822 25.2618 145.586 25.0537C145.364 24.8457 145.129 24.6446 144.879 24.4505C144.629 24.2564 144.401 24.1038 144.193 23.9929C144.567 23.7016 144.976 23.348 145.42 22.932C145.864 22.5159 146.307 22.0652 146.751 21.5799C147.195 21.0945 147.604 20.6091 147.979 20.1237C147.216 20.1376 146.335 20.1654 145.337 20.207C144.352 20.2347 143.333 20.2694 142.279 20.311C141.239 20.3526 140.233 20.3942 139.263 20.4358C138.292 20.4774 137.432 20.512 136.683 20.5398C135.934 20.5675 135.38 20.5953 135.019 20.623L134.915 18.002C135.373 18.0297 135.997 18.0505 136.787 18.0644C137.592 18.0644 138.486 18.0644 139.471 18.0644C140.469 18.0505 141.495 18.0366 142.549 18.0228C143.603 17.995 144.616 17.9673 145.586 17.9396C146.571 17.898 147.445 17.8494 148.207 17.794C148.984 17.7385 149.573 17.683 149.975 17.6275L151.619 18.8964C151.314 19.4512 150.939 20.0405 150.496 20.6646C150.052 21.2886 149.573 21.9127 149.06 22.5367C148.561 23.1469 148.055 23.7224 147.542 24.2633C147.042 24.7903 146.571 25.241 146.127 25.6154ZM138.098 33.9153C137.973 33.735 137.806 33.52 137.598 33.2704C137.39 33.0347 137.169 32.8059 136.933 32.584C136.697 32.3482 136.468 32.1679 136.246 32.0431C137.536 31.322 138.562 30.4414 139.325 29.4013C140.088 28.3612 140.629 27.1825 140.948 25.865C141.267 24.5476 141.398 23.1261 141.343 21.6007H143.943C143.943 24.4297 143.465 26.8635 142.508 28.9021C141.565 30.9268 140.095 32.5978 138.098 33.9153ZM158.712 33.0208C158.629 32.8405 158.49 32.6048 158.296 32.3135C158.116 32.0223 157.915 31.7311 157.693 31.4399C157.485 31.1486 157.284 30.9198 157.09 30.7534C159.738 29.8936 161.923 28.701 163.642 27.1755C165.362 25.6362 166.603 23.6808 167.366 21.3094C166.714 21.3233 165.972 21.3441 165.14 21.3718C164.322 21.3996 163.476 21.4273 162.602 21.4551C161.728 21.4828 160.889 21.5105 160.085 21.5383C159.295 21.566 158.601 21.5937 158.005 21.6215C157.409 21.6353 156.972 21.6492 156.694 21.6631L156.528 18.8756C156.93 18.9034 157.457 18.9242 158.109 18.938C158.775 18.9519 159.503 18.9589 160.293 18.9589C161.084 18.9589 161.902 18.9589 162.748 18.9589C163.594 18.945 164.405 18.9311 165.182 18.9172C165.972 18.8895 166.686 18.8618 167.324 18.834C167.962 18.8063 168.468 18.7716 168.843 18.73L170.528 19.6245C170.07 21.8434 169.293 23.8334 168.198 25.5946C167.116 27.3419 165.771 28.8466 164.162 30.1086C162.567 31.3567 160.751 32.3274 158.712 33.0208ZM171.963 19.5621C171.394 19.5621 170.902 19.361 170.486 18.9589C170.084 18.5428 169.883 18.0505 169.883 17.4819C169.883 16.9134 170.084 16.428 170.486 16.0258C170.902 15.6236 171.394 15.4226 171.963 15.4226C172.531 15.4226 173.017 15.6236 173.419 16.0258C173.821 16.428 174.022 16.9134 174.022 17.4819C174.022 18.0505 173.821 18.5428 173.419 18.9589C173.017 19.361 172.531 19.5621 171.963 19.5621ZM171.963 18.6676C172.282 18.6676 172.552 18.5567 172.774 18.3348C173.01 18.099 173.128 17.8148 173.128 17.4819C173.128 17.163 173.01 16.8925 172.774 16.6707C172.552 16.4349 172.282 16.317 171.963 16.317C171.63 16.317 171.346 16.4349 171.11 16.6707C170.888 16.8925 170.777 17.163 170.777 17.4819C170.777 17.8148 170.888 18.099 171.11 18.3348C171.346 18.5567 171.63 18.6676 171.963 18.6676ZM178.12 30.795V19.6453H190.768V30.795H178.12ZM180.7 28.4236H188.188V22.0167H180.7V28.4236ZM196.759 26.4475C196.772 26.2533 196.779 25.9898 196.779 25.657C196.779 25.3242 196.779 24.9913 196.779 24.6585C196.779 24.3257 196.772 24.0622 196.759 23.8681C197.022 23.8819 197.487 23.8958 198.152 23.9097C198.832 23.9235 199.636 23.9374 200.565 23.9513C201.508 23.9651 202.514 23.979 203.581 23.9929C204.649 23.9929 205.717 23.9929 206.785 23.9929C207.853 23.9929 208.858 23.9859 209.801 23.9721C210.758 23.9582 211.583 23.9443 212.277 23.9305C212.97 23.9166 213.462 23.8958 213.754 23.8681C213.74 24.0483 213.726 24.3049 213.712 24.6377C213.712 24.9705 213.712 25.3103 213.712 25.657C213.726 25.9898 213.733 26.2464 213.733 26.4267C213.386 26.4128 212.873 26.3989 212.193 26.3851C211.528 26.3712 210.744 26.3573 209.843 26.3435C208.955 26.3296 208.005 26.3227 206.993 26.3227C205.994 26.3227 204.982 26.3227 203.956 26.3227C202.93 26.3227 201.952 26.3296 201.023 26.3435C200.094 26.3573 199.255 26.3712 198.506 26.3851C197.771 26.3989 197.188 26.4197 196.759 26.4475ZM220.514 33.4784C220.431 33.2566 220.313 33 220.16 32.7088C220.008 32.4037 219.841 32.1125 219.661 31.8351C219.481 31.5439 219.314 31.322 219.162 31.1695C221.062 30.7534 222.511 30.0947 223.509 29.1933C224.522 28.2919 225.111 27.0715 225.278 25.5322C224.071 25.5461 222.92 25.5669 221.825 25.5946C220.729 25.6223 219.793 25.6501 219.016 25.6778C218.254 25.6917 217.754 25.7125 217.519 25.7402L217.352 23.348C217.505 23.3619 217.824 23.3757 218.309 23.3896C218.808 23.3896 219.425 23.3896 220.16 23.3896C220.895 23.3757 221.707 23.3619 222.594 23.348C223.482 23.3341 224.397 23.3203 225.34 23.3064V20.4358C223.676 20.6715 222.144 20.8102 220.743 20.8518C220.715 20.6299 220.66 20.3734 220.576 20.0821C220.493 19.7771 220.396 19.4789 220.285 19.1877C220.188 18.8964 220.091 18.6676 219.994 18.5012C220.895 18.5151 221.852 18.4804 222.865 18.3972C223.877 18.314 224.889 18.1961 225.902 18.0436C226.914 17.891 227.871 17.7038 228.772 17.4819C229.674 17.2462 230.457 16.9896 231.123 16.7123L232.101 18.834C231.546 19.0559 230.908 19.2639 230.187 19.4581C229.48 19.6522 228.731 19.8325 227.94 19.9989V23.244C229.022 23.2163 230.034 23.1885 230.977 23.1608C231.92 23.1331 232.718 23.1053 233.37 23.0776C234.021 23.036 234.437 23.0013 234.618 22.9736V25.4698C234.41 25.4559 233.973 25.449 233.307 25.449C232.655 25.449 231.858 25.4559 230.915 25.4698C229.972 25.4698 228.966 25.4767 227.899 25.4906C227.732 27.5846 227.032 29.2765 225.798 30.5662C224.563 31.8559 222.802 32.8267 220.514 33.4784Z" fill="black"/>
</svg>
