<svg width="534" height="359" viewBox="0 0 534 359" fill="none" xmlns="http://www.w3.org/2000/svg">
<rect x="10" y="21" width="524" height="338" rx="5.27523" fill="white"/>
<rect x="11.5826" y="22.5826" width="520.835" height="334.835" rx="3.69266" stroke="black" stroke-opacity="0.77" stroke-width="3.16514"/>
<rect x="1.77294" y="1.77294" width="273.342" height="45.4541" rx="2.95491" fill="white" stroke="black" stroke-width="3.54589"/>
<path d="M39.3313 32.2481V30.0431H47.1111V28.3582H40.0178V26.2364H42.6388V24.2602H38.9361V22.1385H42.6388V20.1415H39.9554V18.0821H47.1111V16.626C46.1543 16.6815 45.1905 16.7231 44.2197 16.7508C43.2628 16.7786 42.306 16.7924 41.3491 16.7924C41.2936 16.5012 41.2035 16.1407 41.0787 15.7107C40.9677 15.267 40.8568 14.8925 40.7458 14.5875C41.9107 14.6013 43.1242 14.5875 44.3861 14.5459C45.6481 14.5043 46.8962 14.4418 48.1304 14.3586C49.3647 14.2754 50.5226 14.1645 51.6043 14.0258C52.6999 13.8871 53.6637 13.7277 54.4957 13.5474L55.8063 15.5651C54.9048 15.7593 53.9341 15.9257 52.894 16.0644C51.8539 16.2031 50.7722 16.3279 49.649 16.4388V18.0821H56.8463V20.1415H54.1213V22.1385H57.9072V24.2602H54.1213V26.2364H56.7215V28.3582H49.649V30.0431H57.5536V32.2481H39.3313ZM45.0934 22.1385H47.1111V20.1415H45.0934V22.1385ZM49.649 22.1385H51.6459V20.1415H49.649V22.1385ZM45.0934 26.2364H47.1111V24.2602H45.0934V26.2364ZM49.649 26.2364H51.6459V24.2602H49.649V26.2364ZM65.1878 29.1695V18.6646H68.2873L68.4745 17.3957H59.9042V15.3155H68.7865L69.0361 13.5474L71.6572 13.693L71.4283 15.3155H78.4593V17.3957H71.1163L70.9291 18.6646H75.9631V29.1695H65.1878ZM61.1315 32.3313V19.1846H63.6069V30.1679H78.1681V32.3313H61.1315ZM67.7672 27.2765H73.4045V26.1948H67.7672V27.2765ZM67.7672 24.4267H73.4045V23.3658H67.7672V24.4267ZM67.7672 21.6184H73.4045V20.5575H67.7672V21.6184ZM81.6836 32.6225C81.5865 32.4284 81.4548 32.1996 81.2883 31.9361C81.1219 31.6726 80.9416 31.4091 80.7475 31.1456C80.5533 30.8821 80.3592 30.6741 80.165 30.5216C82.6058 29.6063 84.4641 28.2126 85.7399 26.3404C87.0296 24.4683 87.723 22.0414 87.8201 19.0598H80.4355V16.7508H88.3401V13.589H91.0651V16.7508H99.0322V19.0598H90.4619C90.448 19.4343 90.4272 19.8018 90.3995 20.1623C90.3717 20.5229 90.3371 20.8834 90.2955 21.244H96.9728C96.959 21.9235 96.9174 22.6655 96.848 23.4698C96.7925 24.2741 96.7093 25.0784 96.5984 25.8828C96.5013 26.6732 96.3904 27.4082 96.2656 28.0878C96.1408 28.7534 96.009 29.2943 95.8703 29.7103C95.6346 30.4314 95.3503 30.9861 95.0175 31.3744C94.6846 31.7627 94.2686 32.0262 93.7694 32.1649C93.284 32.3174 92.6807 32.3937 91.9596 32.3937H89.9002C89.8864 32.158 89.8448 31.8667 89.7754 31.52C89.72 31.1872 89.6506 30.8613 89.5674 30.5424C89.4981 30.2095 89.4218 29.953 89.3386 29.7727H91.4396C92.0081 29.7727 92.4311 29.6895 92.7085 29.5231C92.9858 29.3428 93.1938 29.0308 93.3325 28.587C93.4573 28.2264 93.5752 27.748 93.6862 27.1517C93.7971 26.5415 93.8942 25.9175 93.9774 25.2795C94.0606 24.6277 94.1022 24.0661 94.1022 23.5946H89.817C89.2623 25.6609 88.3193 27.4429 86.988 28.9406C85.6706 30.4384 83.9024 31.6657 81.6836 32.6225ZM102.194 32.3729V16.6468H107.478C107.713 16.1615 107.956 15.6067 108.206 14.9827C108.455 14.3448 108.636 13.8109 108.747 13.381L111.596 13.7554C111.485 14.116 111.319 14.5736 111.097 15.1283C110.875 15.6691 110.653 16.1753 110.432 16.6468H119.439V30.1679C119.439 30.9445 119.217 31.5062 118.773 31.8529C118.343 32.1996 117.677 32.3729 116.776 32.3729H114.446C114.432 32.1372 114.398 31.8598 114.342 31.5408C114.287 31.2358 114.217 30.9307 114.134 30.6256C114.065 30.3205 113.989 30.0709 113.905 29.8767H116.11C116.402 29.8767 116.61 29.8282 116.734 29.7311C116.859 29.634 116.922 29.4468 116.922 29.1695V18.935H104.69V32.3729H102.194ZM106.874 28.379V20.9112H114.633V28.379H106.874ZM109.225 26.1948H112.283V23.0954H109.225V26.1948ZM133.209 31.1872C133.154 30.9653 133.05 30.7018 132.897 30.3968C132.745 30.0917 132.565 29.8004 132.357 29.5231C132.162 29.2319 131.968 28.9961 131.774 28.8158C133.674 28.5246 135.116 27.9075 136.101 26.9645C137.099 26.0076 137.626 24.8843 137.682 23.5946C137.737 22.5684 137.55 21.6531 137.12 20.8488C136.69 20.0444 136.101 19.3927 135.352 18.8934C134.617 18.3942 133.806 18.096 132.918 17.9989C132.807 19.2886 132.599 20.6061 132.294 21.9513C131.989 23.2964 131.573 24.5584 131.046 25.7372C130.533 26.9159 129.902 27.9144 129.153 28.7326C128.584 29.3428 128.03 29.6964 127.489 29.7935C126.962 29.8906 126.4 29.8143 125.804 29.5647C125.222 29.3151 124.708 28.9198 124.265 28.379C123.821 27.8381 123.481 27.2002 123.245 26.4652C123.01 25.7164 122.913 24.919 122.954 24.073C123.023 22.8111 123.322 21.66 123.849 20.62C124.376 19.566 125.083 18.6577 125.97 17.8949C126.858 17.1322 127.877 16.5567 129.028 16.1684C130.179 15.7801 131.407 15.6206 132.71 15.6899C133.764 15.7454 134.756 15.9812 135.685 16.3972C136.614 16.8132 137.425 17.3888 138.119 18.1237C138.826 18.8449 139.367 19.6839 139.741 20.6408C140.129 21.5976 140.289 22.6446 140.22 23.7818C140.122 25.6817 139.457 27.2765 138.223 28.5662C136.988 29.842 135.317 30.7157 133.209 31.1872ZM126.449 26.9853C126.601 27.0962 126.761 27.1517 126.927 27.1517C127.094 27.1517 127.26 27.0685 127.427 26.9021C127.926 26.4028 128.383 25.6956 128.799 24.7803C129.229 23.865 129.583 22.8319 129.86 21.6808C130.152 20.5298 130.339 19.358 130.422 18.1653C129.465 18.3872 128.612 18.7894 127.863 19.3718C127.128 19.9543 126.546 20.6616 126.116 21.4936C125.686 22.3118 125.443 23.2132 125.388 24.1978C125.36 24.8496 125.443 25.4182 125.638 25.9036C125.846 26.3751 126.116 26.7357 126.449 26.9853ZM145.67 30.7088C145.489 30.4037 145.247 30.0362 144.942 29.6063C144.65 29.1764 144.352 28.8366 144.047 28.587C145.087 28.1294 146.127 27.5608 147.167 26.8813C148.207 26.2017 149.199 25.439 150.142 24.5931C151.099 23.7333 151.966 22.8319 152.742 21.8889C153.533 20.932 154.198 19.9612 154.739 18.9766C154.06 19.0182 153.311 19.0668 152.493 19.1222C151.688 19.1777 150.884 19.2332 150.08 19.2886C149.289 19.3302 148.568 19.3788 147.916 19.4343C147.278 19.4759 146.786 19.5105 146.439 19.5383L146.148 16.8964C146.495 16.8964 147.015 16.8895 147.708 16.8756C148.402 16.8618 149.178 16.841 150.038 16.8132C150.898 16.7716 151.751 16.73 152.597 16.6884C153.456 16.6468 154.226 16.5983 154.906 16.5428C155.599 16.4735 156.112 16.4111 156.445 16.3556L158.13 17.4373C157.797 18.408 157.367 19.3649 156.84 20.3079C156.313 21.2371 155.717 22.1315 155.051 22.9913C155.537 23.3658 156.05 23.7887 156.59 24.2602C157.145 24.7318 157.686 25.2171 158.213 25.7164C158.74 26.2156 159.225 26.694 159.669 27.1517C160.113 27.6093 160.48 28.0184 160.772 28.379C160.425 28.6009 160.057 28.8921 159.669 29.2527C159.281 29.5994 158.941 29.9322 158.65 30.2511C158.386 29.8767 158.047 29.4537 157.631 28.9822C157.215 28.4969 156.764 28.0115 156.278 27.5261C155.807 27.0269 155.329 26.5484 154.843 26.0908C154.358 25.6193 153.9 25.2033 153.47 24.8427C152.319 26.0769 151.071 27.1933 149.726 28.1918C148.381 29.1903 147.029 30.0293 145.67 30.7088ZM168.968 31.8529C168.884 31.6587 168.766 31.423 168.614 31.1456C168.475 30.8683 168.316 30.5909 168.135 30.3135C167.955 30.0362 167.782 29.8074 167.615 29.6271C170.015 28.9337 172.025 27.9283 173.648 26.6108C175.27 25.2795 176.484 23.6778 177.288 21.8056C176.595 21.8334 175.804 21.8681 174.917 21.9097C174.043 21.9513 173.149 21.9929 172.233 22.0345C171.332 22.0761 170.472 22.1177 169.654 22.1593C168.85 22.2009 168.149 22.2425 167.553 22.2841C166.971 22.3118 166.568 22.3396 166.346 22.3673L166.138 19.7671C166.499 19.7809 167.012 19.7879 167.678 19.7879C168.343 19.7879 169.092 19.7809 169.924 19.7671C170.756 19.7532 171.616 19.7324 172.504 19.7047C173.391 19.6769 174.251 19.6492 175.083 19.6215C175.929 19.5799 176.685 19.5383 177.351 19.4967C178.016 19.4412 178.529 19.3927 178.89 19.351L180.304 20.2039C179.583 22.9775 178.301 25.3558 176.456 27.3389C174.612 29.3081 172.115 30.8128 168.968 31.8529ZM168.364 17.4997V15.0035C168.891 15.0451 169.578 15.0728 170.424 15.0867C171.27 15.1006 172.247 15.1075 173.357 15.1075C174.424 15.1075 175.381 15.0936 176.227 15.0659C177.073 15.0382 177.753 15.0174 178.266 15.0035V17.4997C177.739 17.4581 177.073 17.4304 176.269 17.4165C175.478 17.4026 174.508 17.3957 173.357 17.3957C172.733 17.3957 172.095 17.4026 171.443 17.4165C170.805 17.4165 170.209 17.4234 169.654 17.4373C169.113 17.4512 168.683 17.472 168.364 17.4997ZM193.68 31.3328V22.3257C192.626 23.0468 191.544 23.7194 190.435 24.3435C189.339 24.9536 188.265 25.4875 187.211 25.9452C187.1 25.7372 186.947 25.4945 186.753 25.2171C186.559 24.9398 186.351 24.6693 186.129 24.4059C185.921 24.1424 185.713 23.9344 185.505 23.7818C186.711 23.3519 187.959 22.7903 189.249 22.0969C190.539 21.4035 191.78 20.6338 192.973 19.7879C194.179 18.9419 195.282 18.0544 196.28 17.1253C197.279 16.1961 198.09 15.2739 198.714 14.3586L200.877 15.8356C200.281 16.626 199.588 17.4096 198.797 18.1862C198.021 18.9489 197.182 19.6908 196.28 20.4119V31.3328H193.68ZM208.075 30.7088C207.894 30.4037 207.652 30.0362 207.347 29.6063C207.055 29.1764 206.757 28.8366 206.452 28.587C207.492 28.1294 208.532 27.5608 209.572 26.8813C210.613 26.2017 211.604 25.439 212.547 24.5931C213.504 23.7333 214.371 22.8319 215.147 21.8889C215.938 20.932 216.603 19.9612 217.144 18.9766C216.465 19.0182 215.716 19.0668 214.898 19.1222C214.093 19.1777 213.289 19.2332 212.485 19.2886C211.694 19.3302 210.973 19.3788 210.321 19.4343C209.683 19.4759 209.191 19.5105 208.844 19.5383L208.553 16.8964C208.9 16.8964 209.42 16.8895 210.113 16.8756C210.807 16.8618 211.583 16.841 212.443 16.8132C213.303 16.7716 214.156 16.73 215.002 16.6884C215.861 16.6468 216.631 16.5983 217.311 16.5428C218.004 16.4735 218.517 16.4111 218.85 16.3556L220.535 17.4373C220.202 18.408 219.772 19.3649 219.245 20.3079C218.718 21.2371 218.122 22.1315 217.456 22.9913C217.942 23.3658 218.455 23.7887 218.996 24.2602C219.55 24.7318 220.091 25.2171 220.618 25.7164C221.145 26.2156 221.63 26.694 222.074 27.1517C222.518 27.6093 222.886 28.0184 223.177 28.379C222.83 28.6009 222.463 28.8921 222.074 29.2527C221.686 29.5994 221.346 29.9322 221.055 30.2511C220.791 29.8767 220.452 29.4537 220.036 28.9822C219.62 28.4969 219.169 28.0115 218.684 27.5261C218.212 27.0269 217.734 26.5484 217.248 26.0908C216.763 25.6193 216.305 25.2033 215.875 24.8427C214.724 26.0769 213.476 27.1933 212.131 28.1918C210.786 29.1903 209.434 30.0293 208.075 30.7088Z" fill="black"/>
<path d="M89.3337 78.1778C89.0177 77.7235 88.6325 77.2296 88.1782 76.6963C87.7239 76.1432 87.2597 75.6791 86.7856 75.3038C88.9782 74.3161 90.8942 73.0519 92.5336 71.5112C94.1929 69.9705 95.5262 68.2027 96.5336 66.2076C97.5607 64.1929 98.2224 62.0201 98.5187 59.6892C97.7484 59.709 96.8397 59.7386 95.7928 59.7781C94.746 59.8176 93.6596 59.8571 92.5336 59.8966C91.4275 59.9361 90.3608 59.9756 89.3337 60.0152C88.3066 60.0547 87.4374 60.0843 86.7263 60.104C86.7461 60.7559 86.7659 61.4571 86.7856 62.2077C86.8251 62.9583 86.8547 63.699 86.8745 64.4299C86.914 65.1607 86.9535 65.8126 86.993 66.3854C87.0325 66.9385 87.072 67.3335 87.1115 67.5706L83.4672 67.7187C83.4869 67.4422 83.4869 66.9385 83.4672 66.2076C83.4474 65.457 83.4178 64.6077 83.3783 63.6595C83.3585 62.6916 83.3289 61.7336 83.2894 60.7855C83.2499 59.8176 83.2005 58.9683 83.1412 58.2374C83.1017 57.4868 83.0622 56.9831 83.0227 56.7263C83.4375 56.7658 84.0795 56.7955 84.9486 56.8152C85.8177 56.8152 86.8152 56.8053 87.9411 56.7856C89.0868 56.7658 90.272 56.7461 91.4966 56.7263C92.7411 56.6868 93.946 56.6473 95.1114 56.6078C96.2768 56.5486 97.3138 56.4992 98.2224 56.4597C99.1311 56.4004 99.8224 56.3411 100.296 56.2819L102.37 57.23C102.114 62.1089 100.83 66.3163 98.5187 69.852C96.2274 73.368 93.1657 76.1432 89.3337 78.1778ZM110.281 68.6668C110.301 68.3903 110.311 68.015 110.311 67.5409C110.311 67.0669 110.311 66.5928 110.311 66.1187C110.311 65.6447 110.301 65.2694 110.281 64.9928C110.657 65.0126 111.318 65.0323 112.267 65.0521C113.234 65.0718 114.38 65.0916 115.704 65.1114C117.047 65.1311 118.479 65.1509 120 65.1706C121.521 65.1706 123.042 65.1706 124.563 65.1706C126.084 65.1706 127.516 65.1607 128.859 65.141C130.222 65.1212 131.397 65.1015 132.385 65.0817C133.372 65.062 134.074 65.0323 134.488 64.9928C134.469 65.2496 134.449 65.615 134.429 66.0891C134.429 66.5632 134.429 67.0471 134.429 67.5409C134.449 68.015 134.459 68.3804 134.459 68.6372C133.965 68.6175 133.234 68.5977 132.266 68.578C131.318 68.5582 130.202 68.5384 128.918 68.5187C127.654 68.4989 126.301 68.4891 124.859 68.4891C123.437 68.4891 121.995 68.4891 120.533 68.4891C119.071 68.4891 117.679 68.4989 116.355 68.5187C115.032 68.5384 113.837 68.5582 112.77 68.578C111.723 68.5977 110.894 68.6273 110.281 68.6668ZM143.792 79.1259C143.654 78.8296 143.446 78.4839 143.17 78.0889C142.893 77.6938 142.597 77.3087 142.281 76.9334C141.985 76.5383 141.708 76.2321 141.451 76.0149C143.841 75.1062 146.064 73.9507 148.118 72.5483C150.192 71.1261 152.029 69.5162 153.629 67.7187C155.249 65.9212 156.552 64.0052 157.54 61.9707C156.71 62.0102 155.821 62.0596 154.873 62.1188C153.945 62.1583 153.095 62.1978 152.325 62.2373C151.555 62.2571 150.982 62.267 150.607 62.267C149.639 63.5311 148.572 64.7163 147.407 65.8225C146.261 66.9089 145.046 67.8866 143.762 68.7557C143.585 68.5384 143.328 68.2718 142.992 67.9557C142.676 67.6397 142.34 67.3237 141.985 67.0076C141.649 66.6916 141.333 66.4447 141.036 66.2669C142.498 65.4175 143.881 64.3608 145.185 63.0966C146.488 61.8126 147.644 60.43 148.651 58.9485C149.658 57.4473 150.429 55.9658 150.962 54.5041L154.399 55.7189C154.162 56.272 153.915 56.8152 153.658 57.3485C153.402 57.8819 153.125 58.4053 152.829 58.9189C153.678 58.8991 154.597 58.8794 155.584 58.8596C156.592 58.8201 157.51 58.7806 158.34 58.7411C159.169 58.6818 159.762 58.6226 160.118 58.5633L162.34 59.8374C161.411 62.6423 160.039 65.2793 158.221 67.7483C156.424 70.2174 154.291 72.4199 151.821 74.3556C149.372 76.2914 146.696 77.8815 143.792 79.1259ZM174.873 77.9111C174.754 77.6543 174.567 77.3185 174.31 76.9037C174.053 76.4889 173.767 76.0741 173.451 75.6593C173.154 75.2445 172.868 74.9186 172.591 74.6815C176.344 73.4371 179.446 71.7285 181.895 69.5557C184.364 67.3829 186.142 64.5978 187.228 61.2003C186.3 61.2201 185.243 61.2497 184.058 61.2892C182.873 61.3287 181.658 61.3682 180.413 61.4077C179.189 61.4472 178.004 61.4867 176.858 61.5262C175.732 61.5657 174.744 61.6052 173.895 61.6448C173.046 61.6843 172.423 61.7139 172.028 61.7336L171.791 57.7337C172.364 57.7732 173.115 57.8028 174.043 57.8226C174.972 57.8424 175.999 57.8522 177.125 57.8522C178.27 57.8522 179.436 57.8522 180.621 57.8522C181.826 57.8325 182.991 57.8127 184.117 57.793C185.243 57.7535 186.26 57.714 187.169 57.6745C188.078 57.635 188.799 57.5954 189.332 57.5559L191.732 58.8004C191.06 61.9608 189.954 64.7953 188.413 67.3039C186.873 69.7927 184.957 71.9359 182.665 73.7334C180.374 75.5112 177.776 76.9037 174.873 77.9111ZM202.25 74.8593V58.9781H220.265V74.8593H202.25ZM205.924 71.4816H216.591V62.3558H205.924V71.4816ZM228.798 68.6668C228.817 68.3903 228.827 68.015 228.827 67.5409C228.827 67.0669 228.827 66.5928 228.827 66.1187C228.827 65.6447 228.817 65.2694 228.798 64.9928C229.173 65.0126 229.835 65.0323 230.783 65.0521C231.751 65.0718 232.896 65.0916 234.22 65.1114C235.563 65.1311 236.995 65.1509 238.516 65.1706C240.037 65.1706 241.558 65.1706 243.079 65.1706C244.6 65.1706 246.032 65.1607 247.375 65.141C248.738 65.1212 249.913 65.1015 250.901 65.0817C251.889 65.062 252.59 65.0323 253.005 64.9928C252.985 65.2496 252.965 65.615 252.945 66.0891C252.945 66.5632 252.945 67.0471 252.945 67.5409C252.965 68.015 252.975 68.3804 252.975 68.6372C252.481 68.6175 251.75 68.5977 250.783 68.578C249.834 68.5582 248.718 68.5384 247.434 68.5187C246.17 68.4989 244.817 68.4891 243.375 68.4891C241.953 68.4891 240.511 68.4891 239.049 68.4891C237.588 68.4891 236.195 68.4989 234.872 68.5187C233.548 68.5384 232.353 68.5582 231.287 68.578C230.24 68.5977 229.41 68.6273 228.798 68.6668Z" fill="#221366"/>
<path d="M313.334 78.1778C313.018 77.7235 312.632 77.2296 312.178 76.6963C311.724 76.1432 311.26 75.6791 310.786 75.3038C312.978 74.3161 314.894 73.0519 316.534 71.5112C318.193 69.9705 319.526 68.2027 320.534 66.2076C321.561 64.1929 322.222 62.0201 322.519 59.6892C321.748 59.709 320.84 59.7386 319.793 59.7781C318.746 59.8176 317.66 59.8571 316.534 59.8966C315.427 59.9361 314.361 59.9756 313.334 60.0152C312.307 60.0547 311.437 60.0843 310.726 60.104C310.746 60.7559 310.766 61.4571 310.786 62.2077C310.825 62.9583 310.855 63.699 310.874 64.4299C310.914 65.1607 310.954 65.8126 310.993 66.3854C311.033 66.9385 311.072 67.3335 311.112 67.5706L307.467 67.7187C307.487 67.4422 307.487 66.9385 307.467 66.2076C307.447 65.457 307.418 64.6077 307.378 63.6595C307.359 62.6916 307.329 61.7336 307.289 60.7855C307.25 59.8176 307.2 58.9683 307.141 58.2374C307.102 57.4868 307.062 56.9831 307.023 56.7263C307.438 56.7658 308.079 56.7955 308.949 56.8152C309.818 56.8152 310.815 56.8053 311.941 56.7856C313.087 56.7658 314.272 56.7461 315.497 56.7263C316.741 56.6868 317.946 56.6473 319.111 56.6078C320.277 56.5486 321.314 56.4992 322.222 56.4597C323.131 56.4004 323.822 56.3411 324.296 56.2819L326.37 57.23C326.114 62.1089 324.83 66.3163 322.519 69.852C320.227 73.368 317.166 76.1432 313.334 78.1778ZM334.281 68.6668C334.301 68.3903 334.311 68.015 334.311 67.5409C334.311 67.0669 334.311 66.5928 334.311 66.1187C334.311 65.6447 334.301 65.2694 334.281 64.9928C334.657 65.0126 335.318 65.0323 336.267 65.0521C337.234 65.0718 338.38 65.0916 339.704 65.1114C341.047 65.1311 342.479 65.1509 344 65.1706C345.521 65.1706 347.042 65.1706 348.563 65.1706C350.084 65.1706 351.516 65.1607 352.859 65.141C354.222 65.1212 355.397 65.1015 356.385 65.0817C357.372 65.062 358.074 65.0323 358.488 64.9928C358.469 65.2496 358.449 65.615 358.429 66.0891C358.429 66.5632 358.429 67.0471 358.429 67.5409C358.449 68.015 358.459 68.3804 358.459 68.6372C357.965 68.6175 357.234 68.5977 356.266 68.578C355.318 68.5582 354.202 68.5384 352.918 68.5187C351.654 68.4989 350.301 68.4891 348.859 68.4891C347.437 68.4891 345.995 68.4891 344.533 68.4891C343.071 68.4891 341.679 68.4989 340.355 68.5187C339.032 68.5384 337.837 68.5582 336.77 68.578C335.723 68.5977 334.894 68.6273 334.281 68.6668ZM367.792 79.1259C367.654 78.8296 367.446 78.4839 367.17 78.0889C366.893 77.6938 366.597 77.3087 366.281 76.9334C365.985 76.5383 365.708 76.2321 365.451 76.0149C367.841 75.1062 370.064 73.9507 372.118 72.5483C374.192 71.1261 376.029 69.5162 377.629 67.7187C379.249 65.9212 380.552 64.0052 381.54 61.9707C380.71 62.0102 379.821 62.0596 378.873 62.1188C377.945 62.1583 377.095 62.1978 376.325 62.2373C375.555 62.2571 374.982 62.267 374.607 62.267C373.639 63.5311 372.572 64.7163 371.407 65.8225C370.261 66.9089 369.046 67.8866 367.762 68.7557C367.585 68.5384 367.328 68.2718 366.992 67.9557C366.676 67.6397 366.34 67.3237 365.985 67.0076C365.649 66.6916 365.333 66.4447 365.036 66.2669C366.498 65.4175 367.881 64.3608 369.185 63.0966C370.488 61.8126 371.644 60.43 372.651 58.9485C373.658 57.4473 374.429 55.9658 374.962 54.5041L378.399 55.7189C378.162 56.272 377.915 56.8152 377.658 57.3485C377.402 57.8819 377.125 58.4053 376.829 58.9189C377.678 58.8991 378.597 58.8794 379.584 58.8596C380.592 58.8201 381.51 58.7806 382.34 58.7411C383.169 58.6818 383.762 58.6226 384.118 58.5633L386.34 59.8374C385.411 62.6423 384.039 65.2793 382.221 67.7483C380.424 70.2174 378.291 72.4199 375.821 74.3556C373.372 76.2914 370.696 77.8815 367.792 79.1259ZM398.873 77.9111C398.754 77.6543 398.567 77.3185 398.31 76.9037C398.053 76.4889 397.767 76.0741 397.451 75.6593C397.154 75.2445 396.868 74.9186 396.591 74.6815C400.344 73.4371 403.446 71.7285 405.895 69.5557C408.364 67.3829 410.142 64.5978 411.228 61.2003C410.3 61.2201 409.243 61.2497 408.058 61.2892C406.873 61.3287 405.658 61.3682 404.413 61.4077C403.189 61.4472 402.004 61.4867 400.858 61.5262C399.732 61.5657 398.744 61.6052 397.895 61.6448C397.046 61.6843 396.423 61.7139 396.028 61.7336L395.791 57.7337C396.364 57.7732 397.115 57.8028 398.043 57.8226C398.972 57.8424 399.999 57.8522 401.125 57.8522C402.27 57.8522 403.436 57.8522 404.621 57.8522C405.826 57.8325 406.991 57.8127 408.117 57.793C409.243 57.7535 410.26 57.714 411.169 57.6745C412.078 57.635 412.799 57.5954 413.332 57.5559L415.732 58.8004C415.06 61.9608 413.954 64.7953 412.413 67.3039C410.873 69.7927 408.957 71.9359 406.665 73.7334C404.374 75.5112 401.776 76.9037 398.873 77.9111ZM426.25 74.8593V58.9781H444.265V74.8593H426.25ZM429.924 71.4816H440.591V62.3558H429.924V71.4816ZM452.798 68.6668C452.817 68.3903 452.827 68.015 452.827 67.5409C452.827 67.0669 452.827 66.5928 452.827 66.1187C452.827 65.6447 452.817 65.2694 452.798 64.9928C453.173 65.0126 453.835 65.0323 454.783 65.0521C455.751 65.0718 456.896 65.0916 458.22 65.1114C459.563 65.1311 460.995 65.1509 462.516 65.1706C464.037 65.1706 465.558 65.1706 467.079 65.1706C468.6 65.1706 470.032 65.1607 471.375 65.141C472.738 65.1212 473.913 65.1015 474.901 65.0817C475.889 65.062 476.59 65.0323 477.005 64.9928C476.985 65.2496 476.965 65.615 476.945 66.0891C476.945 66.5632 476.945 67.0471 476.945 67.5409C476.965 68.015 476.975 68.3804 476.975 68.6372C476.481 68.6175 475.75 68.5977 474.783 68.578C473.834 68.5582 472.718 68.5384 471.434 68.5187C470.17 68.4989 468.817 68.4891 467.375 68.4891C465.953 68.4891 464.511 68.4891 463.049 68.4891C461.588 68.4891 460.195 68.4989 458.872 68.5187C457.548 68.5384 456.353 68.5582 455.287 68.578C454.24 68.5977 453.41 68.6273 452.798 68.6668Z" fill="#221366"/>
<rect x="63.9329" y="162.479" width="202.611" height="45.7125" rx="1.86581" fill="#DFDFDF" stroke="black" stroke-width="1.86581"/>
<rect x="287.933" y="162.479" width="202.611" height="45.7125" rx="1.86581" fill="#DFDFDF" stroke="black" stroke-width="1.86581"/>
<rect x="63.9329" y="99.0415" width="202.611" height="45.7125" rx="1.86581" fill="#DFDFDF" stroke="black" stroke-width="1.86581"/>
<rect x="287.933" y="99.0415" width="202.611" height="45.7125" rx="1.86581" fill="#DFDFDF" stroke="black" stroke-width="1.86581"/>
<rect x="63.9329" y="225.917" width="202.611" height="45.7125" rx="1.86581" fill="#DFDFDF" stroke="black" stroke-width="1.86581"/>
<rect x="287.933" y="225.917" width="202.611" height="45.7125" rx="1.86581" fill="#DFDFDF" stroke="black" stroke-width="1.86581"/>
<rect x="63.9329" y="289.355" width="202.611" height="45.7125" rx="1.86581" fill="#DFDFDF" stroke="black" stroke-width="1.86581"/>
<rect x="287.933" y="289.355" width="202.611" height="45.7125" rx="1.86581" fill="#DFDFDF" stroke="black" stroke-width="1.86581"/>
<path d="M158.413 87.6497C158.819 86.4274 158.158 85.1071 156.936 84.7006C155.713 84.2941 154.393 84.9554 153.987 86.1777L158.413 87.6497ZM155.199 338.106C156.362 338.659 157.753 338.164 158.306 337.001L167.316 318.043C167.869 316.88 167.375 315.488 166.211 314.935C165.048 314.382 163.656 314.877 163.104 316.041L155.094 332.892L138.243 324.883C137.079 324.33 135.688 324.825 135.135 325.989C134.582 327.152 135.077 328.543 136.24 329.096L155.199 338.106ZM153.987 86.1777C137.623 135.381 128.975 173.844 128.774 212.156C128.572 250.482 136.824 288.485 154.002 336.782L158.397 335.218C141.319 287.204 133.241 249.768 133.438 212.181C133.636 174.58 142.115 136.655 158.413 87.6497L153.987 86.1777Z" fill="#221366"/>
<path d="M382.413 87.6497C382.819 86.4274 382.158 85.1071 380.936 84.7006C379.713 84.2941 378.393 84.9554 377.987 86.1777L382.413 87.6497ZM379.199 338.106C380.362 338.659 381.753 338.164 382.306 337.001L391.316 318.043C391.869 316.88 391.375 315.488 390.211 314.935C389.048 314.382 387.656 314.877 387.104 316.041L379.094 332.892L362.243 324.883C361.079 324.33 359.688 324.825 359.135 325.989C358.582 327.152 359.077 328.543 360.24 329.096L379.199 338.106ZM377.987 86.1777C361.623 135.381 352.975 173.844 352.774 212.156C352.572 250.482 360.824 288.485 378.002 336.782L382.397 335.218C365.319 287.204 357.241 249.768 357.438 212.181C357.636 174.58 366.115 136.655 382.413 87.6497L377.987 86.1777Z" fill="#221366"/>
<path d="M173.293 335.264C172.886 336.486 173.547 337.807 174.77 338.213C175.992 338.62 177.312 337.958 177.719 336.736L173.293 335.264ZM176.507 84.8073C175.343 84.2544 173.952 84.7492 173.399 85.9126L164.389 104.871C163.836 106.034 164.331 107.425 165.494 107.978C166.658 108.531 168.049 108.036 168.602 106.873L176.611 90.0213L193.463 98.0305C194.626 98.5834 196.017 98.0885 196.57 96.9252C197.123 95.7618 196.628 94.3705 195.465 93.8176L176.507 84.8073ZM177.719 336.736C194.082 287.532 202.73 249.07 202.932 210.757C203.133 172.431 194.881 134.428 177.703 86.1322L173.308 87.6953C190.386 135.71 198.465 173.146 198.267 210.733C198.07 248.334 189.59 286.259 173.293 335.264L177.719 336.736Z" fill="#221366"/>
<path d="M397.293 335.264C396.886 336.486 397.547 337.807 398.77 338.213C399.992 338.62 401.312 337.958 401.719 336.736L397.293 335.264ZM400.507 84.8073C399.343 84.2544 397.952 84.7492 397.399 85.9126L388.389 104.871C387.836 106.034 388.331 107.425 389.494 107.978C390.658 108.531 392.049 108.036 392.602 106.873L400.611 90.0213L417.463 98.0305C418.626 98.5834 420.017 98.0885 420.57 96.9252C421.123 95.7618 420.628 94.3705 419.465 93.8176L400.507 84.8073ZM401.719 336.736C418.082 287.532 426.73 249.07 426.932 210.757C427.133 172.431 418.881 134.428 401.703 86.1322L397.308 87.6953C414.386 135.71 422.465 173.146 422.267 210.733C422.07 248.334 413.59 286.259 397.293 335.264L401.719 336.736Z" fill="#221366"/>
</svg>
